<svg width="1238" height="382" viewBox="0 0 1238 382" fill="none" xmlns="http://www.w3.org/2000/svg">
<path d="M85.0117 244.5L85.0117 193.861L85.0118 89.2222C85.0119 83.6994 89.489 79.2222 95.0118 79.2222L139.864 79.2222C145.387 79.2222 149.864 74.7451 149.864 69.2222L149.864 11C149.864 5.47717 154.341 1.00001 159.864 1.00001L263.356 1.00001L398.735 1L577.077 1.00001C582.6 1.00001 587.077 5.47716 587.077 11L587.077 34.5" stroke="url(#paint0_linear_2288_2423)" stroke-width="2"/>
<path d="M1144.15 103L1144.15 219.133C1144.15 224.656 1139.67 229.133 1134.15 229.133L1089.17 229.133C1083.64 229.133 1079.17 233.61 1079.17 239.133L1079.17 313C1079.17 318.523 1074.69 323 1069.17 323L965.449 323L829.8 323L651.083 323C645.56 323 641.083 318.523 641.083 313L641.083 282.8" stroke="url(#paint1_linear_2288_2423)" stroke-width="2"/>
<rect y="229" width="181.049" height="45" rx="22.5" fill="white"/>
<rect x="0.5" y="229.5" width="180.049" height="44" rx="22" stroke="#BFC8E2" stroke-opacity="0.3"/>
<mask id="mask0_2288_2423" style="mask-type:alpha" maskUnits="userSpaceOnUse" x="20" y="239" width="25" height="25">
<rect width="25" height="25" transform="matrix(-1 0 0 1 45 239)" fill="#0B46C1"/>
</mask>
<g mask="url(#mask0_2288_2423)">
<path d="M38.75 259.835C39.6181 259.835 40.3559 259.531 40.9636 258.923C41.5712 258.316 41.875 257.578 41.875 256.71H43.9584V245.251C43.9584 244.678 43.7544 244.188 43.3464 243.78C42.9384 243.372 42.448 243.168 41.875 243.168H27.2917V247.335H24.1667L21.0417 251.501V256.71H23.125C23.125 257.578 23.4289 258.316 24.0365 258.923C24.6441 259.531 25.382 259.835 26.25 259.835C27.1181 259.835 27.8559 259.531 28.4636 258.923C29.0712 258.316 29.375 257.578 29.375 256.71H35.625C35.625 257.578 35.9289 258.316 36.5365 258.923C37.1441 259.531 37.882 259.835 38.75 259.835ZM38.75 257.751C38.4549 257.751 38.2075 257.651 38.0079 257.452C37.8082 257.252 37.7084 257.005 37.7084 256.71C37.7084 256.414 37.8082 256.167 38.0079 255.967C38.2075 255.768 38.4549 255.668 38.75 255.668C39.0452 255.668 39.2926 255.768 39.4922 255.967C39.6919 256.167 39.7917 256.414 39.7917 256.71C39.7917 257.005 39.6919 257.252 39.4922 257.452C39.2926 257.651 39.0452 257.751 38.75 257.751ZM41.875 254.626H41.0417C40.7466 254.314 40.408 254.062 40.0261 253.871C39.6441 253.68 39.2188 253.585 38.75 253.585C38.2813 253.585 37.8559 253.68 37.474 253.871C37.0921 254.062 36.7535 254.314 36.4584 254.626H29.375V245.251H41.875V254.626ZM26.25 257.751C25.9549 257.751 25.7075 257.651 25.5079 257.452C25.3082 257.252 25.2084 257.005 25.2084 256.71C25.2084 256.414 25.3082 256.167 25.5079 255.967C25.7075 255.768 25.9549 255.668 26.25 255.668C26.5452 255.668 26.7926 255.768 26.9922 255.967C27.1919 256.167 27.2917 256.414 27.2917 256.71C27.2917 257.005 27.1919 257.252 26.9922 257.452C26.7926 257.651 26.5452 257.751 26.25 257.751ZM27.2917 252.543H22.8646L25.2084 249.418H27.2917V252.543Z" fill="#0B46C1"/>
</g>
<path d="M51.504 257.5V246.3H56.4C57.616 246.3 58.6827 246.535 59.6 247.004C60.5173 247.473 61.232 248.124 61.744 248.956C62.256 249.788 62.512 250.769 62.512 251.9C62.512 253.02 62.256 254.001 61.744 254.844C61.232 255.676 60.5173 256.327 59.6 256.796C58.6827 257.265 57.616 257.5 56.4 257.5H51.504ZM53.584 255.74H56.304C57.1467 255.74 57.872 255.58 58.48 255.26C59.0987 254.94 59.5733 254.492 59.904 253.916C60.2453 253.34 60.416 252.668 60.416 251.9C60.416 251.121 60.2453 250.449 59.904 249.884C59.5733 249.308 59.0987 248.86 58.48 248.54C57.872 248.22 57.1467 248.06 56.304 248.06H53.584V255.74ZM64.5308 257.5V248.956H66.5308V257.5H64.5308ZM65.5388 247.548C65.1654 247.548 64.8561 247.431 64.6108 247.196C64.3761 246.961 64.2588 246.679 64.2588 246.348C64.2588 246.007 64.3761 245.724 64.6108 245.5C64.8561 245.265 65.1654 245.148 65.5388 245.148C65.9121 245.148 66.2161 245.26 66.4508 245.484C66.6961 245.697 66.8188 245.969 66.8188 246.3C66.8188 246.652 66.7014 246.951 66.4668 247.196C66.2321 247.431 65.9228 247.548 65.5388 247.548ZM71.7958 257.612C71.0811 257.612 70.3931 257.521 69.7318 257.34C69.0811 257.148 68.5638 256.919 68.1798 256.652L68.9478 255.132C69.3318 255.377 69.7904 255.58 70.3238 255.74C70.8571 255.9 71.3904 255.98 71.9238 255.98C72.5531 255.98 73.0064 255.895 73.2838 255.724C73.5718 255.553 73.7158 255.324 73.7158 255.036C73.7158 254.801 73.6198 254.625 73.4278 254.508C73.2358 254.38 72.9851 254.284 72.6758 254.22C72.3664 254.156 72.0198 254.097 71.6358 254.044C71.2624 253.991 70.8838 253.921 70.4998 253.836C70.1264 253.74 69.7851 253.607 69.4758 253.436C69.1664 253.255 68.9158 253.015 68.7238 252.716C68.5318 252.417 68.4358 252.023 68.4358 251.532C68.4358 250.988 68.5904 250.519 68.8997 250.124C69.2091 249.719 69.6411 249.409 70.1957 249.196C70.7611 248.972 71.4278 248.86 72.1958 248.86C72.7718 248.86 73.3531 248.924 73.9398 249.052C74.5264 249.18 75.0118 249.361 75.3958 249.596L74.6278 251.116C74.2224 250.871 73.8118 250.705 73.3958 250.62C72.9904 250.524 72.5851 250.476 72.1798 250.476C71.5718 250.476 71.1184 250.567 70.8198 250.748C70.5318 250.929 70.3878 251.159 70.3878 251.436C70.3878 251.692 70.4838 251.884 70.6758 252.012C70.8678 252.14 71.1184 252.241 71.4278 252.316C71.7371 252.391 72.0784 252.455 72.4518 252.508C72.8358 252.551 73.2144 252.62 73.5878 252.716C73.9611 252.812 74.3024 252.945 74.6118 253.116C74.9318 253.276 75.1878 253.505 75.3798 253.804C75.5718 254.103 75.6678 254.492 75.6678 254.972C75.6678 255.505 75.5078 255.969 75.1878 256.364C74.8784 256.759 74.4358 257.068 73.8598 257.292C73.2838 257.505 72.5958 257.612 71.7958 257.612ZM80.6061 257.612C79.6675 257.612 78.9421 257.372 78.4301 256.892C77.9181 256.401 77.6621 255.681 77.6621 254.732V247.068H79.6621V254.684C79.6621 255.089 79.7635 255.404 79.9661 255.628C80.1795 255.852 80.4728 255.964 80.8461 255.964C81.2941 255.964 81.6675 255.847 81.9661 255.612L82.5261 257.036C82.2915 257.228 82.0035 257.372 81.6621 257.468C81.3208 257.564 80.9688 257.612 80.6061 257.612ZM76.2541 250.62V249.02H81.9501V250.62H76.2541ZM84.1714 257.5V248.956H86.0754V251.308L85.8514 250.62C86.1074 250.044 86.5074 249.607 87.0514 249.308C87.606 249.009 88.294 248.86 89.1154 248.86V250.764C89.03 250.743 88.95 250.732 88.8754 250.732C88.8007 250.721 88.726 250.716 88.6514 250.716C87.894 250.716 87.2914 250.94 86.8434 251.388C86.3954 251.825 86.1714 252.481 86.1714 253.356V257.5H84.1714ZM90.812 257.5V248.956H92.812V257.5H90.812ZM91.82 247.548C91.4467 247.548 91.1373 247.431 90.892 247.196C90.6573 246.961 90.54 246.679 90.54 246.348C90.54 246.007 90.6573 245.724 90.892 245.5C91.1373 245.265 91.4467 245.148 91.82 245.148C92.1933 245.148 92.4973 245.26 92.732 245.484C92.9773 245.697 93.1 245.969 93.1 246.3C93.1 246.652 92.9827 246.951 92.748 247.196C92.5133 247.431 92.204 247.548 91.82 247.548ZM100.173 257.612C99.4477 257.612 98.8023 257.452 98.237 257.132C97.6717 256.812 97.2237 256.332 96.893 255.692C96.573 255.041 96.413 254.22 96.413 253.228C96.413 252.225 96.5783 251.404 96.909 250.764C97.2503 250.124 97.7037 249.649 98.269 249.34C98.845 249.02 99.4797 248.86 100.173 248.86C101.016 248.86 101.757 249.041 102.397 249.404C103.048 249.767 103.56 250.273 103.933 250.924C104.317 251.575 104.509 252.343 104.509 253.228C104.509 254.113 104.317 254.881 103.933 255.532C103.56 256.183 103.048 256.695 102.397 257.068C101.757 257.431 101.016 257.612 100.173 257.612ZM95.437 257.5V245.628H97.437V250.94L97.277 253.212L97.341 255.484V257.5H95.437ZM99.949 255.9C100.429 255.9 100.856 255.793 101.229 255.58C101.613 255.367 101.917 255.057 102.141 254.652C102.365 254.247 102.477 253.772 102.477 253.228C102.477 252.673 102.365 252.199 102.141 251.804C101.917 251.399 101.613 251.089 101.229 250.876C100.856 250.663 100.429 250.556 99.949 250.556C99.469 250.556 99.037 250.663 98.653 250.876C98.269 251.089 97.965 251.399 97.741 251.804C97.517 252.199 97.405 252.673 97.405 253.228C97.405 253.772 97.517 254.247 97.741 254.652C97.965 255.057 98.269 255.367 98.653 255.58C99.037 255.793 99.469 255.9 99.949 255.9ZM110.022 257.612C109.296 257.612 108.656 257.479 108.102 257.212C107.547 256.935 107.115 256.519 106.806 255.964C106.496 255.399 106.342 254.689 106.342 253.836V248.956H108.342V253.564C108.342 254.332 108.512 254.908 108.854 255.292C109.206 255.665 109.702 255.852 110.342 255.852C110.811 255.852 111.216 255.756 111.558 255.564C111.91 255.372 112.182 255.084 112.374 254.7C112.576 254.316 112.678 253.841 112.678 253.276V248.956H114.678V257.5H112.774V255.196L113.11 255.9C112.822 256.455 112.4 256.881 111.846 257.18C111.291 257.468 110.683 257.612 110.022 257.612ZM120.512 257.612C119.574 257.612 118.848 257.372 118.336 256.892C117.824 256.401 117.568 255.681 117.568 254.732V247.068H119.568V254.684C119.568 255.089 119.67 255.404 119.872 255.628C120.086 255.852 120.379 255.964 120.752 255.964C121.2 255.964 121.574 255.847 121.872 255.612L122.432 257.036C122.198 257.228 121.91 257.372 121.568 257.468C121.227 257.564 120.875 257.612 120.512 257.612ZM116.16 250.62V249.02H121.856V250.62H116.16ZM127.636 257.612C126.762 257.612 125.983 257.425 125.3 257.052C124.618 256.668 124.079 256.145 123.684 255.484C123.29 254.823 123.092 254.071 123.092 253.228C123.092 252.375 123.29 251.623 123.684 250.972C124.079 250.311 124.618 249.793 125.3 249.42C125.983 249.047 126.762 248.86 127.636 248.86C128.522 248.86 129.306 249.047 129.988 249.42C130.682 249.793 131.22 250.305 131.604 250.956C131.999 251.607 132.196 252.364 132.196 253.228C132.196 254.071 131.999 254.823 131.604 255.484C131.22 256.145 130.682 256.668 129.988 257.052C129.306 257.425 128.522 257.612 127.636 257.612ZM127.636 255.9C128.127 255.9 128.564 255.793 128.948 255.58C129.332 255.367 129.631 255.057 129.844 254.652C130.068 254.247 130.18 253.772 130.18 253.228C130.18 252.673 130.068 252.199 129.844 251.804C129.631 251.399 129.332 251.089 128.948 250.876C128.564 250.663 128.132 250.556 127.652 250.556C127.162 250.556 126.724 250.663 126.34 250.876C125.967 251.089 125.668 251.399 125.444 251.804C125.22 252.199 125.108 252.673 125.108 253.228C125.108 253.772 125.22 254.247 125.444 254.652C125.668 255.057 125.967 255.367 126.34 255.58C126.724 255.793 127.156 255.9 127.636 255.9ZM134.109 257.5V248.956H136.013V251.308L135.789 250.62C136.045 250.044 136.445 249.607 136.989 249.308C137.544 249.009 138.232 248.86 139.053 248.86V250.764C138.968 250.743 138.888 250.732 138.813 250.732C138.738 250.721 138.664 250.716 138.589 250.716C137.832 250.716 137.229 250.94 136.781 251.388C136.333 251.825 136.109 252.481 136.109 253.356V257.5H134.109ZM143.468 257.612C142.753 257.612 142.065 257.521 141.404 257.34C140.753 257.148 140.236 256.919 139.852 256.652L140.62 255.132C141.004 255.377 141.462 255.58 141.996 255.74C142.529 255.9 143.062 255.98 143.596 255.98C144.225 255.98 144.678 255.895 144.956 255.724C145.244 255.553 145.388 255.324 145.388 255.036C145.388 254.801 145.292 254.625 145.1 254.508C144.908 254.38 144.657 254.284 144.348 254.22C144.038 254.156 143.692 254.097 143.308 254.044C142.934 253.991 142.556 253.921 142.172 253.836C141.798 253.74 141.457 253.607 141.148 253.436C140.838 253.255 140.588 253.015 140.396 252.716C140.204 252.417 140.108 252.023 140.108 251.532C140.108 250.988 140.262 250.519 140.572 250.124C140.881 249.719 141.313 249.409 141.868 249.196C142.433 248.972 143.1 248.86 143.868 248.86C144.444 248.86 145.025 248.924 145.612 249.052C146.198 249.18 146.684 249.361 147.068 249.596L146.3 251.116C145.894 250.871 145.484 250.705 145.068 250.62C144.662 250.524 144.257 250.476 143.852 250.476C143.244 250.476 142.79 250.567 142.492 250.748C142.204 250.929 142.06 251.159 142.06 251.436C142.06 251.692 142.156 251.884 142.348 252.012C142.54 252.14 142.79 252.241 143.1 252.316C143.409 252.391 143.75 252.455 144.124 252.508C144.508 252.551 144.886 252.62 145.26 252.716C145.633 252.812 145.974 252.945 146.284 253.116C146.604 253.276 146.86 253.505 147.052 253.804C147.244 254.103 147.34 254.492 147.34 254.972C147.34 255.505 147.18 255.969 146.86 256.364C146.55 256.759 146.108 257.068 145.532 257.292C144.956 257.505 144.268 257.612 143.468 257.612Z" fill="#0B46C1"/>
<path d="M284.001 177L284 202.5C284 208.023 288.477 212.5 294 212.5H329.441C334.964 212.5 339.441 216.977 339.441 222.5V256.5C339.441 262.023 343.918 266.5 349.441 266.5H429.584" stroke="url(#paint2_linear_2288_2423)" stroke-width="2"/>
<path d="M925.583 155.5L925.584 130C925.584 124.477 921.107 120 915.584 120H880.143C874.62 120 870.143 115.523 870.143 110V76C870.143 70.4772 865.665 66 860.143 66H780" stroke="url(#paint3_linear_2288_2423)" stroke-width="2"/>
<rect x="169" y="140" width="200.288" height="45" rx="22.5" fill="white"/>
<rect x="169.5" y="140.5" width="199.288" height="44" rx="22" stroke="#BFC8E2" stroke-opacity="0.3"/>
<mask id="mask1_2288_2423" style="mask-type:alpha" maskUnits="userSpaceOnUse" x="189" y="150" width="25" height="25">
<rect x="189" y="150" width="25" height="25" fill="#D9D9D9"/>
</mask>
<g mask="url(#mask1_2288_2423)">
<path d="M194.701 171.875C193.838 171.875 193.138 171.175 193.138 170.312C193.138 169.449 193.838 168.75 194.701 168.75H196.368L193.711 160.052C193.243 159.791 192.856 159.409 192.553 158.906C192.249 158.402 192.097 157.864 192.097 157.291C192.097 156.423 192.401 155.685 193.008 155.078C193.616 154.47 194.354 154.166 195.222 154.166C195.899 154.166 196.502 154.362 197.032 154.752C197.561 155.143 197.93 155.642 198.138 156.25H201.472V155.208C201.472 154.913 201.572 154.665 201.771 154.466C201.971 154.266 202.218 154.166 202.513 154.166C202.67 154.166 202.822 154.201 202.969 154.27C203.117 154.34 203.243 154.444 203.347 154.583L205.118 152.916C205.274 152.76 205.461 152.66 205.678 152.617C205.895 152.573 206.107 152.604 206.316 152.708L210.378 154.583C210.586 154.687 210.73 154.839 210.808 155.039C210.886 155.238 210.882 155.434 210.795 155.625C210.691 155.833 210.539 155.967 210.339 156.028C210.139 156.089 209.944 156.076 209.753 155.989L206.003 154.27L203.555 156.562V158.02L206.003 160.26L209.753 158.541C209.944 158.454 210.144 158.446 210.352 158.515C210.56 158.585 210.708 158.715 210.795 158.906C210.899 159.114 210.908 159.314 210.821 159.505C210.734 159.696 210.586 159.843 210.378 159.948L206.316 161.875C206.107 161.979 205.895 162.009 205.678 161.966C205.461 161.922 205.274 161.823 205.118 161.666L203.347 160C203.243 160.104 203.117 160.199 202.969 160.286C202.822 160.373 202.67 160.416 202.513 160.416C202.218 160.416 201.971 160.316 201.771 160.117C201.572 159.917 201.472 159.67 201.472 159.375V158.333H198.138C198.086 158.472 198.03 158.602 197.969 158.724C197.908 158.845 197.826 158.975 197.722 159.114L202.93 168.75H205.118C205.981 168.75 206.68 169.449 206.68 170.312C206.68 171.175 205.981 171.875 205.118 171.875H194.701ZM195.222 158.333C195.517 158.333 195.764 158.233 195.964 158.033C196.164 157.834 196.263 157.586 196.263 157.291C196.263 156.996 196.164 156.749 195.964 156.549C195.764 156.349 195.517 156.25 195.222 156.25C194.927 156.25 194.679 156.349 194.48 156.549C194.28 156.749 194.18 156.996 194.18 157.291C194.18 157.586 194.28 157.834 194.48 158.033C194.679 158.233 194.927 158.333 195.222 158.333ZM198.503 168.75H200.534L196.055 160.416H195.951L198.503 168.75Z" fill="#609966"/>
</g>
<path d="M220.504 168.5V157.3H222.216L227.112 165.476H226.216L231.032 157.3H232.744L232.76 168.5H230.792L230.776 160.388H231.192L227.096 167.22H226.168L222.008 160.388H222.488V168.5H220.504ZM240.857 168.5V166.772L240.745 166.404V163.38C240.745 162.793 240.569 162.34 240.217 162.02C239.865 161.689 239.332 161.524 238.617 161.524C238.137 161.524 237.663 161.599 237.193 161.748C236.735 161.897 236.345 162.105 236.025 162.372L235.241 160.916C235.7 160.564 236.244 160.303 236.873 160.132C237.513 159.951 238.175 159.86 238.857 159.86C240.095 159.86 241.049 160.159 241.721 160.756C242.404 161.343 242.745 162.255 242.745 163.492V168.5H240.857ZM238.169 168.612C237.529 168.612 236.969 168.505 236.489 168.292C236.009 168.068 235.636 167.764 235.369 167.38C235.113 166.985 234.985 166.543 234.985 166.052C234.985 165.572 235.097 165.14 235.321 164.756C235.556 164.372 235.935 164.068 236.457 163.844C236.98 163.62 237.673 163.508 238.537 163.508H241.017V164.836H238.681C237.999 164.836 237.54 164.948 237.305 165.172C237.071 165.385 236.953 165.652 236.953 165.972C236.953 166.335 237.097 166.623 237.385 166.836C237.673 167.049 238.073 167.156 238.585 167.156C239.076 167.156 239.513 167.044 239.897 166.82C240.292 166.596 240.575 166.265 240.745 165.828L241.081 167.028C240.889 167.529 240.543 167.919 240.041 168.196C239.551 168.473 238.927 168.612 238.169 168.612ZM250.16 159.86C250.843 159.86 251.451 159.993 251.984 160.26C252.528 160.527 252.955 160.937 253.264 161.492C253.573 162.036 253.728 162.74 253.728 163.604V168.5H251.728V163.86C251.728 163.103 251.547 162.537 251.184 162.164C250.832 161.791 250.336 161.604 249.696 161.604C249.227 161.604 248.811 161.7 248.448 161.892C248.085 162.084 247.803 162.372 247.6 162.756C247.408 163.129 247.312 163.604 247.312 164.18V168.5H245.312V159.956H247.216V162.26L246.88 161.556C247.179 161.012 247.611 160.596 248.176 160.308C248.752 160.009 249.413 159.86 250.16 159.86ZM259.881 168.612C259.156 168.612 258.516 168.479 257.961 168.212C257.406 167.935 256.974 167.519 256.665 166.964C256.356 166.399 256.201 165.689 256.201 164.836V159.956H258.201V164.564C258.201 165.332 258.372 165.908 258.713 166.292C259.065 166.665 259.561 166.852 260.201 166.852C260.67 166.852 261.076 166.756 261.417 166.564C261.769 166.372 262.041 166.084 262.233 165.7C262.436 165.316 262.537 164.841 262.537 164.276V159.956H264.537V168.5H262.633V166.196L262.969 166.9C262.681 167.455 262.26 167.881 261.705 168.18C261.15 168.468 260.542 168.612 259.881 168.612ZM267.428 168.5V159.476C267.428 158.58 267.689 157.865 268.212 157.332C268.745 156.788 269.502 156.516 270.484 156.516C270.836 156.516 271.166 156.553 271.476 156.628C271.796 156.703 272.062 156.82 272.276 156.98L271.732 158.484C271.582 158.367 271.412 158.281 271.22 158.228C271.028 158.164 270.83 158.132 270.628 158.132C270.212 158.132 269.897 158.249 269.684 158.484C269.47 158.708 269.364 159.049 269.364 159.508V160.468L269.428 161.364V168.5H267.428ZM266.02 161.62V160.02H271.716V161.62H266.02ZM278.17 168.5V166.772L278.058 166.404V163.38C278.058 162.793 277.882 162.34 277.53 162.02C277.178 161.689 276.644 161.524 275.93 161.524C275.45 161.524 274.975 161.599 274.506 161.748C274.047 161.897 273.658 162.105 273.338 162.372L272.554 160.916C273.012 160.564 273.556 160.303 274.186 160.132C274.826 159.951 275.487 159.86 276.17 159.86C277.407 159.86 278.362 160.159 279.034 160.756C279.716 161.343 280.058 162.255 280.058 163.492V168.5H278.17ZM275.482 168.612C274.842 168.612 274.282 168.505 273.802 168.292C273.322 168.068 272.948 167.764 272.682 167.38C272.426 166.985 272.298 166.543 272.298 166.052C272.298 165.572 272.41 165.14 272.634 164.756C272.868 164.372 273.247 164.068 273.77 163.844C274.292 163.62 274.986 163.508 275.85 163.508H278.33V164.836H275.994C275.311 164.836 274.852 164.948 274.618 165.172C274.383 165.385 274.266 165.652 274.266 165.972C274.266 166.335 274.41 166.623 274.698 166.836C274.986 167.049 275.386 167.156 275.898 167.156C276.388 167.156 276.826 167.044 277.21 166.82C277.604 166.596 277.887 166.265 278.058 165.828L278.394 167.028C278.202 167.529 277.855 167.919 277.354 168.196C276.863 168.473 276.239 168.612 275.482 168.612ZM286.56 168.612C285.664 168.612 284.864 168.425 284.16 168.052C283.467 167.668 282.923 167.145 282.528 166.484C282.133 165.823 281.936 165.071 281.936 164.228C281.936 163.375 282.133 162.623 282.528 161.972C282.923 161.311 283.467 160.793 284.16 160.42C284.864 160.047 285.664 159.86 286.56 159.86C287.392 159.86 288.123 160.031 288.752 160.372C289.392 160.703 289.877 161.193 290.208 161.844L288.672 162.74C288.416 162.335 288.101 162.036 287.728 161.844C287.365 161.652 286.971 161.556 286.544 161.556C286.053 161.556 285.611 161.663 285.216 161.876C284.821 162.089 284.512 162.399 284.288 162.804C284.064 163.199 283.952 163.673 283.952 164.228C283.952 164.783 284.064 165.263 284.288 165.668C284.512 166.063 284.821 166.367 285.216 166.58C285.611 166.793 286.053 166.9 286.544 166.9C286.971 166.9 287.365 166.804 287.728 166.612C288.101 166.42 288.416 166.121 288.672 165.716L290.208 166.612C289.877 167.252 289.392 167.748 288.752 168.1C288.123 168.441 287.392 168.612 286.56 168.612ZM295.262 168.612C294.324 168.612 293.598 168.372 293.086 167.892C292.574 167.401 292.318 166.681 292.318 165.732V158.068H294.318V165.684C294.318 166.089 294.42 166.404 294.622 166.628C294.836 166.852 295.129 166.964 295.502 166.964C295.95 166.964 296.324 166.847 296.622 166.612L297.182 168.036C296.948 168.228 296.66 168.372 296.318 168.468C295.977 168.564 295.625 168.612 295.262 168.612ZM290.91 161.62V160.02H296.606V161.62H290.91ZM302.444 168.612C301.718 168.612 301.078 168.479 300.524 168.212C299.969 167.935 299.537 167.519 299.228 166.964C298.918 166.399 298.764 165.689 298.764 164.836V159.956H300.764V164.564C300.764 165.332 300.934 165.908 301.276 166.292C301.628 166.665 302.124 166.852 302.764 166.852C303.233 166.852 303.638 166.756 303.98 166.564C304.332 166.372 304.604 166.084 304.796 165.7C304.998 165.316 305.1 164.841 305.1 164.276V159.956H307.1V168.5H305.196V166.196L305.532 166.9C305.244 167.455 304.822 167.881 304.268 168.18C303.713 168.468 303.105 168.612 302.444 168.612ZM309.718 168.5V159.956H311.622V162.308L311.398 161.62C311.654 161.044 312.054 160.607 312.598 160.308C313.153 160.009 313.841 159.86 314.662 159.86V161.764C314.577 161.743 314.497 161.732 314.422 161.732C314.348 161.721 314.273 161.716 314.198 161.716C313.441 161.716 312.838 161.94 312.39 162.388C311.942 162.825 311.718 163.481 311.718 164.356V168.5H309.718ZM320.297 168.612C319.347 168.612 318.515 168.425 317.801 168.052C317.097 167.668 316.547 167.145 316.153 166.484C315.769 165.823 315.577 165.071 315.577 164.228C315.577 163.375 315.763 162.623 316.137 161.972C316.521 161.311 317.043 160.793 317.705 160.42C318.377 160.047 319.139 159.86 319.993 159.86C320.825 159.86 321.566 160.041 322.217 160.404C322.867 160.767 323.379 161.279 323.753 161.94C324.126 162.601 324.313 163.38 324.313 164.276C324.313 164.361 324.307 164.457 324.297 164.564C324.297 164.671 324.291 164.772 324.281 164.868H317.161V163.54H323.225L322.441 163.956C322.451 163.465 322.35 163.033 322.137 162.66C321.923 162.287 321.63 161.993 321.257 161.78C320.894 161.567 320.473 161.46 319.993 161.46C319.502 161.46 319.07 161.567 318.697 161.78C318.334 161.993 318.046 162.292 317.833 162.676C317.63 163.049 317.529 163.492 317.529 164.004V164.324C317.529 164.836 317.646 165.289 317.881 165.684C318.115 166.079 318.446 166.383 318.873 166.596C319.299 166.809 319.79 166.916 320.345 166.916C320.825 166.916 321.257 166.841 321.641 166.692C322.025 166.543 322.366 166.308 322.665 165.988L323.737 167.22C323.353 167.668 322.867 168.015 322.281 168.26C321.705 168.495 321.043 168.612 320.297 168.612ZM326.234 168.5V159.956H328.138V162.308L327.914 161.62C328.17 161.044 328.57 160.607 329.114 160.308C329.669 160.009 330.357 159.86 331.178 159.86V161.764C331.093 161.743 331.013 161.732 330.938 161.732C330.863 161.721 330.789 161.716 330.714 161.716C329.957 161.716 329.354 161.94 328.906 162.388C328.458 162.825 328.234 163.481 328.234 164.356V168.5H326.234ZM335.593 168.612C334.878 168.612 334.19 168.521 333.529 168.34C332.878 168.148 332.361 167.919 331.977 167.652L332.745 166.132C333.129 166.377 333.587 166.58 334.121 166.74C334.654 166.9 335.187 166.98 335.721 166.98C336.35 166.98 336.803 166.895 337.081 166.724C337.369 166.553 337.513 166.324 337.513 166.036C337.513 165.801 337.417 165.625 337.225 165.508C337.033 165.38 336.782 165.284 336.473 165.22C336.163 165.156 335.817 165.097 335.433 165.044C335.059 164.991 334.681 164.921 334.297 164.836C333.923 164.74 333.582 164.607 333.273 164.436C332.963 164.255 332.713 164.015 332.521 163.716C332.329 163.417 332.233 163.023 332.233 162.532C332.233 161.988 332.387 161.519 332.697 161.124C333.006 160.719 333.438 160.409 333.993 160.196C334.558 159.972 335.225 159.86 335.993 159.86C336.569 159.86 337.15 159.924 337.737 160.052C338.323 160.18 338.809 160.361 339.193 160.596L338.425 162.116C338.019 161.871 337.609 161.705 337.193 161.62C336.787 161.524 336.382 161.476 335.977 161.476C335.369 161.476 334.915 161.567 334.617 161.748C334.329 161.929 334.185 162.159 334.185 162.436C334.185 162.692 334.281 162.884 334.473 163.012C334.665 163.14 334.915 163.241 335.225 163.316C335.534 163.391 335.875 163.455 336.249 163.508C336.633 163.551 337.011 163.62 337.385 163.716C337.758 163.812 338.099 163.945 338.409 164.116C338.729 164.276 338.985 164.505 339.177 164.804C339.369 165.103 339.465 165.492 339.465 165.972C339.465 166.505 339.305 166.969 338.985 167.364C338.675 167.759 338.233 168.068 337.657 168.292C337.081 168.505 336.393 168.612 335.593 168.612Z" fill="#609966"/>
<rect x="854" y="155" width="142.253" height="45" rx="22.5" fill="white"/>
<rect x="854.5" y="155.5" width="141.253" height="44" rx="22" stroke="#DBDBDB" stroke-opacity="0.3"/>
<path d="M875.504 183.5V172.3H880.4C881.616 172.3 882.683 172.535 883.6 173.004C884.517 173.473 885.232 174.124 885.744 174.956C886.256 175.788 886.512 176.769 886.512 177.9C886.512 179.02 886.256 180.001 885.744 180.844C885.232 181.676 884.517 182.327 883.6 182.796C882.683 183.265 881.616 183.5 880.4 183.5H875.504ZM877.584 181.74H880.304C881.147 181.74 881.872 181.58 882.48 181.26C883.099 180.94 883.573 180.492 883.904 179.916C884.245 179.34 884.416 178.668 884.416 177.9C884.416 177.121 884.245 176.449 883.904 175.884C883.573 175.308 883.099 174.86 882.48 174.54C881.872 174.22 881.147 174.06 880.304 174.06H877.584V181.74ZM892.547 183.612C891.597 183.612 890.765 183.425 890.051 183.052C889.347 182.668 888.797 182.145 888.403 181.484C888.019 180.823 887.827 180.071 887.827 179.228C887.827 178.375 888.013 177.623 888.387 176.972C888.771 176.311 889.293 175.793 889.955 175.42C890.627 175.047 891.389 174.86 892.243 174.86C893.075 174.86 893.816 175.041 894.467 175.404C895.117 175.767 895.629 176.279 896.003 176.94C896.376 177.601 896.563 178.38 896.563 179.276C896.563 179.361 896.557 179.457 896.547 179.564C896.547 179.671 896.541 179.772 896.531 179.868H889.411V178.54H895.475L894.691 178.956C894.701 178.465 894.6 178.033 894.387 177.66C894.173 177.287 893.88 176.993 893.507 176.78C893.144 176.567 892.723 176.46 892.243 176.46C891.752 176.46 891.32 176.567 890.947 176.78C890.584 176.993 890.296 177.292 890.083 177.676C889.88 178.049 889.779 178.492 889.779 179.004V179.324C889.779 179.836 889.896 180.289 890.131 180.684C890.365 181.079 890.696 181.383 891.123 181.596C891.549 181.809 892.04 181.916 892.595 181.916C893.075 181.916 893.507 181.841 893.891 181.692C894.275 181.543 894.616 181.308 894.915 180.988L895.987 182.22C895.603 182.668 895.117 183.015 894.531 183.26C893.955 183.495 893.293 183.612 892.547 183.612ZM903.514 183.5V181.772L903.402 181.404V178.38C903.402 177.793 903.226 177.34 902.874 177.02C902.522 176.689 901.988 176.524 901.274 176.524C900.794 176.524 900.319 176.599 899.85 176.748C899.391 176.897 899.002 177.105 898.682 177.372L897.898 175.916C898.356 175.564 898.9 175.303 899.53 175.132C900.17 174.951 900.831 174.86 901.514 174.86C902.751 174.86 903.706 175.159 904.378 175.756C905.06 176.343 905.402 177.255 905.402 178.492V183.5H903.514ZM900.826 183.612C900.186 183.612 899.626 183.505 899.146 183.292C898.666 183.068 898.292 182.764 898.026 182.38C897.77 181.985 897.642 181.543 897.642 181.052C897.642 180.572 897.754 180.14 897.978 179.756C898.212 179.372 898.591 179.068 899.114 178.844C899.636 178.62 900.33 178.508 901.194 178.508H903.674V179.836H901.338C900.655 179.836 900.196 179.948 899.962 180.172C899.727 180.385 899.61 180.652 899.61 180.972C899.61 181.335 899.754 181.623 900.042 181.836C900.33 182.049 900.73 182.156 901.242 182.156C901.732 182.156 902.17 182.044 902.554 181.82C902.948 181.596 903.231 181.265 903.402 180.828L903.738 182.028C903.546 182.529 903.199 182.919 902.698 183.196C902.207 183.473 901.583 183.612 900.826 183.612ZM907.968 183.5V171.628H909.968V183.5H907.968ZM916.609 183.612C915.66 183.612 914.828 183.425 914.113 183.052C913.409 182.668 912.86 182.145 912.465 181.484C912.081 180.823 911.889 180.071 911.889 179.228C911.889 178.375 912.076 177.623 912.449 176.972C912.833 176.311 913.356 175.793 914.017 175.42C914.689 175.047 915.452 174.86 916.305 174.86C917.137 174.86 917.879 175.041 918.529 175.404C919.18 175.767 919.692 176.279 920.065 176.94C920.439 177.601 920.625 178.38 920.625 179.276C920.625 179.361 920.62 179.457 920.609 179.564C920.609 179.671 920.604 179.772 920.593 179.868H913.473V178.54H919.537L918.753 178.956C918.764 178.465 918.663 178.033 918.449 177.66C918.236 177.287 917.943 176.993 917.569 176.78C917.207 176.567 916.785 176.46 916.305 176.46C915.815 176.46 915.383 176.567 915.009 176.78C914.647 176.993 914.359 177.292 914.145 177.676C913.943 178.049 913.841 178.492 913.841 179.004V179.324C913.841 179.836 913.959 180.289 914.193 180.684C914.428 181.079 914.759 181.383 915.185 181.596C915.612 181.809 916.103 181.916 916.657 181.916C917.137 181.916 917.569 181.841 917.953 181.692C918.337 181.543 918.679 181.308 918.977 180.988L920.049 182.22C919.665 182.668 919.18 183.015 918.593 183.26C918.017 183.495 917.356 183.612 916.609 183.612ZM922.546 183.5V174.956H924.45V177.308L924.226 176.62C924.482 176.044 924.882 175.607 925.426 175.308C925.981 175.009 926.669 174.86 927.49 174.86V176.764C927.405 176.743 927.325 176.732 927.25 176.732C927.176 176.721 927.101 176.716 927.026 176.716C926.269 176.716 925.666 176.94 925.218 177.388C924.77 177.825 924.546 178.481 924.546 179.356V183.5H922.546ZM931.905 183.612C931.19 183.612 930.502 183.521 929.841 183.34C929.19 183.148 928.673 182.919 928.289 182.652L929.057 181.132C929.441 181.377 929.9 181.58 930.433 181.74C930.966 181.9 931.5 181.98 932.033 181.98C932.662 181.98 933.116 181.895 933.393 181.724C933.681 181.553 933.825 181.324 933.825 181.036C933.825 180.801 933.729 180.625 933.537 180.508C933.345 180.38 933.094 180.284 932.785 180.22C932.476 180.156 932.129 180.097 931.745 180.044C931.372 179.991 930.993 179.921 930.609 179.836C930.236 179.74 929.894 179.607 929.585 179.436C929.276 179.255 929.025 179.015 928.833 178.716C928.641 178.417 928.545 178.023 928.545 177.532C928.545 176.988 928.7 176.519 929.009 176.124C929.318 175.719 929.75 175.409 930.305 175.196C930.87 174.972 931.537 174.86 932.305 174.86C932.881 174.86 933.462 174.924 934.049 175.052C934.636 175.18 935.121 175.361 935.505 175.596L934.737 177.116C934.332 176.871 933.921 176.705 933.505 176.62C933.1 176.524 932.694 176.476 932.289 176.476C931.681 176.476 931.228 176.567 930.929 176.748C930.641 176.929 930.497 177.159 930.497 177.436C930.497 177.692 930.593 177.884 930.785 178.012C930.977 178.14 931.228 178.241 931.537 178.316C931.846 178.391 932.188 178.455 932.561 178.508C932.945 178.551 933.324 178.62 933.697 178.716C934.07 178.812 934.412 178.945 934.721 179.116C935.041 179.276 935.297 179.505 935.489 179.804C935.681 180.103 935.777 180.492 935.777 180.972C935.777 181.505 935.617 181.969 935.297 182.364C934.988 182.759 934.545 183.068 933.969 183.292C933.393 183.505 932.705 183.612 931.905 183.612Z" fill="#EE7214"/>
<mask id="mask2_2288_2423" style="mask-type:alpha" maskUnits="userSpaceOnUse" x="942" y="165" width="25" height="25">
<rect x="942" y="165" width="25" height="25" fill="#D9D9D9"/>
</mask>
<g mask="url(#mask2_2288_2423)">
<path d="M948.094 182.811C948.979 182.134 949.969 181.6 951.062 181.21C952.156 180.819 953.302 180.624 954.5 180.624C955.698 180.624 956.844 180.819 957.937 181.21C959.031 181.6 960.021 182.134 960.906 182.811C961.514 182.099 961.987 181.292 962.326 180.389C962.664 179.487 962.833 178.523 962.833 177.499C962.833 175.19 962.022 173.224 960.398 171.6C958.775 169.977 956.809 169.165 954.5 169.165C952.191 169.165 950.225 169.977 948.602 171.6C946.978 173.224 946.167 175.19 946.167 177.499C946.167 178.523 946.336 179.487 946.674 180.389C947.013 181.292 947.486 182.099 948.094 182.811ZM954.5 178.54C953.476 178.54 952.612 178.189 951.909 177.486C951.206 176.783 950.854 175.919 950.854 174.895C950.854 173.87 951.206 173.007 951.909 172.303C952.612 171.6 953.476 171.249 954.5 171.249C955.524 171.249 956.388 171.6 957.091 172.303C957.794 173.007 958.146 173.87 958.146 174.895C958.146 175.919 957.794 176.783 957.091 177.486C956.388 178.189 955.524 178.54 954.5 178.54ZM954.5 187.915C953.059 187.915 951.705 187.642 950.437 187.095C949.17 186.548 948.068 185.806 947.13 184.868C946.193 183.931 945.451 182.829 944.904 181.561C944.357 180.294 944.083 178.94 944.083 177.499C944.083 176.058 944.357 174.704 944.904 173.436C945.451 172.169 946.193 171.066 947.13 170.129C948.068 169.191 949.17 168.449 950.437 167.902C951.705 167.355 953.059 167.082 954.5 167.082C955.941 167.082 957.295 167.355 958.562 167.902C959.83 168.449 960.932 169.191 961.87 170.129C962.807 171.066 963.549 172.169 964.096 173.436C964.643 174.704 964.917 176.058 964.917 177.499C964.917 178.94 964.643 180.294 964.096 181.561C963.549 182.829 962.807 183.931 961.87 184.868C960.932 185.806 959.83 186.548 958.562 187.095C957.295 187.642 955.941 187.915 954.5 187.915ZM954.5 185.832C955.42 185.832 956.288 185.697 957.104 185.428C957.92 185.159 958.667 184.773 959.344 184.27C958.667 183.766 957.92 183.38 957.104 183.111C956.288 182.842 955.42 182.707 954.5 182.707C953.58 182.707 952.712 182.842 951.896 183.111C951.08 183.38 950.333 183.766 949.656 184.27C950.333 184.773 951.08 185.159 951.896 185.428C952.712 185.697 953.58 185.832 954.5 185.832ZM954.5 176.457C954.951 176.457 955.325 176.309 955.62 176.014C955.915 175.719 956.062 175.346 956.062 174.895C956.062 174.443 955.915 174.07 955.62 173.775C955.325 173.48 954.951 173.332 954.5 173.332C954.049 173.332 953.675 173.48 953.38 173.775C953.085 174.07 952.937 174.443 952.937 174.895C952.937 175.346 953.085 175.719 953.38 176.014C953.675 176.309 954.049 176.457 954.5 176.457Z" fill="#EE7214"/>
</g>
<rect x="1064.14" y="59" width="173.862" height="45" rx="22.5" fill="white"/>
<rect x="1064.64" y="59.5" width="172.862" height="44" rx="22" stroke="#BFC8E2" stroke-opacity="0.3"/>
<path d="M1090.83 87.66C1089.97 87.66 1089.18 87.5213 1088.44 87.244C1087.72 86.956 1087.08 86.556 1086.54 86.044C1086.01 85.5213 1085.59 84.908 1085.29 84.204C1084.99 83.5 1084.84 82.732 1084.84 81.9C1084.84 81.068 1084.99 80.3 1085.29 79.596C1085.59 78.892 1086.01 78.284 1086.55 77.772C1087.1 77.2493 1087.73 76.8493 1088.46 76.572C1089.18 76.284 1089.98 76.14 1090.84 76.14C1091.76 76.14 1092.6 76.3 1093.35 76.62C1094.11 76.9293 1094.75 77.3933 1095.27 78.012L1093.93 79.276C1093.53 78.8387 1093.07 78.5133 1092.57 78.3C1092.07 78.076 1091.53 77.964 1090.94 77.964C1090.35 77.964 1089.81 78.06 1089.32 78.252C1088.84 78.444 1088.42 78.716 1088.06 79.068C1087.71 79.42 1087.43 79.836 1087.23 80.316C1087.03 80.796 1086.94 81.324 1086.94 81.9C1086.94 82.476 1087.03 83.004 1087.23 83.484C1087.43 83.964 1087.71 84.38 1088.06 84.732C1088.42 85.084 1088.84 85.356 1089.32 85.548C1089.81 85.74 1090.35 85.836 1090.94 85.836C1091.53 85.836 1092.07 85.7293 1092.57 85.516C1093.07 85.292 1093.53 84.956 1093.93 84.508L1095.27 85.788C1094.75 86.396 1094.11 86.86 1093.35 87.18C1092.6 87.5 1091.75 87.66 1090.83 87.66ZM1100.46 87.612C1099.73 87.612 1099.09 87.4787 1098.54 87.212C1097.98 86.9347 1097.55 86.5187 1097.24 85.964C1096.93 85.3987 1096.78 84.6893 1096.78 83.836V78.956H1098.78V83.564C1098.78 84.332 1098.95 84.908 1099.29 85.292C1099.64 85.6653 1100.14 85.852 1100.78 85.852C1101.25 85.852 1101.65 85.756 1101.99 85.564C1102.35 85.372 1102.62 85.084 1102.81 84.7C1103.01 84.316 1103.11 83.8413 1103.11 83.276V78.956H1105.11V87.5H1103.21V85.196L1103.55 85.9C1103.26 86.4547 1102.84 86.8813 1102.28 87.18C1101.73 87.468 1101.12 87.612 1100.46 87.612ZM1110.37 87.612C1109.66 87.612 1108.97 87.5213 1108.31 87.34C1107.66 87.148 1107.14 86.9187 1106.76 86.652L1107.52 85.132C1107.91 85.3773 1108.37 85.58 1108.9 85.74C1109.43 85.9 1109.97 85.98 1110.5 85.98C1111.13 85.98 1111.58 85.8947 1111.86 85.724C1112.15 85.5533 1112.29 85.324 1112.29 85.036C1112.29 84.8013 1112.2 84.6253 1112 84.508C1111.81 84.38 1111.56 84.284 1111.25 84.22C1110.94 84.156 1110.6 84.0973 1110.21 84.044C1109.84 83.9907 1109.46 83.9213 1109.08 83.836C1108.7 83.74 1108.36 83.6067 1108.05 83.436C1107.74 83.2547 1107.49 83.0147 1107.3 82.716C1107.11 82.4173 1107.01 82.0227 1107.01 81.532C1107.01 80.988 1107.17 80.5187 1107.48 80.124C1107.79 79.7187 1108.22 79.4093 1108.77 79.196C1109.34 78.972 1110 78.86 1110.77 78.86C1111.35 78.86 1111.93 78.924 1112.52 79.052C1113.1 79.18 1113.59 79.3613 1113.97 79.596L1113.2 81.116C1112.8 80.8707 1112.39 80.7053 1111.97 80.62C1111.57 80.524 1111.16 80.476 1110.76 80.476C1110.15 80.476 1109.69 80.5667 1109.4 80.748C1109.11 80.9293 1108.96 81.1587 1108.96 81.436C1108.96 81.692 1109.06 81.884 1109.25 82.012C1109.44 82.14 1109.69 82.2413 1110 82.316C1110.31 82.3907 1110.65 82.4547 1111.03 82.508C1111.41 82.5507 1111.79 82.62 1112.16 82.716C1112.54 82.812 1112.88 82.9453 1113.19 83.116C1113.51 83.276 1113.76 83.5053 1113.96 83.804C1114.15 84.1027 1114.24 84.492 1114.24 84.972C1114.24 85.5053 1114.08 85.9693 1113.76 86.364C1113.45 86.7587 1113.01 87.068 1112.44 87.292C1111.86 87.5053 1111.17 87.612 1110.37 87.612ZM1119.18 87.612C1118.24 87.612 1117.52 87.372 1117.01 86.892C1116.49 86.4013 1116.24 85.6813 1116.24 84.732V77.068H1118.24V84.684C1118.24 85.0893 1118.34 85.404 1118.54 85.628C1118.76 85.852 1119.05 85.964 1119.42 85.964C1119.87 85.964 1120.24 85.8467 1120.54 85.612L1121.1 87.036C1120.87 87.228 1120.58 87.372 1120.24 87.468C1119.9 87.564 1119.54 87.612 1119.18 87.612ZM1114.83 80.62V79.02H1120.53V80.62H1114.83ZM1126.31 87.612C1125.43 87.612 1124.65 87.4253 1123.97 87.052C1123.29 86.668 1122.75 86.1453 1122.35 85.484C1121.96 84.8227 1121.76 84.0707 1121.76 83.228C1121.76 82.3747 1121.96 81.6227 1122.35 80.972C1122.75 80.3107 1123.29 79.7933 1123.97 79.42C1124.65 79.0467 1125.43 78.86 1126.31 78.86C1127.19 78.86 1127.98 79.0467 1128.66 79.42C1129.35 79.7933 1129.89 80.3053 1130.27 80.956C1130.67 81.6067 1130.87 82.364 1130.87 83.228C1130.87 84.0707 1130.67 84.8227 1130.27 85.484C1129.89 86.1453 1129.35 86.668 1128.66 87.052C1127.98 87.4253 1127.19 87.612 1126.31 87.612ZM1126.31 85.9C1126.8 85.9 1127.23 85.7933 1127.62 85.58C1128 85.3667 1128.3 85.0573 1128.51 84.652C1128.74 84.2467 1128.85 83.772 1128.85 83.228C1128.85 82.6733 1128.74 82.1987 1128.51 81.804C1128.3 81.3987 1128 81.0893 1127.62 80.876C1127.23 80.6627 1126.8 80.556 1126.32 80.556C1125.83 80.556 1125.39 80.6627 1125.01 80.876C1124.64 81.0893 1124.34 81.3987 1124.11 81.804C1123.89 82.1987 1123.78 82.6733 1123.78 83.228C1123.78 83.772 1123.89 84.2467 1124.11 84.652C1124.34 85.0573 1124.64 85.3667 1125.01 85.58C1125.39 85.7933 1125.83 85.9 1126.31 85.9ZM1143.56 78.86C1144.25 78.86 1144.85 78.9933 1145.37 79.26C1145.9 79.5267 1146.32 79.9373 1146.62 80.492C1146.92 81.036 1147.07 81.74 1147.07 82.604V87.5H1145.07V82.86C1145.07 82.1027 1144.9 81.5373 1144.57 81.164C1144.24 80.7907 1143.77 80.604 1143.15 80.604C1142.71 80.604 1142.32 80.7 1141.98 80.892C1141.65 81.084 1141.39 81.3667 1141.19 81.74C1141.01 82.1133 1140.92 82.588 1140.92 83.164V87.5H1138.92V82.86C1138.92 82.1027 1138.76 81.5373 1138.43 81.164C1138.1 80.7907 1137.62 80.604 1137 80.604C1136.57 80.604 1136.18 80.7 1135.83 80.892C1135.5 81.084 1135.24 81.3667 1135.05 81.74C1134.87 82.1133 1134.78 82.588 1134.78 83.164V87.5H1132.78V78.956H1134.68V81.228L1134.35 80.556C1134.63 80.0013 1135.05 79.58 1135.59 79.292C1136.15 79.004 1136.78 78.86 1137.48 78.86C1138.28 78.86 1138.98 79.0573 1139.56 79.452C1140.16 79.8467 1140.55 80.444 1140.75 81.244L1139.96 80.972C1140.24 80.332 1140.7 79.82 1141.34 79.436C1141.98 79.052 1142.72 78.86 1143.56 78.86ZM1153.65 87.612C1152.7 87.612 1151.87 87.4253 1151.16 87.052C1150.45 86.668 1149.9 86.1453 1149.51 85.484C1149.13 84.8227 1148.93 84.0707 1148.93 83.228C1148.93 82.3747 1149.12 81.6227 1149.49 80.972C1149.88 80.3107 1150.4 79.7933 1151.06 79.42C1151.73 79.0467 1152.5 78.86 1153.35 78.86C1154.18 78.86 1154.92 79.0413 1155.57 79.404C1156.22 79.7667 1156.74 80.2787 1157.11 80.94C1157.48 81.6013 1157.67 82.38 1157.67 83.276C1157.67 83.3613 1157.66 83.4573 1157.65 83.564C1157.65 83.6707 1157.65 83.772 1157.64 83.868H1150.52V82.54H1156.58L1155.8 82.956C1155.81 82.4653 1155.71 82.0333 1155.49 81.66C1155.28 81.2867 1154.99 80.9933 1154.61 80.78C1154.25 80.5667 1153.83 80.46 1153.35 80.46C1152.86 80.46 1152.43 80.5667 1152.05 80.78C1151.69 80.9933 1151.4 81.292 1151.19 81.676C1150.99 82.0493 1150.89 82.492 1150.89 83.004V83.324C1150.89 83.836 1151 84.2893 1151.24 84.684C1151.47 85.0787 1151.8 85.3827 1152.23 85.596C1152.66 85.8093 1153.15 85.916 1153.7 85.916C1154.18 85.916 1154.61 85.8413 1155 85.692C1155.38 85.5427 1155.72 85.308 1156.02 84.988L1157.09 86.22C1156.71 86.668 1156.22 87.0147 1155.64 87.26C1155.06 87.4947 1154.4 87.612 1153.65 87.612ZM1159.59 87.5V78.956H1161.5V81.308L1161.27 80.62C1161.53 80.044 1161.93 79.6067 1162.47 79.308C1163.03 79.0093 1163.71 78.86 1164.54 78.86V80.764C1164.45 80.7427 1164.37 80.732 1164.3 80.732C1164.22 80.7213 1164.15 80.716 1164.07 80.716C1163.31 80.716 1162.71 80.94 1162.26 81.388C1161.82 81.8253 1161.59 82.4813 1161.59 83.356V87.5H1159.59ZM1168.95 87.612C1168.24 87.612 1167.55 87.5213 1166.89 87.34C1166.24 87.148 1165.72 86.9187 1165.33 86.652L1166.1 85.132C1166.49 85.3773 1166.94 85.58 1167.48 85.74C1168.01 85.9 1168.54 85.98 1169.08 85.98C1169.71 85.98 1170.16 85.8947 1170.44 85.724C1170.73 85.5533 1170.87 85.324 1170.87 85.036C1170.87 84.8013 1170.77 84.6253 1170.58 84.508C1170.39 84.38 1170.14 84.284 1169.83 84.22C1169.52 84.156 1169.17 84.0973 1168.79 84.044C1168.42 83.9907 1168.04 83.9213 1167.65 83.836C1167.28 83.74 1166.94 83.6067 1166.63 83.436C1166.32 83.2547 1166.07 83.0147 1165.88 82.716C1165.69 82.4173 1165.59 82.0227 1165.59 81.532C1165.59 80.988 1165.74 80.5187 1166.05 80.124C1166.36 79.7187 1166.8 79.4093 1167.35 79.196C1167.92 78.972 1168.58 78.86 1169.35 78.86C1169.93 78.86 1170.51 78.924 1171.09 79.052C1171.68 79.18 1172.17 79.3613 1172.55 79.596L1171.78 81.116C1171.38 80.8707 1170.97 80.7053 1170.55 80.62C1170.14 80.524 1169.74 80.476 1169.33 80.476C1168.73 80.476 1168.27 80.5667 1167.97 80.748C1167.69 80.9293 1167.54 81.1587 1167.54 81.436C1167.54 81.692 1167.64 81.884 1167.83 82.012C1168.02 82.14 1168.27 82.2413 1168.58 82.316C1168.89 82.3907 1169.23 82.4547 1169.61 82.508C1169.99 82.5507 1170.37 82.62 1170.74 82.716C1171.12 82.812 1171.46 82.9453 1171.77 83.116C1172.09 83.276 1172.34 83.5053 1172.53 83.804C1172.73 84.1027 1172.82 84.492 1172.82 84.972C1172.82 85.5053 1172.66 85.9693 1172.34 86.364C1172.03 86.7587 1171.59 87.068 1171.01 87.292C1170.44 87.5053 1169.75 87.612 1168.95 87.612Z" fill="#068DA9"/>
<mask id="mask3_2288_2423" style="mask-type:alpha" maskUnits="userSpaceOnUse" x="1179" y="69" width="26" height="25">
<rect x="1179.14" y="69" width="25" height="25" fill="#D9D9D9"/>
</mask>
<g mask="url(#mask3_2288_2423)">
<path d="M1196.85 84.6263C1196.12 84.6263 1195.5 84.3746 1195 83.8711C1194.49 83.3676 1194.24 82.7513 1194.24 82.0221C1194.24 81.293 1194.49 80.6766 1195 80.1732C1195.5 79.6697 1196.12 79.418 1196.85 79.418C1197.58 79.418 1198.19 79.6697 1198.7 80.1732C1199.2 80.6766 1199.45 81.293 1199.45 82.0221C1199.45 82.7513 1199.2 83.3676 1198.7 83.8711C1198.19 84.3746 1197.58 84.6263 1196.85 84.6263ZM1191.64 89.8346V88.3763C1191.64 87.9596 1191.75 87.5733 1191.96 87.2174C1192.18 86.8615 1192.49 86.6055 1192.89 86.4492C1193.51 86.1888 1194.16 85.9935 1194.83 85.8633C1195.5 85.7331 1196.17 85.668 1196.85 85.668C1197.52 85.668 1198.2 85.7331 1198.87 85.8633C1199.53 85.9935 1200.18 86.1888 1200.81 86.4492C1201.2 86.6055 1201.51 86.8615 1201.73 87.2174C1201.95 87.5733 1202.06 87.9596 1202.06 88.3763V89.8346H1191.64ZM1189.56 81.5013C1188.41 81.5013 1187.43 81.0933 1186.61 80.2773C1185.8 79.4614 1185.39 78.4805 1185.39 77.3346C1185.39 76.1888 1185.8 75.2079 1186.61 74.3919C1187.43 73.576 1188.41 73.168 1189.56 73.168C1190.7 73.168 1191.68 73.576 1192.5 74.3919C1193.31 75.2079 1193.72 76.1888 1193.72 77.3346C1193.72 78.4805 1193.31 79.4614 1192.5 80.2773C1191.68 81.0933 1190.7 81.5013 1189.56 81.5013ZM1181.22 89.8346V86.918C1181.22 86.3277 1181.37 85.7852 1181.66 85.2904C1181.96 84.7956 1182.37 84.418 1182.89 84.1576C1183.93 83.6367 1185.01 83.2374 1186.13 82.9596C1187.25 82.6819 1188.39 82.543 1189.56 82.543C1190.16 82.543 1190.77 82.5951 1191.38 82.6992C1191.99 82.8034 1192.59 82.9249 1193.2 83.0638L1191.43 84.8346C1191.12 84.7478 1190.81 84.6914 1190.49 84.6654C1190.18 84.6393 1189.87 84.6263 1189.56 84.6263C1188.55 84.6263 1187.56 84.7478 1186.6 84.9909C1185.64 85.2339 1184.71 85.5812 1183.83 86.0326C1183.65 86.1194 1183.52 86.2409 1183.44 86.3971C1183.35 86.5534 1183.31 86.727 1183.31 86.918V87.7513H1189.56V89.8346H1181.22ZM1189.56 79.418C1190.13 79.418 1190.62 79.214 1191.03 78.806C1191.43 78.398 1191.64 77.9076 1191.64 77.3346C1191.64 76.7617 1191.43 76.2713 1191.03 75.8633C1190.62 75.4553 1190.13 75.2513 1189.56 75.2513C1188.98 75.2513 1188.49 75.4553 1188.08 75.8633C1187.68 76.2713 1187.47 76.7617 1187.47 77.3346C1187.47 77.9076 1187.68 78.398 1188.08 78.806C1188.49 79.214 1188.98 79.418 1189.56 79.418Z" fill="#068DA9"/>
</g>
<g filter="url(#filter0_d_2288_2423)">
<rect x="400.051" y="29" width="384.05" height="273" rx="20" fill="white"/>
<rect x="400.551" y="29.5" width="383.05" height="272" rx="19.5" stroke="url(#paint4_linear_2288_2423)"/>
</g>
<path d="M405 49C405 40.7157 411.716 34 420 34H764.048C772.333 34 779.048 40.7157 779.048 49V150C779.048 152.761 776.81 155 774.048 155H410C407.239 155 405 152.761 405 150V49Z" fill="#FFFBF7"/>
<path d="M485 80H502.741C513.27 80.0829 518.535 87.2914 518.535 94.5C518.535 101.709 513.27 108.917 502.741 109H485V80ZM492.477 85.8V103.159H502.52C508.05 103.159 510.793 98.8086 510.793 94.5C510.793 90.15 508.05 85.8 502.52 85.8H492.477Z" fill="black"/>
<path d="M531.75 103.159H552.189V109H524.273V80H551.879V85.8414H531.75V91.6H548.915V97.4H531.75V103.159Z" fill="black"/>
<path d="M565.06 103.159H584.88V109H557.583V80H565.06V103.159Z" fill="black"/>
<path d="M589.814 109V80H608.484C615.297 80 618.659 84.5157 618.659 89.0729C618.659 92.5943 616.58 96.1571 612.421 97.5243L621.977 109H612.598L604.414 98.1043H597.291V109H589.814ZM597.291 85.8414V92.3043H606.67C609.501 92.3043 610.917 90.6886 610.917 89.0729C610.917 87.4571 609.501 85.8414 606.67 85.8414H597.291Z" fill="black"/>
<path d="M667.234 109H657.634L633.832 80H642.68L649.98 88.6171L657.28 80H666.084L654.581 94.0443L667.234 109ZM646.795 103.324L642.326 109H632.726L642.105 97.8557L646.795 103.324Z" fill="#FF5D25"/>
<path d="M671.703 109V80H679.18V109H671.703ZM685.064 103.159H699V109H685.064V103.159Z" fill="#FF5D25"/>
<path d="M477.588 201V191.2H481.578C482.623 191.2 483.538 191.41 484.322 191.83C485.115 192.241 485.731 192.815 486.17 193.552C486.608 194.289 486.828 195.139 486.828 196.1C486.828 197.061 486.608 197.911 486.17 198.648C485.731 199.385 485.115 199.964 484.322 200.384C483.538 200.795 482.623 201 481.578 201H477.588ZM478.624 200.104H481.522C482.39 200.104 483.141 199.936 483.776 199.6C484.42 199.255 484.919 198.783 485.274 198.186C485.628 197.579 485.806 196.884 485.806 196.1C485.806 195.307 485.628 194.611 485.274 194.014C484.919 193.417 484.42 192.95 483.776 192.614C483.141 192.269 482.39 192.096 481.522 192.096H478.624V200.104ZM492.066 201.07C491.301 201.07 490.629 200.911 490.05 200.594C489.471 200.267 489.019 199.824 488.692 199.264C488.365 198.695 488.202 198.046 488.202 197.318C488.202 196.59 488.356 195.946 488.664 195.386C488.981 194.826 489.411 194.387 489.952 194.07C490.503 193.743 491.119 193.58 491.8 193.58C492.491 193.58 493.102 193.739 493.634 194.056C494.176 194.364 494.6 194.803 494.908 195.372C495.216 195.932 495.37 196.581 495.37 197.318C495.37 197.365 495.366 197.416 495.356 197.472C495.356 197.519 495.356 197.57 495.356 197.626H488.958V196.884H494.824L494.432 197.178C494.432 196.646 494.316 196.175 494.082 195.764C493.858 195.344 493.55 195.017 493.158 194.784C492.766 194.551 492.313 194.434 491.8 194.434C491.296 194.434 490.844 194.551 490.442 194.784C490.041 195.017 489.728 195.344 489.504 195.764C489.28 196.184 489.168 196.665 489.168 197.206V197.36C489.168 197.92 489.289 198.415 489.532 198.844C489.784 199.264 490.129 199.595 490.568 199.838C491.016 200.071 491.525 200.188 492.094 200.188C492.542 200.188 492.958 200.109 493.34 199.95C493.732 199.791 494.068 199.549 494.348 199.222L494.908 199.866C494.582 200.258 494.171 200.557 493.676 200.762C493.191 200.967 492.654 201.07 492.066 201.07ZM497.393 201V190.612H498.387V201H497.393ZM501.153 201V193.65H502.105V195.652L502.007 195.302C502.212 194.742 502.558 194.317 503.043 194.028C503.528 193.729 504.13 193.58 504.849 193.58V194.546C504.812 194.546 504.774 194.546 504.737 194.546C504.7 194.537 504.662 194.532 504.625 194.532C503.85 194.532 503.244 194.77 502.805 195.246C502.366 195.713 502.147 196.38 502.147 197.248V201H501.153ZM505.023 201L509.041 195.568V196.366L505.261 191.2H506.451L509.629 195.512L509.167 195.526L512.345 191.2H513.465L509.727 196.296V195.568L513.731 201H512.527L509.139 196.394H509.573L506.213 201H505.023ZM515.226 201V191.2H516.262V200.104H521.75V201H515.226ZM530.047 201.07C529.281 201.07 528.609 200.911 528.031 200.594C527.452 200.267 526.999 199.824 526.673 199.264C526.346 198.695 526.183 198.046 526.183 197.318C526.183 196.59 526.337 195.946 526.645 195.386C526.962 194.826 527.391 194.387 527.933 194.07C528.483 193.743 529.099 193.58 529.781 193.58C530.471 193.58 531.083 193.739 531.615 194.056C532.156 194.364 532.581 194.803 532.889 195.372C533.197 195.932 533.351 196.581 533.351 197.318C533.351 197.365 533.346 197.416 533.337 197.472C533.337 197.519 533.337 197.57 533.337 197.626H526.939V196.884H532.805L532.413 197.178C532.413 196.646 532.296 196.175 532.063 195.764C531.839 195.344 531.531 195.017 531.139 194.784C530.747 194.551 530.294 194.434 529.781 194.434C529.277 194.434 528.824 194.551 528.423 194.784C528.021 195.017 527.709 195.344 527.485 195.764C527.261 196.184 527.149 196.665 527.149 197.206V197.36C527.149 197.92 527.27 198.415 527.513 198.844C527.765 199.264 528.11 199.595 528.549 199.838C528.997 200.071 529.505 200.188 530.075 200.188C530.523 200.188 530.938 200.109 531.321 199.95C531.713 199.791 532.049 199.549 532.329 199.222L532.889 199.866C532.562 200.258 532.151 200.557 531.657 200.762C531.171 200.967 530.635 201.07 530.047 201.07ZM539.126 193.58C539.723 193.58 540.246 193.697 540.694 193.93C541.151 194.154 541.506 194.499 541.758 194.966C542.019 195.433 542.15 196.021 542.15 196.73V201H541.156V196.828C541.156 196.053 540.96 195.47 540.568 195.078C540.185 194.677 539.644 194.476 538.944 194.476C538.421 194.476 537.964 194.583 537.572 194.798C537.189 195.003 536.891 195.307 536.676 195.708C536.471 196.1 536.368 196.576 536.368 197.136V201H535.374V193.65H536.326V195.666L536.172 195.288C536.405 194.756 536.779 194.341 537.292 194.042C537.805 193.734 538.417 193.58 539.126 193.58ZM546.809 201.07C546.202 201.07 545.628 200.986 545.087 200.818C544.545 200.641 544.121 200.421 543.813 200.16L544.261 199.376C544.559 199.6 544.942 199.796 545.409 199.964C545.875 200.123 546.365 200.202 546.879 200.202C547.579 200.202 548.083 200.095 548.391 199.88C548.699 199.656 548.853 199.362 548.853 198.998C548.853 198.727 548.764 198.517 548.587 198.368C548.419 198.209 548.195 198.093 547.915 198.018C547.635 197.934 547.322 197.864 546.977 197.808C546.631 197.752 546.286 197.687 545.941 197.612C545.605 197.537 545.297 197.43 545.017 197.29C544.737 197.141 544.508 196.94 544.331 196.688C544.163 196.436 544.079 196.1 544.079 195.68C544.079 195.279 544.191 194.919 544.415 194.602C544.639 194.285 544.965 194.037 545.395 193.86C545.833 193.673 546.365 193.58 546.991 193.58C547.467 193.58 547.943 193.645 548.419 193.776C548.895 193.897 549.287 194.061 549.595 194.266L549.161 195.064C548.834 194.84 548.484 194.681 548.111 194.588C547.737 194.485 547.364 194.434 546.991 194.434C546.328 194.434 545.838 194.551 545.521 194.784C545.213 195.008 545.059 195.297 545.059 195.652C545.059 195.932 545.143 196.151 545.311 196.31C545.488 196.469 545.717 196.595 545.997 196.688C546.286 196.772 546.599 196.842 546.935 196.898C547.28 196.954 547.621 197.024 547.957 197.108C548.302 197.183 548.615 197.29 548.895 197.43C549.184 197.561 549.413 197.752 549.581 198.004C549.758 198.247 549.847 198.569 549.847 198.97C549.847 199.399 549.725 199.773 549.483 200.09C549.249 200.398 548.904 200.641 548.447 200.818C547.999 200.986 547.453 201.07 546.809 201.07ZM554.709 201.07C554.083 201.07 553.537 200.953 553.071 200.72C552.604 200.487 552.24 200.137 551.979 199.67C551.727 199.203 551.601 198.62 551.601 197.92V193.65H552.595V197.808C552.595 198.592 552.786 199.185 553.169 199.586C553.561 199.978 554.107 200.174 554.807 200.174C555.32 200.174 555.763 200.071 556.137 199.866C556.519 199.651 556.809 199.343 557.005 198.942C557.21 198.541 557.313 198.06 557.313 197.5V193.65H558.307V201H557.355V198.984L557.509 199.348C557.275 199.889 556.911 200.314 556.417 200.622C555.931 200.921 555.362 201.07 554.709 201.07ZM561.077 201V193.65H562.029V195.652L561.931 195.302C562.136 194.742 562.482 194.317 562.967 194.028C563.452 193.729 564.054 193.58 564.773 193.58V194.546C564.736 194.546 564.698 194.546 564.661 194.546C564.624 194.537 564.586 194.532 564.549 194.532C563.774 194.532 563.168 194.77 562.729 195.246C562.29 195.713 562.071 196.38 562.071 197.248V201H561.077ZM569.64 201.07C568.875 201.07 568.203 200.911 567.624 200.594C567.046 200.267 566.593 199.824 566.266 199.264C565.94 198.695 565.776 198.046 565.776 197.318C565.776 196.59 565.93 195.946 566.238 195.386C566.556 194.826 566.985 194.387 567.526 194.07C568.077 193.743 568.693 193.58 569.374 193.58C570.065 193.58 570.676 193.739 571.208 194.056C571.75 194.364 572.174 194.803 572.482 195.372C572.79 195.932 572.944 196.581 572.944 197.318C572.944 197.365 572.94 197.416 572.93 197.472C572.93 197.519 572.93 197.57 572.93 197.626H566.532V196.884H572.398L572.006 197.178C572.006 196.646 571.89 196.175 571.656 195.764C571.432 195.344 571.124 195.017 570.732 194.784C570.34 194.551 569.888 194.434 569.374 194.434C568.87 194.434 568.418 194.551 568.016 194.784C567.615 195.017 567.302 195.344 567.078 195.764C566.854 196.184 566.742 196.665 566.742 197.206V197.36C566.742 197.92 566.864 198.415 567.106 198.844C567.358 199.264 567.704 199.595 568.142 199.838C568.59 200.071 569.099 200.188 569.668 200.188C570.116 200.188 570.532 200.109 570.914 199.95C571.306 199.791 571.642 199.549 571.922 199.222L572.482 199.866C572.156 200.258 571.745 200.557 571.25 200.762C570.765 200.967 570.228 201.07 569.64 201.07ZM576.942 201.07C576.335 201.07 575.761 200.986 575.22 200.818C574.678 200.641 574.254 200.421 573.946 200.16L574.394 199.376C574.692 199.6 575.075 199.796 575.542 199.964C576.008 200.123 576.498 200.202 577.012 200.202C577.712 200.202 578.216 200.095 578.524 199.88C578.832 199.656 578.986 199.362 578.986 198.998C578.986 198.727 578.897 198.517 578.72 198.368C578.552 198.209 578.328 198.093 578.048 198.018C577.768 197.934 577.455 197.864 577.11 197.808C576.764 197.752 576.419 197.687 576.074 197.612C575.738 197.537 575.43 197.43 575.15 197.29C574.87 197.141 574.641 196.94 574.464 196.688C574.296 196.436 574.212 196.1 574.212 195.68C574.212 195.279 574.324 194.919 574.548 194.602C574.772 194.285 575.098 194.037 575.528 193.86C575.966 193.673 576.498 193.58 577.124 193.58C577.6 193.58 578.076 193.645 578.552 193.776C579.028 193.897 579.42 194.061 579.728 194.266L579.294 195.064C578.967 194.84 578.617 194.681 578.244 194.588C577.87 194.485 577.497 194.434 577.124 194.434C576.461 194.434 575.971 194.551 575.654 194.784C575.346 195.008 575.192 195.297 575.192 195.652C575.192 195.932 575.276 196.151 575.444 196.31C575.621 196.469 575.85 196.595 576.13 196.688C576.419 196.772 576.732 196.842 577.068 196.898C577.413 196.954 577.754 197.024 578.09 197.108C578.435 197.183 578.748 197.29 579.028 197.43C579.317 197.561 579.546 197.752 579.714 198.004C579.891 198.247 579.98 198.569 579.98 198.97C579.98 199.399 579.858 199.773 579.616 200.09C579.382 200.398 579.037 200.641 578.58 200.818C578.132 200.986 577.586 201.07 576.942 201.07ZM587.442 201.07C586.835 201.07 586.261 200.986 585.72 200.818C585.178 200.641 584.754 200.421 584.446 200.16L584.894 199.376C585.192 199.6 585.575 199.796 586.042 199.964C586.508 200.123 586.998 200.202 587.512 200.202C588.212 200.202 588.716 200.095 589.024 199.88C589.332 199.656 589.486 199.362 589.486 198.998C589.486 198.727 589.397 198.517 589.22 198.368C589.052 198.209 588.828 198.093 588.548 198.018C588.268 197.934 587.955 197.864 587.61 197.808C587.264 197.752 586.919 197.687 586.574 197.612C586.238 197.537 585.93 197.43 585.65 197.29C585.37 197.141 585.141 196.94 584.964 196.688C584.796 196.436 584.712 196.1 584.712 195.68C584.712 195.279 584.824 194.919 585.048 194.602C585.272 194.285 585.598 194.037 586.028 193.86C586.466 193.673 586.998 193.58 587.624 193.58C588.1 193.58 588.576 193.645 589.052 193.776C589.528 193.897 589.92 194.061 590.228 194.266L589.794 195.064C589.467 194.84 589.117 194.681 588.744 194.588C588.37 194.485 587.997 194.434 587.624 194.434C586.961 194.434 586.471 194.551 586.154 194.784C585.846 195.008 585.692 195.297 585.692 195.652C585.692 195.932 585.776 196.151 585.944 196.31C586.121 196.469 586.35 196.595 586.63 196.688C586.919 196.772 587.232 196.842 587.568 196.898C587.913 196.954 588.254 197.024 588.59 197.108C588.935 197.183 589.248 197.29 589.528 197.43C589.817 197.561 590.046 197.752 590.214 198.004C590.391 198.247 590.48 198.569 590.48 198.97C590.48 199.399 590.358 199.773 590.116 200.09C589.882 200.398 589.537 200.641 589.08 200.818C588.632 200.986 588.086 201.07 587.442 201.07ZM595.342 201.07C594.716 201.07 594.17 200.953 593.704 200.72C593.237 200.487 592.873 200.137 592.612 199.67C592.36 199.203 592.234 198.62 592.234 197.92V193.65H593.228V197.808C593.228 198.592 593.419 199.185 593.802 199.586C594.194 199.978 594.74 200.174 595.44 200.174C595.953 200.174 596.396 200.071 596.77 199.866C597.152 199.651 597.442 199.343 597.638 198.942C597.843 198.541 597.946 198.06 597.946 197.5V193.65H598.94V201H597.988V198.984L598.142 199.348C597.908 199.889 597.544 200.314 597.05 200.622C596.564 200.921 595.995 201.07 595.342 201.07ZM605.504 201.07C604.869 201.07 604.295 200.925 603.782 200.636C603.268 200.337 602.858 199.913 602.55 199.362C602.251 198.802 602.102 198.121 602.102 197.318C602.102 196.515 602.251 195.839 602.55 195.288C602.848 194.728 603.254 194.303 603.768 194.014C604.281 193.725 604.86 193.58 605.504 193.58C606.204 193.58 606.829 193.739 607.38 194.056C607.94 194.364 608.378 194.803 608.696 195.372C609.013 195.932 609.172 196.581 609.172 197.318C609.172 198.065 609.013 198.718 608.696 199.278C608.378 199.838 607.94 200.277 607.38 200.594C606.829 200.911 606.204 201.07 605.504 201.07ZM601.71 203.716V193.65H602.662V195.862L602.564 197.332L602.704 198.816V203.716H601.71ZM605.434 200.188C605.956 200.188 606.423 200.071 606.834 199.838C607.244 199.595 607.571 199.259 607.814 198.83C608.056 198.391 608.178 197.887 608.178 197.318C608.178 196.749 608.056 196.249 607.814 195.82C607.571 195.391 607.244 195.055 606.834 194.812C606.423 194.569 605.956 194.448 605.434 194.448C604.911 194.448 604.44 194.569 604.02 194.812C603.609 195.055 603.282 195.391 603.04 195.82C602.806 196.249 602.69 196.749 602.69 197.318C602.69 197.887 602.806 198.391 603.04 198.83C603.282 199.259 603.609 199.595 604.02 199.838C604.44 200.071 604.911 200.188 605.434 200.188ZM614.992 201.07C614.357 201.07 613.783 200.925 613.27 200.636C612.757 200.337 612.346 199.913 612.038 199.362C611.739 198.802 611.59 198.121 611.59 197.318C611.59 196.515 611.739 195.839 612.038 195.288C612.337 194.728 612.743 194.303 613.256 194.014C613.769 193.725 614.348 193.58 614.992 193.58C615.692 193.58 616.317 193.739 616.868 194.056C617.428 194.364 617.867 194.803 618.184 195.372C618.501 195.932 618.66 196.581 618.66 197.318C618.66 198.065 618.501 198.718 618.184 199.278C617.867 199.838 617.428 200.277 616.868 200.594C616.317 200.911 615.692 201.07 614.992 201.07ZM611.198 203.716V193.65H612.15V195.862L612.052 197.332L612.192 198.816V203.716H611.198ZM614.922 200.188C615.445 200.188 615.911 200.071 616.322 199.838C616.733 199.595 617.059 199.259 617.302 198.83C617.545 198.391 617.666 197.887 617.666 197.318C617.666 196.749 617.545 196.249 617.302 195.82C617.059 195.391 616.733 195.055 616.322 194.812C615.911 194.569 615.445 194.448 614.922 194.448C614.399 194.448 613.928 194.569 613.508 194.812C613.097 195.055 612.771 195.391 612.528 195.82C612.295 196.249 612.178 196.749 612.178 197.318C612.178 197.887 612.295 198.391 612.528 198.83C612.771 199.259 613.097 199.595 613.508 199.838C613.928 200.071 614.399 200.188 614.922 200.188ZM623.682 201.07C622.973 201.07 622.334 200.911 621.764 200.594C621.204 200.267 620.761 199.824 620.434 199.264C620.108 198.695 619.944 198.046 619.944 197.318C619.944 196.581 620.108 195.932 620.434 195.372C620.761 194.812 621.204 194.373 621.764 194.056C622.324 193.739 622.964 193.58 623.682 193.58C624.41 193.58 625.054 193.739 625.614 194.056C626.184 194.373 626.627 194.812 626.944 195.372C627.271 195.932 627.434 196.581 627.434 197.318C627.434 198.046 627.271 198.695 626.944 199.264C626.627 199.824 626.184 200.267 625.614 200.594C625.045 200.911 624.401 201.07 623.682 201.07ZM623.682 200.188C624.214 200.188 624.686 200.071 625.096 199.838C625.507 199.595 625.829 199.259 626.062 198.83C626.305 198.391 626.426 197.887 626.426 197.318C626.426 196.739 626.305 196.235 626.062 195.806C625.829 195.377 625.507 195.045 625.096 194.812C624.686 194.569 624.219 194.448 623.696 194.448C623.174 194.448 622.707 194.569 622.296 194.812C621.886 195.045 621.559 195.377 621.316 195.806C621.074 196.235 620.952 196.739 620.952 197.318C620.952 197.887 621.074 198.391 621.316 198.83C621.559 199.259 621.886 199.595 622.296 199.838C622.707 200.071 623.169 200.188 623.682 200.188ZM629.464 201V193.65H630.416V195.652L630.318 195.302C630.523 194.742 630.868 194.317 631.354 194.028C631.839 193.729 632.441 193.58 633.16 193.58V194.546C633.122 194.546 633.085 194.546 633.048 194.546C633.01 194.537 632.973 194.532 632.936 194.532C632.161 194.532 631.554 194.77 631.116 195.246C630.677 195.713 630.458 196.38 630.458 197.248V201H629.464ZM637.612 201.07C636.921 201.07 636.389 200.883 636.016 200.51C635.643 200.137 635.456 199.609 635.456 198.928V192.026H636.45V198.872C636.45 199.301 636.557 199.633 636.772 199.866C636.996 200.099 637.313 200.216 637.724 200.216C638.163 200.216 638.527 200.09 638.816 199.838L639.166 200.552C638.97 200.729 638.732 200.86 638.452 200.944C638.181 201.028 637.901 201.07 637.612 201.07ZM634.14 194.476V193.65H638.69V194.476H634.14ZM644.807 201V192.726C644.807 192.073 644.999 191.545 645.381 191.144C645.764 190.743 646.315 190.542 647.033 190.542C647.313 190.542 647.584 190.579 647.845 190.654C648.107 190.729 648.326 190.845 648.503 191.004L648.167 191.746C648.027 191.625 647.864 191.536 647.677 191.48C647.491 191.415 647.29 191.382 647.075 191.382C646.655 191.382 646.333 191.499 646.109 191.732C645.885 191.965 645.773 192.311 645.773 192.768V193.888L645.801 194.35V201H644.807ZM643.491 194.476V193.65H648.041V194.476H643.491ZM652.257 201.07C651.547 201.07 650.908 200.911 650.339 200.594C649.779 200.267 649.335 199.824 649.009 199.264C648.682 198.695 648.519 198.046 648.519 197.318C648.519 196.581 648.682 195.932 649.009 195.372C649.335 194.812 649.779 194.373 650.339 194.056C650.899 193.739 651.538 193.58 652.257 193.58C652.985 193.58 653.629 193.739 654.189 194.056C654.758 194.373 655.201 194.812 655.519 195.372C655.845 195.932 656.009 196.581 656.009 197.318C656.009 198.046 655.845 198.695 655.519 199.264C655.201 199.824 654.758 200.267 654.189 200.594C653.619 200.911 652.975 201.07 652.257 201.07ZM652.257 200.188C652.789 200.188 653.26 200.071 653.671 199.838C654.081 199.595 654.403 199.259 654.637 198.83C654.879 198.391 655.001 197.887 655.001 197.318C655.001 196.739 654.879 196.235 654.637 195.806C654.403 195.377 654.081 195.045 653.671 194.812C653.26 194.569 652.793 194.448 652.271 194.448C651.748 194.448 651.281 194.569 650.871 194.812C650.46 195.045 650.133 195.377 649.891 195.806C649.648 196.235 649.527 196.739 649.527 197.318C649.527 197.887 649.648 198.391 649.891 198.83C650.133 199.259 650.46 199.595 650.871 199.838C651.281 200.071 651.743 200.188 652.257 200.188ZM658.038 201V193.65H658.99V195.652L658.892 195.302C659.097 194.742 659.443 194.317 659.928 194.028C660.413 193.729 661.015 193.58 661.734 193.58V194.546C661.697 194.546 661.659 194.546 661.622 194.546C661.585 194.537 661.547 194.532 661.51 194.532C660.735 194.532 660.129 194.77 659.69 195.246C659.251 195.713 659.032 196.38 659.032 197.248V201H658.038ZM670.443 201.07C669.678 201.07 669.006 200.911 668.427 200.594C667.848 200.267 667.396 199.824 667.069 199.264C666.742 198.695 666.579 198.046 666.579 197.318C666.579 196.59 666.733 195.946 667.041 195.386C667.358 194.826 667.788 194.387 668.329 194.07C668.88 193.743 669.496 193.58 670.177 193.58C670.868 193.58 671.479 193.739 672.011 194.056C672.552 194.364 672.977 194.803 673.285 195.372C673.593 195.932 673.747 196.581 673.747 197.318C673.747 197.365 673.742 197.416 673.733 197.472C673.733 197.519 673.733 197.57 673.733 197.626H667.335V196.884H673.201L672.809 197.178C672.809 196.646 672.692 196.175 672.459 195.764C672.235 195.344 671.927 195.017 671.535 194.784C671.143 194.551 670.69 194.434 670.177 194.434C669.673 194.434 669.22 194.551 668.819 194.784C668.418 195.017 668.105 195.344 667.881 195.764C667.657 196.184 667.545 196.665 667.545 197.206V197.36C667.545 197.92 667.666 198.415 667.909 198.844C668.161 199.264 668.506 199.595 668.945 199.838C669.393 200.071 669.902 200.188 670.471 200.188C670.919 200.188 671.334 200.109 671.717 199.95C672.109 199.791 672.445 199.549 672.725 199.222L673.285 199.866C672.958 200.258 672.548 200.557 672.053 200.762C671.568 200.967 671.031 201.07 670.443 201.07ZM677.524 201L674.262 193.65H675.298L678.294 200.468H677.804L680.842 193.65H681.822L678.546 201H677.524ZM686.138 201.07C685.373 201.07 684.701 200.911 684.122 200.594C683.544 200.267 683.091 199.824 682.764 199.264C682.438 198.695 682.274 198.046 682.274 197.318C682.274 196.59 682.428 195.946 682.736 195.386C683.054 194.826 683.483 194.387 684.024 194.07C684.575 193.743 685.191 193.58 685.872 193.58C686.563 193.58 687.174 193.739 687.706 194.056C688.248 194.364 688.672 194.803 688.98 195.372C689.288 195.932 689.442 196.581 689.442 197.318C689.442 197.365 689.438 197.416 689.428 197.472C689.428 197.519 689.428 197.57 689.428 197.626H683.03V196.884H688.896L688.504 197.178C688.504 196.646 688.388 196.175 688.154 195.764C687.93 195.344 687.622 195.017 687.23 194.784C686.838 194.551 686.386 194.434 685.872 194.434C685.368 194.434 684.916 194.551 684.514 194.784C684.113 195.017 683.8 195.344 683.576 195.764C683.352 196.184 683.24 196.665 683.24 197.206V197.36C683.24 197.92 683.362 198.415 683.604 198.844C683.856 199.264 684.202 199.595 684.64 199.838C685.088 200.071 685.597 200.188 686.166 200.188C686.614 200.188 687.03 200.109 687.412 199.95C687.804 199.791 688.14 199.549 688.42 199.222L688.98 199.866C688.654 200.258 688.243 200.557 687.748 200.762C687.263 200.967 686.726 201.07 686.138 201.07ZM691.466 201V193.65H692.418V195.652L692.32 195.302C692.525 194.742 692.87 194.317 693.356 194.028C693.841 193.729 694.443 193.58 695.162 193.58V194.546C695.124 194.546 695.087 194.546 695.05 194.546C695.012 194.537 694.975 194.532 694.938 194.532C694.163 194.532 693.556 194.77 693.118 195.246C692.679 195.713 692.46 196.38 692.46 197.248V201H691.466ZM697.346 203.786C697.001 203.786 696.669 203.73 696.352 203.618C696.044 203.506 695.778 203.338 695.554 203.114L696.016 202.372C696.203 202.549 696.403 202.685 696.618 202.778C696.842 202.881 697.089 202.932 697.36 202.932C697.687 202.932 697.967 202.839 698.2 202.652C698.443 202.475 698.671 202.157 698.886 201.7L699.362 200.622L699.474 200.468L702.498 193.65H703.478L699.796 201.882C699.591 202.358 699.362 202.736 699.11 203.016C698.867 203.296 698.601 203.492 698.312 203.604C698.023 203.725 697.701 203.786 697.346 203.786ZM699.306 201.21L695.918 193.65H696.954L699.95 200.398L699.306 201.21ZM475.566 223V215.65H476.56V223H475.566ZM476.07 214.026C475.865 214.026 475.692 213.956 475.552 213.816C475.412 213.676 475.342 213.508 475.342 213.312C475.342 213.116 475.412 212.953 475.552 212.822C475.692 212.682 475.865 212.612 476.07 212.612C476.276 212.612 476.448 212.677 476.588 212.808C476.728 212.939 476.798 213.102 476.798 213.298C476.798 213.503 476.728 213.676 476.588 213.816C476.458 213.956 476.285 214.026 476.07 214.026ZM483.078 215.58C483.675 215.58 484.198 215.697 484.646 215.93C485.103 216.154 485.458 216.499 485.71 216.966C485.971 217.433 486.102 218.021 486.102 218.73V223H485.108V218.828C485.108 218.053 484.912 217.47 484.52 217.078C484.137 216.677 483.596 216.476 482.896 216.476C482.373 216.476 481.916 216.583 481.524 216.798C481.141 217.003 480.843 217.307 480.628 217.708C480.423 218.1 480.32 218.576 480.32 219.136V223H479.326V215.65H480.278V217.666L480.124 217.288C480.357 216.756 480.731 216.341 481.244 216.042C481.757 215.734 482.369 215.58 483.078 215.58ZM491.713 223.07C491.013 223.07 490.383 222.911 489.823 222.594C489.272 222.277 488.838 221.838 488.521 221.278C488.204 220.709 488.045 220.055 488.045 219.318C488.045 218.571 488.204 217.918 488.521 217.358C488.838 216.798 489.272 216.364 489.823 216.056C490.383 215.739 491.013 215.58 491.713 215.58C492.357 215.58 492.931 215.725 493.435 216.014C493.948 216.303 494.354 216.728 494.653 217.288C494.961 217.839 495.115 218.515 495.115 219.318C495.115 220.111 494.966 220.788 494.667 221.348C494.368 221.908 493.962 222.337 493.449 222.636C492.945 222.925 492.366 223.07 491.713 223.07ZM491.783 222.188C492.306 222.188 492.772 222.071 493.183 221.838C493.603 221.595 493.93 221.259 494.163 220.83C494.406 220.391 494.527 219.887 494.527 219.318C494.527 218.739 494.406 218.235 494.163 217.806C493.93 217.377 493.603 217.045 493.183 216.812C492.772 216.569 492.306 216.448 491.783 216.448C491.27 216.448 490.808 216.569 490.397 216.812C489.986 217.045 489.66 217.377 489.417 217.806C489.174 218.235 489.053 218.739 489.053 219.318C489.053 219.887 489.174 220.391 489.417 220.83C489.66 221.259 489.986 221.595 490.397 221.838C490.808 222.071 491.27 222.188 491.783 222.188ZM494.555 223V220.788L494.653 219.304L494.513 217.82V212.612H495.507V223H494.555ZM498.275 223V215.65H499.269V223H498.275ZM498.779 214.026C498.574 214.026 498.401 213.956 498.261 213.816C498.121 213.676 498.051 213.508 498.051 213.312C498.051 213.116 498.121 212.953 498.261 212.822C498.401 212.682 498.574 212.612 498.779 212.612C498.985 212.612 499.157 212.677 499.297 212.808C499.437 212.939 499.507 213.102 499.507 213.298C499.507 213.503 499.437 213.676 499.297 213.816C499.167 213.956 498.994 214.026 498.779 214.026ZM503.925 223L500.663 215.65H501.699L504.695 222.468H504.205L507.243 215.65H508.223L504.947 223H503.925ZM509.623 223V215.65H510.617V223H509.623ZM510.127 214.026C509.922 214.026 509.749 213.956 509.609 213.816C509.469 213.676 509.399 213.508 509.399 213.312C509.399 213.116 509.469 212.953 509.609 212.822C509.749 212.682 509.922 212.612 510.127 212.612C510.332 212.612 510.505 212.677 510.645 212.808C510.785 212.939 510.855 213.102 510.855 213.298C510.855 213.503 510.785 213.676 510.645 213.816C510.514 213.956 510.342 214.026 510.127 214.026ZM516.309 223.07C515.609 223.07 514.979 222.911 514.419 222.594C513.868 222.277 513.434 221.838 513.117 221.278C512.799 220.709 512.641 220.055 512.641 219.318C512.641 218.571 512.799 217.918 513.117 217.358C513.434 216.798 513.868 216.364 514.419 216.056C514.979 215.739 515.609 215.58 516.309 215.58C516.953 215.58 517.527 215.725 518.031 216.014C518.544 216.303 518.95 216.728 519.249 217.288C519.557 217.839 519.711 218.515 519.711 219.318C519.711 220.111 519.561 220.788 519.263 221.348C518.964 221.908 518.558 222.337 518.045 222.636C517.541 222.925 516.962 223.07 516.309 223.07ZM516.379 222.188C516.901 222.188 517.368 222.071 517.779 221.838C518.199 221.595 518.525 221.259 518.759 220.83C519.001 220.391 519.123 219.887 519.123 219.318C519.123 218.739 519.001 218.235 518.759 217.806C518.525 217.377 518.199 217.045 517.779 216.812C517.368 216.569 516.901 216.448 516.379 216.448C515.865 216.448 515.403 216.569 514.993 216.812C514.582 217.045 514.255 217.377 514.013 217.806C513.77 218.235 513.649 218.739 513.649 219.318C513.649 219.887 513.77 220.391 514.013 220.83C514.255 221.259 514.582 221.595 514.993 221.838C515.403 222.071 515.865 222.188 516.379 222.188ZM519.151 223V220.788L519.249 219.304L519.109 217.82V212.612H520.103V223H519.151ZM525.909 223.07C525.284 223.07 524.738 222.953 524.271 222.72C523.804 222.487 523.44 222.137 523.179 221.67C522.927 221.203 522.801 220.62 522.801 219.92V215.65H523.795V219.808C523.795 220.592 523.986 221.185 524.369 221.586C524.761 221.978 525.307 222.174 526.007 222.174C526.52 222.174 526.964 222.071 527.337 221.866C527.72 221.651 528.009 221.343 528.205 220.942C528.41 220.541 528.513 220.06 528.513 219.5V215.65H529.507V223H528.555V220.984L528.709 221.348C528.476 221.889 528.112 222.314 527.617 222.622C527.132 222.921 526.562 223.07 525.909 223.07ZM536.883 223V221.376L536.841 221.11V218.394C536.841 217.769 536.664 217.288 536.309 216.952C535.964 216.616 535.446 216.448 534.755 216.448C534.279 216.448 533.827 216.527 533.397 216.686C532.968 216.845 532.604 217.055 532.305 217.316L531.857 216.574C532.231 216.257 532.679 216.014 533.201 215.846C533.724 215.669 534.275 215.58 534.853 215.58C535.805 215.58 536.538 215.818 537.051 216.294C537.574 216.761 537.835 217.475 537.835 218.436V223H536.883ZM534.349 223.07C533.799 223.07 533.318 222.981 532.907 222.804C532.506 222.617 532.198 222.365 531.983 222.048C531.769 221.721 531.661 221.348 531.661 220.928C531.661 220.545 531.75 220.2 531.927 219.892C532.114 219.575 532.413 219.323 532.823 219.136C533.243 218.94 533.803 218.842 534.503 218.842H537.037V219.584H534.531C533.822 219.584 533.327 219.71 533.047 219.962C532.777 220.214 532.641 220.527 532.641 220.9C532.641 221.32 532.805 221.656 533.131 221.908C533.458 222.16 533.915 222.286 534.503 222.286C535.063 222.286 535.544 222.16 535.945 221.908C536.356 221.647 536.655 221.273 536.841 220.788L537.065 221.474C536.879 221.959 536.552 222.347 536.085 222.636C535.628 222.925 535.049 223.07 534.349 223.07ZM540.535 223V212.612H541.529V223H540.535ZM547.959 223V215.65H548.953V223H547.959ZM548.463 214.026C548.257 214.026 548.085 213.956 547.945 213.816C547.805 213.676 547.735 213.508 547.735 213.312C547.735 213.116 547.805 212.953 547.945 212.822C548.085 212.682 548.257 212.612 548.463 212.612C548.668 212.612 548.841 212.677 548.981 212.808C549.121 212.939 549.191 213.102 549.191 213.298C549.191 213.503 549.121 213.676 548.981 213.816C548.85 213.956 548.677 214.026 548.463 214.026ZM555.471 215.58C556.068 215.58 556.591 215.697 557.039 215.93C557.496 216.154 557.851 216.499 558.103 216.966C558.364 217.433 558.495 218.021 558.495 218.73V223H557.501V218.828C557.501 218.053 557.305 217.47 556.913 217.078C556.53 216.677 555.989 216.476 555.289 216.476C554.766 216.476 554.309 216.583 553.917 216.798C553.534 217.003 553.235 217.307 553.021 217.708C552.815 218.1 552.713 218.576 552.713 219.136V223H551.719V215.65H552.671V217.666L552.517 217.288C552.75 216.756 553.123 216.341 553.637 216.042C554.15 215.734 554.761 215.58 555.471 215.58ZM562.933 223L559.671 215.65H560.707L563.703 222.468H563.213L566.251 215.65H567.231L563.955 223H562.933ZM571.422 223.07C570.712 223.07 570.073 222.911 569.504 222.594C568.944 222.267 568.5 221.824 568.174 221.264C567.847 220.695 567.684 220.046 567.684 219.318C567.684 218.581 567.847 217.932 568.174 217.372C568.5 216.812 568.944 216.373 569.504 216.056C570.064 215.739 570.703 215.58 571.422 215.58C572.15 215.58 572.794 215.739 573.354 216.056C573.923 216.373 574.366 216.812 574.684 217.372C575.01 217.932 575.174 218.581 575.174 219.318C575.174 220.046 575.01 220.695 574.684 221.264C574.366 221.824 573.923 222.267 573.354 222.594C572.784 222.911 572.14 223.07 571.422 223.07ZM571.422 222.188C571.954 222.188 572.425 222.071 572.836 221.838C573.246 221.595 573.568 221.259 573.802 220.83C574.044 220.391 574.166 219.887 574.166 219.318C574.166 218.739 574.044 218.235 573.802 217.806C573.568 217.377 573.246 217.045 572.836 216.812C572.425 216.569 571.958 216.448 571.436 216.448C570.913 216.448 570.446 216.569 570.036 216.812C569.625 217.045 569.298 217.377 569.056 217.806C568.813 218.235 568.692 218.739 568.692 219.318C568.692 219.887 568.813 220.391 569.056 220.83C569.298 221.259 569.625 221.595 570.036 221.838C570.446 222.071 570.908 222.188 571.422 222.188ZM577.203 223V212.612H578.197V223H577.203ZM582.853 223L579.591 215.65H580.627L583.623 222.468H583.133L586.171 215.65H587.151L583.875 223H582.853ZM591.468 223.07C590.702 223.07 590.03 222.911 589.452 222.594C588.873 222.267 588.42 221.824 588.094 221.264C587.767 220.695 587.604 220.046 587.604 219.318C587.604 218.59 587.758 217.946 588.066 217.386C588.383 216.826 588.812 216.387 589.354 216.07C589.904 215.743 590.52 215.58 591.202 215.58C591.892 215.58 592.504 215.739 593.036 216.056C593.577 216.364 594.002 216.803 594.31 217.372C594.618 217.932 594.772 218.581 594.772 219.318C594.772 219.365 594.767 219.416 594.758 219.472C594.758 219.519 594.758 219.57 594.758 219.626H588.36V218.884H594.226L593.834 219.178C593.834 218.646 593.717 218.175 593.484 217.764C593.26 217.344 592.952 217.017 592.56 216.784C592.168 216.551 591.715 216.434 591.202 216.434C590.698 216.434 590.245 216.551 589.844 216.784C589.442 217.017 589.13 217.344 588.906 217.764C588.682 218.184 588.57 218.665 588.57 219.206V219.36C588.57 219.92 588.691 220.415 588.934 220.844C589.186 221.264 589.531 221.595 589.97 221.838C590.418 222.071 590.926 222.188 591.496 222.188C591.944 222.188 592.359 222.109 592.742 221.95C593.134 221.791 593.47 221.549 593.75 221.222L594.31 221.866C593.983 222.258 593.572 222.557 593.078 222.762C592.592 222.967 592.056 223.07 591.468 223.07ZM599.721 223.07C599.021 223.07 598.391 222.911 597.831 222.594C597.28 222.277 596.846 221.838 596.529 221.278C596.211 220.709 596.053 220.055 596.053 219.318C596.053 218.571 596.211 217.918 596.529 217.358C596.846 216.798 597.28 216.364 597.831 216.056C598.391 215.739 599.021 215.58 599.721 215.58C600.365 215.58 600.939 215.725 601.443 216.014C601.956 216.303 602.362 216.728 602.661 217.288C602.969 217.839 603.123 218.515 603.123 219.318C603.123 220.111 602.973 220.788 602.675 221.348C602.376 221.908 601.97 222.337 601.457 222.636C600.953 222.925 600.374 223.07 599.721 223.07ZM599.791 222.188C600.313 222.188 600.78 222.071 601.191 221.838C601.611 221.595 601.937 221.259 602.171 220.83C602.413 220.391 602.535 219.887 602.535 219.318C602.535 218.739 602.413 218.235 602.171 217.806C601.937 217.377 601.611 217.045 601.191 216.812C600.78 216.569 600.313 216.448 599.791 216.448C599.277 216.448 598.815 216.569 598.405 216.812C597.994 217.045 597.667 217.377 597.425 217.806C597.182 218.235 597.061 218.739 597.061 219.318C597.061 219.887 597.182 220.391 597.425 220.83C597.667 221.259 597.994 221.595 598.405 221.838C598.815 222.071 599.277 222.188 599.791 222.188ZM602.563 223V220.788L602.661 219.304L602.521 217.82V212.612H603.515V223H602.563ZM609.947 223V215.65H610.941V223H609.947ZM610.451 214.026C610.246 214.026 610.073 213.956 609.933 213.816C609.793 213.676 609.723 213.508 609.723 213.312C609.723 213.116 609.793 212.953 609.933 212.822C610.073 212.682 610.246 212.612 610.451 212.612C610.656 212.612 610.829 212.677 610.969 212.808C611.109 212.939 611.179 213.102 611.179 213.298C611.179 213.503 611.109 213.676 610.969 213.816C610.838 213.956 610.666 214.026 610.451 214.026ZM617.459 215.58C618.056 215.58 618.579 215.697 619.027 215.93C619.484 216.154 619.839 216.499 620.091 216.966C620.352 217.433 620.483 218.021 620.483 218.73V223H619.489V218.828C619.489 218.053 619.293 217.47 618.901 217.078C618.518 216.677 617.977 216.476 617.277 216.476C616.754 216.476 616.297 216.583 615.905 216.798C615.522 217.003 615.224 217.307 615.009 217.708C614.804 218.1 614.701 218.576 614.701 219.136V223H613.707V215.65H614.659V217.666L614.505 217.288C614.738 216.756 615.112 216.341 615.625 216.042C616.138 215.734 616.75 215.58 617.459 215.58ZM629.156 223.07C628.465 223.07 627.933 222.883 627.56 222.51C627.187 222.137 627 221.609 627 220.928V214.026H627.994V220.872C627.994 221.301 628.101 221.633 628.316 221.866C628.54 222.099 628.857 222.216 629.268 222.216C629.707 222.216 630.071 222.09 630.36 221.838L630.71 222.552C630.514 222.729 630.276 222.86 629.996 222.944C629.725 223.028 629.445 223.07 629.156 223.07ZM625.684 216.476V215.65H630.234V216.476H625.684ZM636.271 215.58C636.869 215.58 637.391 215.697 637.839 215.93C638.297 216.154 638.651 216.499 638.903 216.966C639.165 217.433 639.295 218.021 639.295 218.73V223H638.301V218.828C638.301 218.053 638.105 217.47 637.713 217.078C637.331 216.677 636.789 216.476 636.089 216.476C635.567 216.476 635.109 216.583 634.717 216.798C634.335 217.003 634.036 217.307 633.821 217.708C633.616 218.1 633.513 218.576 633.513 219.136V223H632.519V212.612H633.513V217.666L633.317 217.288C633.551 216.756 633.924 216.341 634.437 216.042C634.951 215.734 635.562 215.58 636.271 215.58ZM645.102 223.07C644.337 223.07 643.665 222.911 643.086 222.594C642.508 222.267 642.055 221.824 641.728 221.264C641.402 220.695 641.238 220.046 641.238 219.318C641.238 218.59 641.392 217.946 641.7 217.386C642.018 216.826 642.447 216.387 642.988 216.07C643.539 215.743 644.155 215.58 644.836 215.58C645.527 215.58 646.138 215.739 646.67 216.056C647.212 216.364 647.636 216.803 647.944 217.372C648.252 217.932 648.406 218.581 648.406 219.318C648.406 219.365 648.402 219.416 648.392 219.472C648.392 219.519 648.392 219.57 648.392 219.626H641.994V218.884H647.86L647.468 219.178C647.468 218.646 647.352 218.175 647.118 217.764C646.894 217.344 646.586 217.017 646.194 216.784C645.802 216.551 645.35 216.434 644.836 216.434C644.332 216.434 643.88 216.551 643.478 216.784C643.077 217.017 642.764 217.344 642.54 217.764C642.316 218.184 642.204 218.665 642.204 219.206V219.36C642.204 219.92 642.326 220.415 642.568 220.844C642.82 221.264 643.166 221.595 643.604 221.838C644.052 222.071 644.561 222.188 645.13 222.188C645.578 222.188 645.994 222.109 646.376 221.95C646.768 221.791 647.104 221.549 647.384 221.222L647.944 221.866C647.618 222.258 647.207 222.557 646.712 222.762C646.227 222.967 645.69 223.07 645.102 223.07ZM657.888 223.07C657.253 223.07 656.679 222.925 656.166 222.636C655.652 222.337 655.242 221.913 654.934 221.362C654.635 220.802 654.486 220.121 654.486 219.318C654.486 218.515 654.635 217.839 654.934 217.288C655.232 216.728 655.638 216.303 656.152 216.014C656.665 215.725 657.244 215.58 657.888 215.58C658.588 215.58 659.213 215.739 659.764 216.056C660.324 216.364 660.762 216.803 661.08 217.372C661.397 217.932 661.556 218.581 661.556 219.318C661.556 220.065 661.397 220.718 661.08 221.278C660.762 221.838 660.324 222.277 659.764 222.594C659.213 222.911 658.588 223.07 657.888 223.07ZM654.094 225.716V215.65H655.046V217.862L654.948 219.332L655.088 220.816V225.716H654.094ZM657.818 222.188C658.34 222.188 658.807 222.071 659.218 221.838C659.628 221.595 659.955 221.259 660.198 220.83C660.44 220.391 660.562 219.887 660.562 219.318C660.562 218.749 660.44 218.249 660.198 217.82C659.955 217.391 659.628 217.055 659.218 216.812C658.807 216.569 658.34 216.448 657.818 216.448C657.295 216.448 656.824 216.569 656.404 216.812C655.993 217.055 655.666 217.391 655.424 217.82C655.19 218.249 655.074 218.749 655.074 219.318C655.074 219.887 655.19 220.391 655.424 220.83C655.666 221.259 655.993 221.595 656.404 221.838C656.824 222.071 657.295 222.188 657.818 222.188ZM663.582 223V215.65H664.534V217.652L664.436 217.302C664.641 216.742 664.987 216.317 665.472 216.028C665.957 215.729 666.559 215.58 667.278 215.58V216.546C667.241 216.546 667.203 216.546 667.166 216.546C667.129 216.537 667.091 216.532 667.054 216.532C666.279 216.532 665.673 216.77 665.234 217.246C664.795 217.713 664.576 218.38 664.576 219.248V223H663.582ZM672.019 223.07C671.31 223.07 670.671 222.911 670.101 222.594C669.541 222.267 669.098 221.824 668.771 221.264C668.445 220.695 668.281 220.046 668.281 219.318C668.281 218.581 668.445 217.932 668.771 217.372C669.098 216.812 669.541 216.373 670.101 216.056C670.661 215.739 671.301 215.58 672.019 215.58C672.747 215.58 673.391 215.739 673.951 216.056C674.521 216.373 674.964 216.812 675.281 217.372C675.608 217.932 675.771 218.581 675.771 219.318C675.771 220.046 675.608 220.695 675.281 221.264C674.964 221.824 674.521 222.267 673.951 222.594C673.382 222.911 672.738 223.07 672.019 223.07ZM672.019 222.188C672.551 222.188 673.023 222.071 673.433 221.838C673.844 221.595 674.166 221.259 674.399 220.83C674.642 220.391 674.763 219.887 674.763 219.318C674.763 218.739 674.642 218.235 674.399 217.806C674.166 217.377 673.844 217.045 673.433 216.812C673.023 216.569 672.556 216.448 672.033 216.448C671.511 216.448 671.044 216.569 670.633 216.812C670.223 217.045 669.896 217.377 669.653 217.806C669.411 218.235 669.289 218.739 669.289 219.318C669.289 219.887 669.411 220.391 669.653 220.83C669.896 221.259 670.223 221.595 670.633 221.838C671.044 222.071 671.506 222.188 672.019 222.188ZM680.727 223.07C680.027 223.07 679.397 222.911 678.837 222.594C678.286 222.277 677.852 221.838 677.535 221.278C677.217 220.709 677.059 220.055 677.059 219.318C677.059 218.571 677.217 217.918 677.535 217.358C677.852 216.798 678.286 216.364 678.837 216.056C679.397 215.739 680.027 215.58 680.727 215.58C681.371 215.58 681.945 215.725 682.449 216.014C682.962 216.303 683.368 216.728 683.667 217.288C683.975 217.839 684.129 218.515 684.129 219.318C684.129 220.111 683.979 220.788 683.681 221.348C683.382 221.908 682.976 222.337 682.463 222.636C681.959 222.925 681.38 223.07 680.727 223.07ZM680.797 222.188C681.319 222.188 681.786 222.071 682.197 221.838C682.617 221.595 682.943 221.259 683.177 220.83C683.419 220.391 683.541 219.887 683.541 219.318C683.541 218.739 683.419 218.235 683.177 217.806C682.943 217.377 682.617 217.045 682.197 216.812C681.786 216.569 681.319 216.448 680.797 216.448C680.283 216.448 679.821 216.569 679.411 216.812C679 217.045 678.673 217.377 678.431 217.806C678.188 218.235 678.067 218.739 678.067 219.318C678.067 219.887 678.188 220.391 678.431 220.83C678.673 221.259 679 221.595 679.411 221.838C679.821 222.071 680.283 222.188 680.797 222.188ZM683.569 223V220.788L683.667 219.304L683.527 217.82V212.612H684.521V223H683.569ZM690.327 223.07C689.702 223.07 689.156 222.953 688.689 222.72C688.222 222.487 687.858 222.137 687.597 221.67C687.345 221.203 687.219 220.62 687.219 219.92V215.65H688.213V219.808C688.213 220.592 688.404 221.185 688.787 221.586C689.179 221.978 689.725 222.174 690.425 222.174C690.938 222.174 691.382 222.071 691.755 221.866C692.138 221.651 692.427 221.343 692.623 220.942C692.828 220.541 692.931 220.06 692.931 219.5V215.65H693.925V223H692.973V220.984L693.127 221.348C692.894 221.889 692.53 222.314 692.035 222.622C691.55 222.921 690.98 223.07 690.327 223.07ZM699.747 223.07C699.019 223.07 698.366 222.911 697.787 222.594C697.218 222.267 696.77 221.824 696.443 221.264C696.116 220.695 695.953 220.046 695.953 219.318C695.953 218.581 696.116 217.932 696.443 217.372C696.77 216.812 697.218 216.373 697.787 216.056C698.366 215.739 699.019 215.58 699.747 215.58C700.372 215.58 700.937 215.701 701.441 215.944C701.945 216.187 702.342 216.551 702.631 217.036L701.889 217.54C701.637 217.167 701.324 216.891 700.951 216.714C700.578 216.537 700.172 216.448 699.733 216.448C699.21 216.448 698.739 216.569 698.319 216.812C697.899 217.045 697.568 217.377 697.325 217.806C697.082 218.235 696.961 218.739 696.961 219.318C696.961 219.897 697.082 220.401 697.325 220.83C697.568 221.259 697.899 221.595 698.319 221.838C698.739 222.071 699.21 222.188 699.733 222.188C700.172 222.188 700.578 222.099 700.951 221.922C701.324 221.745 701.637 221.474 701.889 221.11L702.631 221.614C702.342 222.09 701.945 222.454 701.441 222.706C700.937 222.949 700.372 223.07 699.747 223.07ZM706.99 223.07C706.299 223.07 705.767 222.883 705.394 222.51C705.021 222.137 704.834 221.609 704.834 220.928V214.026H705.828V220.872C705.828 221.301 705.935 221.633 706.15 221.866C706.374 222.099 706.691 222.216 707.102 222.216C707.541 222.216 707.905 222.09 708.194 221.838L708.544 222.552C708.348 222.729 708.11 222.86 707.83 222.944C707.559 223.028 707.279 223.07 706.99 223.07ZM703.518 216.476V215.65H708.068V216.476H703.518ZM565.09 245V234.612H566.084V245H565.09ZM568.849 245V237.65H569.843V245H568.849ZM569.353 236.026C569.148 236.026 568.975 235.956 568.835 235.816C568.695 235.676 568.625 235.508 568.625 235.312C568.625 235.116 568.695 234.953 568.835 234.822C568.975 234.682 569.148 234.612 569.353 234.612C569.559 234.612 569.731 234.677 569.871 234.808C570.011 234.939 570.081 235.102 570.081 235.298C570.081 235.503 570.011 235.676 569.871 235.816C569.741 235.956 569.568 236.026 569.353 236.026ZM572.777 245V236.726C572.777 236.073 572.969 235.545 573.351 235.144C573.734 234.743 574.285 234.542 575.003 234.542C575.283 234.542 575.554 234.579 575.815 234.654C576.077 234.729 576.296 234.845 576.473 235.004L576.137 235.746C575.997 235.625 575.834 235.536 575.647 235.48C575.461 235.415 575.26 235.382 575.045 235.382C574.625 235.382 574.303 235.499 574.079 235.732C573.855 235.965 573.743 236.311 573.743 236.768V237.888L573.771 238.35V245H572.777ZM571.461 238.476V237.65H576.011V238.476H571.461ZM580.352 245.07C579.587 245.07 578.915 244.911 578.336 244.594C577.758 244.267 577.305 243.824 576.978 243.264C576.652 242.695 576.488 242.046 576.488 241.318C576.488 240.59 576.642 239.946 576.95 239.386C577.268 238.826 577.697 238.387 578.238 238.07C578.789 237.743 579.405 237.58 580.086 237.58C580.777 237.58 581.388 237.739 581.92 238.056C582.462 238.364 582.886 238.803 583.194 239.372C583.502 239.932 583.656 240.581 583.656 241.318C583.656 241.365 583.652 241.416 583.642 241.472C583.642 241.519 583.642 241.57 583.642 241.626H577.244V240.884H583.11L582.718 241.178C582.718 240.646 582.602 240.175 582.368 239.764C582.144 239.344 581.836 239.017 581.444 238.784C581.052 238.551 580.6 238.434 580.086 238.434C579.582 238.434 579.13 238.551 578.728 238.784C578.327 239.017 578.014 239.344 577.79 239.764C577.566 240.184 577.454 240.665 577.454 241.206V241.36C577.454 241.92 577.576 242.415 577.818 242.844C578.07 243.264 578.416 243.595 578.854 243.838C579.302 244.071 579.811 244.188 580.38 244.188C580.828 244.188 581.244 244.109 581.626 243.95C582.018 243.791 582.354 243.549 582.634 243.222L583.194 243.866C582.868 244.258 582.457 244.557 581.962 244.762C581.477 244.967 580.94 245.07 580.352 245.07ZM592.396 245.07C591.668 245.07 591.014 244.911 590.436 244.594C589.866 244.267 589.418 243.824 589.092 243.264C588.765 242.695 588.602 242.046 588.602 241.318C588.602 240.581 588.765 239.932 589.092 239.372C589.418 238.812 589.866 238.373 590.436 238.056C591.014 237.739 591.668 237.58 592.396 237.58C593.021 237.58 593.586 237.701 594.09 237.944C594.594 238.187 594.99 238.551 595.28 239.036L594.538 239.54C594.286 239.167 593.973 238.891 593.6 238.714C593.226 238.537 592.82 238.448 592.382 238.448C591.859 238.448 591.388 238.569 590.968 238.812C590.548 239.045 590.216 239.377 589.974 239.806C589.731 240.235 589.61 240.739 589.61 241.318C589.61 241.897 589.731 242.401 589.974 242.83C590.216 243.259 590.548 243.595 590.968 243.838C591.388 244.071 591.859 244.188 592.382 244.188C592.82 244.188 593.226 244.099 593.6 243.922C593.973 243.745 594.286 243.474 594.538 243.11L595.28 243.614C594.99 244.09 594.594 244.454 594.09 244.706C593.586 244.949 593.021 245.07 592.396 245.07ZM597.179 247.786C596.834 247.786 596.502 247.73 596.185 247.618C595.877 247.506 595.611 247.338 595.387 247.114L595.849 246.372C596.036 246.549 596.236 246.685 596.451 246.778C596.675 246.881 596.922 246.932 597.193 246.932C597.52 246.932 597.8 246.839 598.033 246.652C598.276 246.475 598.504 246.157 598.719 245.7L599.195 244.622L599.307 244.468L602.331 237.65H603.311L599.629 245.882C599.424 246.358 599.195 246.736 598.943 247.016C598.7 247.296 598.434 247.492 598.145 247.604C597.856 247.725 597.534 247.786 597.179 247.786ZM599.139 245.21L595.751 237.65H596.787L599.783 244.398L599.139 245.21ZM607.558 245.07C606.83 245.07 606.176 244.911 605.598 244.594C605.028 244.267 604.58 243.824 604.254 243.264C603.927 242.695 603.764 242.046 603.764 241.318C603.764 240.581 603.927 239.932 604.254 239.372C604.58 238.812 605.028 238.373 605.598 238.056C606.176 237.739 606.83 237.58 607.558 237.58C608.183 237.58 608.748 237.701 609.252 237.944C609.756 238.187 610.152 238.551 610.442 239.036L609.7 239.54C609.448 239.167 609.135 238.891 608.762 238.714C608.388 238.537 607.982 238.448 607.544 238.448C607.021 238.448 606.55 238.569 606.13 238.812C605.71 239.045 605.378 239.377 605.136 239.806C604.893 240.235 604.772 240.739 604.772 241.318C604.772 241.897 604.893 242.401 605.136 242.83C605.378 243.259 605.71 243.595 606.13 243.838C606.55 244.071 607.021 244.188 607.544 244.188C607.982 244.188 608.388 244.099 608.762 243.922C609.135 243.745 609.448 243.474 609.7 243.11L610.442 243.614C610.152 244.09 609.756 244.454 609.252 244.706C608.748 244.949 608.183 245.07 607.558 245.07ZM612.285 245V234.612H613.279V245H612.285ZM619.167 245.07C618.401 245.07 617.729 244.911 617.151 244.594C616.572 244.267 616.119 243.824 615.793 243.264C615.466 242.695 615.303 242.046 615.303 241.318C615.303 240.59 615.457 239.946 615.765 239.386C616.082 238.826 616.511 238.387 617.053 238.07C617.603 237.743 618.219 237.58 618.901 237.58C619.591 237.58 620.203 237.739 620.735 238.056C621.276 238.364 621.701 238.803 622.009 239.372C622.317 239.932 622.471 240.581 622.471 241.318C622.471 241.365 622.466 241.416 622.457 241.472C622.457 241.519 622.457 241.57 622.457 241.626H616.059V240.884H621.925L621.533 241.178C621.533 240.646 621.416 240.175 621.183 239.764C620.959 239.344 620.651 239.017 620.259 238.784C619.867 238.551 619.414 238.434 618.901 238.434C618.397 238.434 617.944 238.551 617.543 238.784C617.141 239.017 616.829 239.344 616.605 239.764C616.381 240.184 616.269 240.665 616.269 241.206V241.36C616.269 241.92 616.39 242.415 616.633 242.844C616.885 243.264 617.23 243.595 617.669 243.838C618.117 244.071 618.625 244.188 619.195 244.188C619.643 244.188 620.058 244.109 620.441 243.95C620.833 243.791 621.169 243.549 621.449 243.222L622.009 243.866C621.682 244.258 621.271 244.557 620.777 244.762C620.291 244.967 619.755 245.07 619.167 245.07Z" fill="#4B4B4B"/>
<defs>
<filter id="filter0_d_2288_2423" x="396.051" y="26" width="392.05" height="281" filterUnits="userSpaceOnUse" color-interpolation-filters="sRGB">
<feFlood flood-opacity="0" result="BackgroundImageFix"/>
<feColorMatrix in="SourceAlpha" type="matrix" values="0 0 0 0 0 0 0 0 0 0 0 0 0 0 0 0 0 0 127 0" result="hardAlpha"/>
<feOffset dy="1"/>
<feGaussianBlur stdDeviation="2"/>
<feComposite in2="hardAlpha" operator="out"/>
<feColorMatrix type="matrix" values="0 0 0 0 0 0 0 0 0 0 0 0 0 0 0 0 0 0 0.1 0"/>
<feBlend mode="normal" in2="BackgroundImageFix" result="effect1_dropShadow_2288_2423"/>
<feBlend mode="normal" in="SourceGraphic" in2="effect1_dropShadow_2288_2423" result="shape"/>
</filter>
<linearGradient id="paint0_linear_2288_2423" x1="97.5" y1="102" x2="279.033" y2="-215.07" gradientUnits="userSpaceOnUse">
<stop stop-color="#FF5D25"/>
<stop offset="1" stop-color="#FF5D25" stop-opacity="0"/>
</linearGradient>
<linearGradient id="paint1_linear_2288_2423" x1="1297" y1="127" x2="1001.49" y2="606.747" gradientUnits="userSpaceOnUse">
<stop stop-color="#FF5D25"/>
<stop offset="1" stop-color="#FF5D25" stop-opacity="0"/>
</linearGradient>
<linearGradient id="paint2_linear_2288_2423" x1="258.084" y1="174.5" x2="345.631" y2="341.165" gradientUnits="userSpaceOnUse">
<stop stop-color="#FF5D25"/>
<stop offset="0.336779" stop-color="#FF5D25" stop-opacity="0.515625"/>
<stop offset="1" stop-color="#FF5D25" stop-opacity="0"/>
</linearGradient>
<linearGradient id="paint3_linear_2288_2423" x1="951.5" y1="158" x2="863.953" y2="-8.66458" gradientUnits="userSpaceOnUse">
<stop stop-color="#FF5D25"/>
<stop offset="0.336779" stop-color="#FF5D25" stop-opacity="0.515625"/>
<stop offset="1" stop-color="#FF5D25" stop-opacity="0"/>
</linearGradient>
<linearGradient id="paint4_linear_2288_2423" x1="592.076" y1="29" x2="592" y2="346" gradientUnits="userSpaceOnUse">
<stop stop-color="#030122"/>
<stop offset="1" stop-color="#030122" stop-opacity="0"/>
</linearGradient>
</defs>
</svg>
