<svg width="24" height="25" viewBox="0 0 24 25" fill="none" xmlns="http://www.w3.org/2000/svg">
<path d="M15.9003 18.9539C17.2503 18.9539 18.3503 17.8539 18.3503 16.5039C18.3503 15.1539 17.2503 14.0539 15.9003 14.0539C14.5403 14.0539 13.4503 15.1539 13.4503 16.5039C13.4503 17.8539 14.5403 18.9539 15.9003 18.9539ZM21.1003 17.1839L22.5803 18.3439C22.7103 18.4539 22.7503 18.6339 22.6603 18.7939L21.2603 21.2139C21.1703 21.3639 21.0003 21.4239 20.8303 21.3639L19.0903 20.6639C18.7303 20.9439 18.3303 21.1739 17.9103 21.3539L17.6403 23.2039C17.6203 23.3739 17.4703 23.5039 17.3003 23.5039H14.5003C14.3203 23.5039 14.1803 23.3739 14.1503 23.2039L13.8903 21.3539C13.4603 21.1739 13.0703 20.9439 12.7103 20.6639L10.9603 21.3639C10.8103 21.4239 10.6203 21.3639 10.5403 21.2139L9.14027 18.7939C9.05027 18.6339 9.09027 18.4539 9.22027 18.3439L10.7003 17.1839L10.6503 16.5039L10.7003 15.8139L9.22027 14.6639C9.09027 14.5539 9.05027 14.3639 9.14027 14.2139L10.5403 11.7939C10.6203 11.6339 10.8103 11.5739 10.9603 11.6339L12.7103 12.3439C13.0703 12.0639 13.4603 11.8239 13.8903 11.6539L14.1503 9.79391C14.1803 9.63391 14.3203 9.50391 14.5003 9.50391H17.3003C17.4703 9.50391 17.6203 9.63391 17.6403 9.79391L17.9103 11.6539C18.3303 11.8239 18.7303 12.0639 19.0903 12.3439L20.8303 11.6339C21.0003 11.5739 21.1703 11.6339 21.2603 11.7939L22.6603 14.2139C22.7503 14.3639 22.7103 14.5539 22.5803 14.6639L21.1003 15.8139L21.1503 16.5039L21.1003 17.1839ZM6.69027 8.57391C7.56027 8.57391 8.26027 7.87391 8.26027 7.00391C8.26027 6.13391 7.56027 5.42391 6.69027 5.42391C6.27123 5.42391 5.86935 5.59037 5.57304 5.88668C5.27673 6.18299 5.11027 6.58486 5.11027 7.00391C5.11027 7.87391 5.82027 8.57391 6.69027 8.57391ZM10.0303 7.44391L11.0003 8.18391C11.0703 8.25391 11.0903 8.37391 11.0303 8.47391L10.1303 10.0339C10.0803 10.1339 9.96027 10.1739 9.86027 10.1339L8.74027 9.68391L8.00027 10.1239L7.81027 11.3139C7.79027 11.4239 7.70027 11.5039 7.59027 11.5039H5.79027C5.67027 11.5039 5.58027 11.4239 5.56027 11.3139L5.40027 10.1239L4.64027 9.68391L3.50027 10.1339C3.41027 10.1739 3.30027 10.1339 3.24027 10.0339L2.34027 8.47391C2.28027 8.37391 2.31027 8.25391 2.39027 8.18391L3.34027 7.44391L3.31027 7.00391L3.34027 6.56391L2.39027 5.82391C2.31027 5.75391 2.28027 5.63391 2.34027 5.53391L3.24027 3.97391C3.30027 3.87391 3.41027 3.83391 3.50027 3.87391L4.63027 4.32391L5.40027 3.88391L5.56027 2.69391C5.58027 2.58391 5.67027 2.50391 5.79027 2.50391H7.59027C7.70027 2.50391 7.79027 2.58391 7.81027 2.69391L8.00027 3.88391L8.74027 4.32391L9.86027 3.87391C9.96027 3.83391 10.0803 3.87391 10.1303 3.97391L11.0303 5.53391C11.0903 5.63391 11.0703 5.75391 11.0003 5.82391L10.0303 6.56391L10.0603 7.00391L10.0303 7.44391Z" fill="#030122"/>
</svg>
