<svg width="330" height="307" viewBox="0 0 330 307" fill="none" xmlns="http://www.w3.org/2000/svg">
<rect x="1" y="27" width="328" height="200" rx="10" stroke="url(#paint0_linear_1672_831)" stroke-width="2"/>
<rect x="95" width="140" height="53.7615" rx="26.8807" fill="white"/>
<rect x="95.5" y="0.5" width="139" height="52.7615" rx="26.3807" stroke="#BFC8E2" stroke-opacity="0.3"/>
<path d="M115 20H123.29C128.21 20.0393 130.671 23.46 130.671 26.8807C130.671 30.3014 128.21 33.7221 123.29 33.7615H115V20ZM118.494 22.7523V30.9895H123.187C125.771 30.9895 127.053 28.9253 127.053 26.8807C127.053 24.8165 125.771 22.7523 123.187 22.7523H118.494Z" fill="black"/>
<path d="M136.846 30.9895H146.397V33.7615H133.352V20H146.252V22.772H136.846V25.5046H144.867V28.2569H136.846V30.9895Z" fill="black"/>
<path d="M152.411 30.9895H161.673V33.7615H148.917V20H152.411V30.9895Z" fill="black"/>
<path d="M163.978 33.7615V20H172.703C175.886 20 177.458 22.1429 177.458 24.3054C177.458 25.9764 176.486 27.6671 174.543 28.3159L179.008 33.7615H174.625L170.801 28.5911H167.472V33.7615H163.978ZM167.472 22.772V25.8388H171.855C173.178 25.8388 173.84 25.0721 173.84 24.3054C173.84 23.5387 173.178 22.772 171.855 22.772H167.472Z" fill="black"/>
<path d="M200.156 33.7615H195.67L184.548 20H188.682L192.094 24.0891L195.505 20H199.619L194.244 26.6645L200.156 33.7615ZM190.605 31.0682L188.517 33.7615H184.031L188.414 28.4731L190.605 31.0682Z" fill="#FF5D25"/>
<path d="M202.244 33.7615V20H205.738V33.7615H202.244ZM208.488 30.9895H215V33.7615H208.488V30.9895Z" fill="#FF5D25"/>
<rect x="26.5" y="107.5" width="277" height="199" rx="11.5" fill="white" stroke="#EAEAEE"/>
<circle cx="81" cy="167" r="25" fill="#FF5D25" fill-opacity="0.1"/>
<circle cx="81" cy="167" r="24.5" stroke="#FF5D25" stroke-opacity="0.5"/>
<path d="M60.0382 173.679C58.4595 174.181 57.5712 175.879 58.2596 177.386C59.7935 180.745 62.058 183.734 64.9019 186.127C68.5137 189.167 72.9123 191.122 77.5889 191.766C82.2655 192.41 87.0289 191.717 91.3279 189.767C95.627 187.817 99.286 184.689 101.882 180.746C104.477 176.803 105.904 172.206 105.995 167.486C106.087 162.766 104.841 158.117 102.4 154.076C99.9595 150.035 96.4248 146.767 92.2047 144.652C88.8819 142.986 85.2412 142.087 81.5498 142.006C79.8934 141.97 78.6852 143.457 78.8473 145.106L79.2387 149.086C79.4008 150.735 80.879 151.909 82.5273 152.078C84.3284 152.262 86.0896 152.772 87.7228 153.591C90.2549 154.86 92.3757 156.821 93.84 159.245C95.3043 161.67 96.0522 164.46 95.9972 167.291C95.9421 170.123 95.0864 172.882 93.529 175.248C91.9716 177.613 89.7762 179.49 87.1968 180.66C84.6173 181.83 81.7593 182.246 78.9533 181.86C76.1474 181.473 73.5082 180.3 71.3411 178.476C69.9433 177.3 68.7788 175.884 67.8974 174.302C67.0908 172.855 65.4281 171.961 63.8494 172.464L60.0382 173.679Z" fill="#FF5D25"/>
<path d="M130.98 161.38V152.62H132.66V161.38H130.98ZM127.34 157.8V156.22H136.3V157.8H127.34ZM148.492 164.16C147.505 164.16 146.545 164.007 145.612 163.7C144.692 163.393 143.938 162.98 143.352 162.46L144.272 160.88C144.738 161.32 145.345 161.68 146.092 161.96C146.838 162.24 147.632 162.38 148.472 162.38C149.538 162.38 150.358 162.153 150.932 161.7C151.505 161.247 151.792 160.64 151.792 159.88C151.792 159.36 151.665 158.907 151.412 158.52C151.158 158.133 150.718 157.84 150.092 157.64C149.478 157.427 148.632 157.32 147.552 157.32H144.372L145.112 150H153.012V151.74H145.852L146.892 150.76L146.312 156.54L145.272 155.58H147.972C149.372 155.58 150.498 155.76 151.352 156.12C152.205 156.48 152.825 156.98 153.212 157.62C153.598 158.247 153.792 158.973 153.792 159.8C153.792 160.6 153.598 161.333 153.212 162C152.825 162.653 152.238 163.18 151.452 163.58C150.678 163.967 149.692 164.16 148.492 164.16ZM155.256 160.56V159.16L162.416 150H164.576L157.476 159.16L156.456 158.84H167.636V160.56H155.256ZM163.036 164V160.56L163.096 158.84V155.8H164.976V164H163.036Z" fill="black"/>
<path d="M127.47 187V177.2H128.618L135.1 185.25H134.498V177.2H135.898V187H134.75L128.268 178.95H128.87V187H127.47ZM141.813 187.084C141.067 187.084 140.404 186.921 139.825 186.594C139.247 186.267 138.789 185.819 138.453 185.25C138.117 184.671 137.949 184.018 137.949 183.29C137.949 182.553 138.117 181.899 138.453 181.33C138.789 180.761 139.247 180.317 139.825 180C140.404 179.673 141.067 179.51 141.813 179.51C142.551 179.51 143.209 179.673 143.787 180C144.375 180.317 144.833 180.761 145.159 181.33C145.495 181.89 145.663 182.543 145.663 183.29C145.663 184.027 145.495 184.681 145.159 185.25C144.833 185.819 144.375 186.267 143.787 186.594C143.209 186.921 142.551 187.084 141.813 187.084ZM141.813 185.908C142.289 185.908 142.714 185.801 143.087 185.586C143.47 185.371 143.769 185.068 143.983 184.676C144.198 184.275 144.305 183.813 144.305 183.29C144.305 182.758 144.198 182.301 143.983 181.918C143.769 181.526 143.47 181.223 143.087 181.008C142.714 180.793 142.289 180.686 141.813 180.686C141.337 180.686 140.913 180.793 140.539 181.008C140.166 181.223 139.867 181.526 139.643 181.918C139.419 182.301 139.307 182.758 139.307 183.29C139.307 183.813 139.419 184.275 139.643 184.676C139.867 185.068 140.166 185.371 140.539 185.586C140.913 185.801 141.337 185.908 141.813 185.908ZM147.68 187.084C147.419 187.084 147.195 186.995 147.008 186.818C146.821 186.631 146.728 186.398 146.728 186.118C146.728 185.838 146.821 185.609 147.008 185.432C147.195 185.255 147.419 185.166 147.68 185.166C147.932 185.166 148.147 185.255 148.324 185.432C148.511 185.609 148.604 185.838 148.604 186.118C148.604 186.398 148.511 186.631 148.324 186.818C148.147 186.995 147.932 187.084 147.68 187.084ZM157.468 187.084C156.721 187.084 156.058 186.921 155.48 186.594C154.901 186.267 154.444 185.819 154.108 185.25C153.772 184.671 153.604 184.018 153.604 183.29C153.604 182.553 153.772 181.899 154.108 181.33C154.444 180.761 154.901 180.317 155.48 180C156.058 179.673 156.721 179.51 157.468 179.51C158.205 179.51 158.863 179.673 159.442 180C160.03 180.317 160.487 180.761 160.814 181.33C161.15 181.89 161.318 182.543 161.318 183.29C161.318 184.027 161.15 184.681 160.814 185.25C160.487 185.819 160.03 186.267 159.442 186.594C158.863 186.921 158.205 187.084 157.468 187.084ZM157.468 185.908C157.944 185.908 158.368 185.801 158.742 185.586C159.124 185.371 159.423 185.068 159.638 184.676C159.852 184.275 159.96 183.813 159.96 183.29C159.96 182.758 159.852 182.301 159.638 181.918C159.423 181.526 159.124 181.223 158.742 181.008C158.368 180.793 157.944 180.686 157.468 180.686C156.992 180.686 156.567 180.793 156.194 181.008C155.82 181.223 155.522 181.526 155.298 181.918C155.074 182.301 154.962 182.758 154.962 183.29C154.962 183.813 155.074 184.275 155.298 184.676C155.522 185.068 155.82 185.371 156.194 185.586C156.567 185.801 156.992 185.908 157.468 185.908ZM163.372 187V178.922C163.372 178.194 163.582 177.615 164.002 177.186C164.432 176.747 165.038 176.528 165.822 176.528C166.112 176.528 166.387 176.565 166.648 176.64C166.919 176.705 167.148 176.813 167.334 176.962L166.928 177.984C166.788 177.872 166.63 177.788 166.452 177.732C166.275 177.667 166.088 177.634 165.892 177.634C165.5 177.634 165.202 177.746 164.996 177.97C164.791 178.185 164.688 178.507 164.688 178.936V179.93L164.716 180.546V187H163.372ZM162.112 180.686V179.58H166.844V180.686H162.112ZM172.068 187V177.2H176.198C177.243 177.2 178.162 177.405 178.956 177.816C179.758 178.227 180.379 178.801 180.818 179.538C181.266 180.275 181.49 181.129 181.49 182.1C181.49 183.071 181.266 183.925 180.818 184.662C180.379 185.399 179.758 185.973 178.956 186.384C178.162 186.795 177.243 187 176.198 187H172.068ZM173.468 185.782H176.114C176.926 185.782 177.626 185.628 178.214 185.32C178.811 185.012 179.273 184.583 179.6 184.032C179.926 183.472 180.09 182.828 180.09 182.1C180.09 181.363 179.926 180.719 179.6 180.168C179.273 179.617 178.811 179.188 178.214 178.88C177.626 178.572 176.926 178.418 176.114 178.418H173.468V185.782ZM186.742 187.084C185.949 187.084 185.249 186.921 184.642 186.594C184.045 186.267 183.578 185.819 183.242 185.25C182.915 184.681 182.752 184.027 182.752 183.29C182.752 182.553 182.911 181.899 183.228 181.33C183.555 180.761 183.998 180.317 184.558 180C185.127 179.673 185.767 179.51 186.476 179.51C187.195 179.51 187.829 179.669 188.38 179.986C188.931 180.303 189.36 180.751 189.668 181.33C189.985 181.899 190.144 182.567 190.144 183.332C190.144 183.388 190.139 183.453 190.13 183.528C190.13 183.603 190.125 183.673 190.116 183.738H183.802V182.772H189.416L188.87 183.108C188.879 182.632 188.781 182.207 188.576 181.834C188.371 181.461 188.086 181.171 187.722 180.966C187.367 180.751 186.952 180.644 186.476 180.644C186.009 180.644 185.594 180.751 185.23 180.966C184.866 181.171 184.581 181.465 184.376 181.848C184.171 182.221 184.068 182.651 184.068 183.136V183.36C184.068 183.855 184.18 184.298 184.404 184.69C184.637 185.073 184.959 185.371 185.37 185.586C185.781 185.801 186.252 185.908 186.784 185.908C187.223 185.908 187.619 185.833 187.974 185.684C188.338 185.535 188.655 185.311 188.926 185.012L189.668 185.88C189.332 186.272 188.912 186.571 188.408 186.776C187.913 186.981 187.358 187.084 186.742 187.084ZM192.01 187V176.612H193.354V187H192.01ZM200.526 187V185.432L200.456 185.138V182.464C200.456 181.895 200.288 181.456 199.952 181.148C199.626 180.831 199.131 180.672 198.468 180.672C198.03 180.672 197.6 180.747 197.18 180.896C196.76 181.036 196.406 181.227 196.116 181.47L195.556 180.462C195.939 180.154 196.396 179.921 196.928 179.762C197.47 179.594 198.034 179.51 198.622 179.51C199.64 179.51 200.424 179.757 200.974 180.252C201.525 180.747 201.8 181.503 201.8 182.52V187H200.526ZM198.09 187.084C197.54 187.084 197.054 186.991 196.634 186.804C196.224 186.617 195.906 186.361 195.682 186.034C195.458 185.698 195.346 185.32 195.346 184.9C195.346 184.499 195.44 184.135 195.626 183.808C195.822 183.481 196.135 183.22 196.564 183.024C197.003 182.828 197.591 182.73 198.328 182.73H200.68V183.696H198.384C197.712 183.696 197.26 183.808 197.026 184.032C196.793 184.256 196.676 184.527 196.676 184.844C196.676 185.208 196.821 185.502 197.11 185.726C197.4 185.941 197.801 186.048 198.314 186.048C198.818 186.048 199.257 185.936 199.63 185.712C200.013 185.488 200.288 185.161 200.456 184.732L200.722 185.656C200.545 186.095 200.232 186.445 199.784 186.706C199.336 186.958 198.772 187.084 198.09 187.084ZM207.592 187.084C206.798 187.084 206.098 186.921 205.492 186.594C204.894 186.267 204.428 185.819 204.092 185.25C203.765 184.681 203.602 184.027 203.602 183.29C203.602 182.553 203.76 181.899 204.078 181.33C204.404 180.761 204.848 180.317 205.408 180C205.977 179.673 206.616 179.51 207.326 179.51C208.044 179.51 208.679 179.669 209.23 179.986C209.78 180.303 210.21 180.751 210.518 181.33C210.835 181.899 210.994 182.567 210.994 183.332C210.994 183.388 210.989 183.453 210.98 183.528C210.98 183.603 210.975 183.673 210.966 183.738H204.652V182.772H210.266L209.72 183.108C209.729 182.632 209.631 182.207 209.426 181.834C209.22 181.461 208.936 181.171 208.572 180.966C208.217 180.751 207.802 180.644 207.326 180.644C206.859 180.644 206.444 180.751 206.08 180.966C205.716 181.171 205.431 181.465 205.226 181.848C205.02 182.221 204.918 182.651 204.918 183.136V183.36C204.918 183.855 205.03 184.298 205.254 184.69C205.487 185.073 205.809 185.371 206.22 185.586C206.63 185.801 207.102 185.908 207.634 185.908C208.072 185.908 208.469 185.833 208.824 185.684C209.188 185.535 209.505 185.311 209.776 185.012L210.518 185.88C210.182 186.272 209.762 186.571 209.258 186.776C208.763 186.981 208.208 187.084 207.592 187.084ZM212.86 187V179.58H214.148V181.596L214.022 181.092C214.227 180.579 214.573 180.187 215.058 179.916C215.543 179.645 216.141 179.51 216.85 179.51V180.812C216.794 180.803 216.738 180.798 216.682 180.798C216.635 180.798 216.589 180.798 216.542 180.798C215.823 180.798 215.254 181.013 214.834 181.442C214.414 181.871 214.204 182.492 214.204 183.304V187H212.86ZM220.716 187.084C220.1 187.084 219.512 187 218.952 186.832C218.402 186.664 217.968 186.459 217.65 186.216L218.21 185.152C218.528 185.367 218.92 185.549 219.386 185.698C219.853 185.847 220.329 185.922 220.814 185.922C221.44 185.922 221.888 185.833 222.158 185.656C222.438 185.479 222.578 185.231 222.578 184.914C222.578 184.681 222.494 184.499 222.326 184.368C222.158 184.237 221.934 184.139 221.654 184.074C221.384 184.009 221.08 183.953 220.744 183.906C220.408 183.85 220.072 183.785 219.736 183.71C219.4 183.626 219.092 183.514 218.812 183.374C218.532 183.225 218.308 183.024 218.14 182.772C217.972 182.511 217.888 182.165 217.888 181.736C217.888 181.288 218.014 180.896 218.266 180.56C218.518 180.224 218.873 179.967 219.33 179.79C219.797 179.603 220.348 179.51 220.982 179.51C221.468 179.51 221.958 179.571 222.452 179.692C222.956 179.804 223.367 179.967 223.684 180.182L223.11 181.246C222.774 181.022 222.424 180.868 222.06 180.784C221.696 180.7 221.332 180.658 220.968 180.658C220.38 180.658 219.942 180.756 219.652 180.952C219.363 181.139 219.218 181.381 219.218 181.68C219.218 181.932 219.302 182.128 219.47 182.268C219.648 182.399 219.872 182.501 220.142 182.576C220.422 182.651 220.73 182.716 221.066 182.772C221.402 182.819 221.738 182.884 222.074 182.968C222.41 183.043 222.714 183.15 222.984 183.29C223.264 183.43 223.488 183.626 223.656 183.878C223.834 184.13 223.922 184.466 223.922 184.886C223.922 185.334 223.792 185.721 223.53 186.048C223.269 186.375 222.9 186.631 222.424 186.818C221.948 186.995 221.379 187.084 220.716 187.084Z" fill="#4B4B4B"/>
<circle cx="81" cy="247" r="25" fill="#C625FF" fill-opacity="0.1"/>
<circle cx="81" cy="247" r="24.5" stroke="#C625FF" stroke-opacity="0.5"/>
<path d="M60.0382 253.679C58.4595 254.181 57.5712 255.879 58.2596 257.386C59.7935 260.745 62.058 263.734 64.9019 266.127C68.5137 269.167 72.9123 271.122 77.5889 271.766C82.2655 272.41 87.0289 271.717 91.3279 269.767C95.627 267.817 99.286 264.689 101.882 260.746C104.477 256.803 105.904 252.206 105.995 247.486C106.087 242.766 104.841 238.117 102.4 234.076C99.9595 230.035 96.4248 226.767 92.2047 224.652C88.8819 222.986 85.2412 222.087 81.5498 222.006C79.8934 221.97 78.6852 223.457 78.8473 225.106L79.2387 229.086C79.4008 230.735 80.879 231.909 82.5273 232.078C84.3284 232.262 86.0896 232.772 87.7228 233.591C90.2549 234.86 92.3757 236.821 93.84 239.245C95.3043 241.67 96.0522 244.46 95.9972 247.291C95.9421 250.123 95.0864 252.882 93.529 255.248C91.9716 257.613 89.7762 259.49 87.1968 260.66C84.6173 261.83 81.7593 262.246 78.9533 261.86C76.1474 261.473 73.5082 260.3 71.3411 258.476C69.9433 257.3 68.7788 255.884 67.8974 254.302C67.0908 252.855 65.4281 251.961 63.8494 252.464L60.0382 253.679Z" fill="#C625FF"/>
<path d="M130.98 241.38V232.62H132.66V241.38H130.98ZM127.34 237.8V236.22H136.3V237.8H127.34ZM146.332 244V230.8L147.192 231.74H143.172V230H148.312V244H146.332ZM157.094 244.16C156.001 244.16 155.021 243.88 154.154 243.32C153.301 242.76 152.621 241.947 152.114 240.88C151.621 239.813 151.374 238.52 151.374 237C151.374 235.48 151.621 234.187 152.114 233.12C152.621 232.053 153.301 231.24 154.154 230.68C155.021 230.12 156.001 229.84 157.094 229.84C158.174 229.84 159.147 230.12 160.014 230.68C160.881 231.24 161.561 232.053 162.054 233.12C162.547 234.187 162.794 235.48 162.794 237C162.794 238.52 162.547 239.813 162.054 240.88C161.561 241.947 160.881 242.76 160.014 243.32C159.147 243.88 158.174 244.16 157.094 244.16ZM157.094 242.38C157.827 242.38 158.467 242.18 159.014 241.78C159.574 241.38 160.007 240.78 160.314 239.98C160.634 239.18 160.794 238.187 160.794 237C160.794 235.813 160.634 234.82 160.314 234.02C160.007 233.22 159.574 232.62 159.014 232.22C158.467 231.82 157.827 231.62 157.094 231.62C156.361 231.62 155.714 231.82 155.154 232.22C154.594 232.62 154.154 233.22 153.834 234.02C153.527 234.82 153.374 235.813 153.374 237C153.374 238.187 153.527 239.18 153.834 239.98C154.154 240.78 154.594 241.38 155.154 241.78C155.714 242.18 156.361 242.38 157.094 242.38ZM164.58 246.96L165.58 242.92L165.84 244.08C165.453 244.08 165.126 243.96 164.86 243.72C164.606 243.48 164.48 243.153 164.48 242.74C164.48 242.34 164.606 242.013 164.86 241.76C165.126 241.507 165.446 241.38 165.82 241.38C166.206 241.38 166.52 241.513 166.76 241.78C167 242.033 167.12 242.353 167.12 242.74C167.12 242.873 167.106 243.007 167.08 243.14C167.066 243.26 167.033 243.407 166.98 243.58C166.94 243.74 166.873 243.94 166.78 244.18L165.84 246.96H164.58ZM173.531 244.16C172.544 244.16 171.584 244.007 170.651 243.7C169.731 243.393 168.977 242.98 168.391 242.46L169.311 240.88C169.777 241.32 170.384 241.68 171.131 241.96C171.877 242.24 172.671 242.38 173.511 242.38C174.577 242.38 175.397 242.153 175.971 241.7C176.544 241.247 176.831 240.64 176.831 239.88C176.831 239.36 176.704 238.907 176.451 238.52C176.197 238.133 175.757 237.84 175.131 237.64C174.517 237.427 173.671 237.32 172.591 237.32H169.411L170.151 230H178.051V231.74H170.891L171.931 230.76L171.351 236.54L170.311 235.58H173.011C174.411 235.58 175.537 235.76 176.391 236.12C177.244 236.48 177.864 236.98 178.251 237.62C178.637 238.247 178.831 238.973 178.831 239.8C178.831 240.6 178.637 241.333 178.251 242C177.864 242.653 177.277 243.18 176.491 243.58C175.717 243.967 174.731 244.16 173.531 244.16ZM185.955 244.16C184.822 244.16 183.842 243.993 183.015 243.66C182.188 243.327 181.548 242.853 181.095 242.24C180.642 241.613 180.415 240.88 180.415 240.04C180.415 239.213 180.628 238.513 181.055 237.94C181.495 237.353 182.128 236.913 182.955 236.62C183.782 236.313 184.782 236.16 185.955 236.16C187.128 236.16 188.128 236.313 188.955 236.62C189.795 236.913 190.435 237.353 190.875 237.94C191.315 238.527 191.535 239.227 191.535 240.04C191.535 240.88 191.308 241.613 190.855 242.24C190.402 242.853 189.755 243.327 188.915 243.66C188.075 243.993 187.088 244.16 185.955 244.16ZM185.955 242.54C187.075 242.54 187.948 242.313 188.575 241.86C189.215 241.393 189.535 240.767 189.535 239.98C189.535 239.207 189.215 238.6 188.575 238.16C187.948 237.707 187.075 237.48 185.955 237.48C184.848 237.48 183.982 237.707 183.355 238.16C182.728 238.6 182.415 239.207 182.415 239.98C182.415 240.767 182.728 241.393 183.355 241.86C183.982 242.313 184.848 242.54 185.955 242.54ZM185.955 237.24C184.888 237.24 183.982 237.1 183.235 236.82C182.488 236.527 181.915 236.113 181.515 235.58C181.115 235.033 180.915 234.387 180.915 233.64C180.915 232.853 181.122 232.18 181.535 231.62C181.962 231.047 182.555 230.607 183.315 230.3C184.075 229.993 184.955 229.84 185.955 229.84C186.968 229.84 187.855 229.993 188.615 230.3C189.375 230.607 189.968 231.047 190.395 231.62C190.822 232.18 191.035 232.853 191.035 233.64C191.035 234.387 190.835 235.033 190.435 235.58C190.035 236.113 189.455 236.527 188.695 236.82C187.935 237.1 187.022 237.24 185.955 237.24ZM185.955 235.96C186.928 235.96 187.688 235.76 188.235 235.36C188.795 234.96 189.075 234.413 189.075 233.72C189.075 233.013 188.788 232.46 188.215 232.06C187.642 231.66 186.888 231.46 185.955 231.46C185.022 231.46 184.275 231.66 183.715 232.06C183.168 232.46 182.895 233.013 182.895 233.72C182.895 234.413 183.162 234.96 183.695 235.36C184.242 235.76 184.995 235.96 185.955 235.96ZM197.646 244.16C196.66 244.16 195.7 244.007 194.766 243.7C193.846 243.393 193.093 242.98 192.506 242.46L193.426 240.88C193.893 241.32 194.5 241.68 195.246 241.96C195.993 242.24 196.793 242.38 197.646 242.38C198.686 242.38 199.493 242.16 200.066 241.72C200.653 241.267 200.946 240.66 200.946 239.9C200.946 239.167 200.666 238.58 200.106 238.14C199.56 237.687 198.686 237.46 197.486 237.46H196.366V236.06L200.526 230.94L200.806 231.74H193.146V230H202.386V231.36L198.246 236.46L197.206 235.84H197.866C199.56 235.84 200.826 236.22 201.666 236.98C202.52 237.74 202.946 238.707 202.946 239.88C202.946 240.667 202.753 241.387 202.366 242.04C201.98 242.693 201.393 243.213 200.606 243.6C199.833 243.973 198.846 244.16 197.646 244.16Z" fill="black"/>
<path d="M127.47 267V257.2H128.618L135.1 265.25H134.498V257.2H135.898V267H134.75L128.268 258.95H128.87V267H127.47ZM141.813 267.084C141.067 267.084 140.404 266.921 139.825 266.594C139.247 266.267 138.789 265.819 138.453 265.25C138.117 264.671 137.949 264.018 137.949 263.29C137.949 262.553 138.117 261.899 138.453 261.33C138.789 260.761 139.247 260.317 139.825 260C140.404 259.673 141.067 259.51 141.813 259.51C142.551 259.51 143.209 259.673 143.787 260C144.375 260.317 144.833 260.761 145.159 261.33C145.495 261.89 145.663 262.543 145.663 263.29C145.663 264.027 145.495 264.681 145.159 265.25C144.833 265.819 144.375 266.267 143.787 266.594C143.209 266.921 142.551 267.084 141.813 267.084ZM141.813 265.908C142.289 265.908 142.714 265.801 143.087 265.586C143.47 265.371 143.769 265.068 143.983 264.676C144.198 264.275 144.305 263.813 144.305 263.29C144.305 262.758 144.198 262.301 143.983 261.918C143.769 261.526 143.47 261.223 143.087 261.008C142.714 260.793 142.289 260.686 141.813 260.686C141.337 260.686 140.913 260.793 140.539 261.008C140.166 261.223 139.867 261.526 139.643 261.918C139.419 262.301 139.307 262.758 139.307 263.29C139.307 263.813 139.419 264.275 139.643 264.676C139.867 265.068 140.166 265.371 140.539 265.586C140.913 265.801 141.337 265.908 141.813 265.908ZM147.68 267.084C147.419 267.084 147.195 266.995 147.008 266.818C146.821 266.631 146.728 266.398 146.728 266.118C146.728 265.838 146.821 265.609 147.008 265.432C147.195 265.255 147.419 265.166 147.68 265.166C147.932 265.166 148.147 265.255 148.324 265.432C148.511 265.609 148.604 265.838 148.604 266.118C148.604 266.398 148.511 266.631 148.324 266.818C148.147 266.995 147.932 267.084 147.68 267.084ZM157.468 267.084C156.721 267.084 156.058 266.921 155.48 266.594C154.901 266.267 154.444 265.819 154.108 265.25C153.772 264.671 153.604 264.018 153.604 263.29C153.604 262.553 153.772 261.899 154.108 261.33C154.444 260.761 154.901 260.317 155.48 260C156.058 259.673 156.721 259.51 157.468 259.51C158.205 259.51 158.863 259.673 159.442 260C160.03 260.317 160.487 260.761 160.814 261.33C161.15 261.89 161.318 262.543 161.318 263.29C161.318 264.027 161.15 264.681 160.814 265.25C160.487 265.819 160.03 266.267 159.442 266.594C158.863 266.921 158.205 267.084 157.468 267.084ZM157.468 265.908C157.944 265.908 158.368 265.801 158.742 265.586C159.124 265.371 159.423 265.068 159.638 264.676C159.852 264.275 159.96 263.813 159.96 263.29C159.96 262.758 159.852 262.301 159.638 261.918C159.423 261.526 159.124 261.223 158.742 261.008C158.368 260.793 157.944 260.686 157.468 260.686C156.992 260.686 156.567 260.793 156.194 261.008C155.82 261.223 155.522 261.526 155.298 261.918C155.074 262.301 154.962 262.758 154.962 263.29C154.962 263.813 155.074 264.275 155.298 264.676C155.522 265.068 155.82 265.371 156.194 265.586C156.567 265.801 156.992 265.908 157.468 265.908ZM163.372 267V258.922C163.372 258.194 163.582 257.615 164.002 257.186C164.432 256.747 165.038 256.528 165.822 256.528C166.112 256.528 166.387 256.565 166.648 256.64C166.919 256.705 167.148 256.813 167.334 256.962L166.928 257.984C166.788 257.872 166.63 257.788 166.452 257.732C166.275 257.667 166.088 257.634 165.892 257.634C165.5 257.634 165.202 257.746 164.996 257.97C164.791 258.185 164.688 258.507 164.688 258.936V259.93L164.716 260.546V267H163.372ZM162.112 260.686V259.58H166.844V260.686H162.112ZM176.45 267.112C175.703 267.112 175.012 266.991 174.378 266.748C173.752 266.496 173.206 266.146 172.74 265.698C172.282 265.241 171.923 264.709 171.662 264.102C171.4 263.495 171.27 262.828 171.27 262.1C171.27 261.372 171.4 260.705 171.662 260.098C171.923 259.491 172.287 258.964 172.754 258.516C173.22 258.059 173.766 257.709 174.392 257.466C175.026 257.214 175.717 257.088 176.464 257.088C177.22 257.088 177.915 257.219 178.55 257.48C179.194 257.732 179.74 258.11 180.188 258.614L179.278 259.496C178.904 259.104 178.484 258.815 178.018 258.628C177.551 258.432 177.052 258.334 176.52 258.334C175.969 258.334 175.456 258.427 174.98 258.614C174.513 258.801 174.107 259.062 173.762 259.398C173.416 259.734 173.146 260.135 172.95 260.602C172.763 261.059 172.67 261.559 172.67 262.1C172.67 262.641 172.763 263.145 172.95 263.612C173.146 264.069 173.416 264.466 173.762 264.802C174.107 265.138 174.513 265.399 174.98 265.586C175.456 265.773 175.969 265.866 176.52 265.866C177.052 265.866 177.551 265.773 178.018 265.586C178.484 265.39 178.904 265.091 179.278 264.69L180.188 265.572C179.74 266.076 179.194 266.459 178.55 266.72C177.915 266.981 177.215 267.112 176.45 267.112ZM184.878 267.084C184.244 267.084 183.684 266.967 183.198 266.734C182.722 266.501 182.349 266.146 182.078 265.67C181.817 265.185 181.686 264.578 181.686 263.85V259.58H183.03V263.696C183.03 264.424 183.203 264.97 183.548 265.334C183.903 265.698 184.398 265.88 185.032 265.88C185.499 265.88 185.905 265.787 186.25 265.6C186.596 265.404 186.862 265.124 187.048 264.76C187.235 264.387 187.328 263.939 187.328 263.416V259.58H188.672V267H187.398V264.998L187.608 265.53C187.366 266.025 187.002 266.407 186.516 266.678C186.031 266.949 185.485 267.084 184.878 267.084ZM193.359 267.084C192.743 267.084 192.155 267 191.595 266.832C191.044 266.664 190.61 266.459 190.293 266.216L190.853 265.152C191.17 265.367 191.562 265.549 192.029 265.698C192.496 265.847 192.972 265.922 193.457 265.922C194.082 265.922 194.53 265.833 194.801 265.656C195.081 265.479 195.221 265.231 195.221 264.914C195.221 264.681 195.137 264.499 194.969 264.368C194.801 264.237 194.577 264.139 194.297 264.074C194.026 264.009 193.723 263.953 193.387 263.906C193.051 263.85 192.715 263.785 192.379 263.71C192.043 263.626 191.735 263.514 191.455 263.374C191.175 263.225 190.951 263.024 190.783 262.772C190.615 262.511 190.531 262.165 190.531 261.736C190.531 261.288 190.657 260.896 190.909 260.56C191.161 260.224 191.516 259.967 191.973 259.79C192.44 259.603 192.99 259.51 193.625 259.51C194.11 259.51 194.6 259.571 195.095 259.692C195.599 259.804 196.01 259.967 196.327 260.182L195.753 261.246C195.417 261.022 195.067 260.868 194.703 260.784C194.339 260.7 193.975 260.658 193.611 260.658C193.023 260.658 192.584 260.756 192.295 260.952C192.006 261.139 191.861 261.381 191.861 261.68C191.861 261.932 191.945 262.128 192.113 262.268C192.29 262.399 192.514 262.501 192.785 262.576C193.065 262.651 193.373 262.716 193.709 262.772C194.045 262.819 194.381 262.884 194.717 262.968C195.053 263.043 195.356 263.15 195.627 263.29C195.907 263.43 196.131 263.626 196.299 263.878C196.476 264.13 196.565 264.466 196.565 264.886C196.565 265.334 196.434 265.721 196.173 266.048C195.912 266.375 195.543 266.631 195.067 266.818C194.591 266.995 194.022 267.084 193.359 267.084ZM200.793 267.084C200.046 267.084 199.467 266.883 199.057 266.482C198.646 266.081 198.441 265.507 198.441 264.76V257.956H199.785V264.704C199.785 265.105 199.883 265.413 200.079 265.628C200.284 265.843 200.573 265.95 200.947 265.95C201.367 265.95 201.717 265.833 201.997 265.6L202.417 266.566C202.211 266.743 201.964 266.874 201.675 266.958C201.395 267.042 201.101 267.084 200.793 267.084ZM197.181 260.686V259.58H201.913V260.686H197.181ZM206.973 267.084C206.227 267.084 205.564 266.921 204.985 266.594C204.407 266.267 203.949 265.819 203.613 265.25C203.277 264.671 203.109 264.018 203.109 263.29C203.109 262.553 203.277 261.899 203.613 261.33C203.949 260.761 204.407 260.317 204.985 260C205.564 259.673 206.227 259.51 206.973 259.51C207.711 259.51 208.369 259.673 208.947 260C209.535 260.317 209.993 260.761 210.319 261.33C210.655 261.89 210.823 262.543 210.823 263.29C210.823 264.027 210.655 264.681 210.319 265.25C209.993 265.819 209.535 266.267 208.947 266.594C208.369 266.921 207.711 267.084 206.973 267.084ZM206.973 265.908C207.449 265.908 207.874 265.801 208.247 265.586C208.63 265.371 208.929 265.068 209.143 264.676C209.358 264.275 209.465 263.813 209.465 263.29C209.465 262.758 209.358 262.301 209.143 261.918C208.929 261.526 208.63 261.223 208.247 261.008C207.874 260.793 207.449 260.686 206.973 260.686C206.497 260.686 206.073 260.793 205.699 261.008C205.326 261.223 205.027 261.526 204.803 261.918C204.579 262.301 204.467 262.758 204.467 263.29C204.467 263.813 204.579 264.275 204.803 264.676C205.027 265.068 205.326 265.371 205.699 265.586C206.073 265.801 206.497 265.908 206.973 265.908ZM221.964 259.51C222.562 259.51 223.089 259.627 223.546 259.86C224.004 260.093 224.358 260.448 224.61 260.924C224.872 261.4 225.002 262.002 225.002 262.73V267H223.658V262.884C223.658 262.165 223.49 261.624 223.154 261.26C222.818 260.896 222.347 260.714 221.74 260.714C221.292 260.714 220.9 260.807 220.564 260.994C220.228 261.181 219.967 261.456 219.78 261.82C219.603 262.184 219.514 262.637 219.514 263.178V267H218.17V262.884C218.17 262.165 218.002 261.624 217.666 261.26C217.34 260.896 216.868 260.714 216.252 260.714C215.814 260.714 215.426 260.807 215.09 260.994C214.754 261.181 214.493 261.456 214.306 261.82C214.12 262.184 214.026 262.637 214.026 263.178V267H212.682V259.58H213.97V261.554L213.76 261.05C213.994 260.565 214.353 260.187 214.838 259.916C215.324 259.645 215.888 259.51 216.532 259.51C217.242 259.51 217.853 259.687 218.366 260.042C218.88 260.387 219.216 260.915 219.374 261.624L218.828 261.4C219.052 260.831 219.444 260.373 220.004 260.028C220.564 259.683 221.218 259.51 221.964 259.51ZM230.779 267.084C229.986 267.084 229.286 266.921 228.679 266.594C228.082 266.267 227.615 265.819 227.279 265.25C226.953 264.681 226.789 264.027 226.789 263.29C226.789 262.553 226.948 261.899 227.265 261.33C227.592 260.761 228.035 260.317 228.595 260C229.165 259.673 229.804 259.51 230.513 259.51C231.232 259.51 231.867 259.669 232.417 259.986C232.968 260.303 233.397 260.751 233.705 261.33C234.023 261.899 234.181 262.567 234.181 263.332C234.181 263.388 234.177 263.453 234.167 263.528C234.167 263.603 234.163 263.673 234.153 263.738H227.839V262.772H233.453L232.907 263.108C232.917 262.632 232.819 262.207 232.613 261.834C232.408 261.461 232.123 261.171 231.759 260.966C231.405 260.751 230.989 260.644 230.513 260.644C230.047 260.644 229.631 260.751 229.267 260.966C228.903 261.171 228.619 261.465 228.413 261.848C228.208 262.221 228.105 262.651 228.105 263.136V263.36C228.105 263.855 228.217 264.298 228.441 264.69C228.675 265.073 228.997 265.371 229.407 265.586C229.818 265.801 230.289 265.908 230.821 265.908C231.26 265.908 231.657 265.833 232.011 265.684C232.375 265.535 232.693 265.311 232.963 265.012L233.705 265.88C233.369 266.272 232.949 266.571 232.445 266.776C231.951 266.981 231.395 267.084 230.779 267.084ZM236.047 267V259.58H237.335V261.596L237.209 261.092C237.415 260.579 237.76 260.187 238.245 259.916C238.731 259.645 239.328 259.51 240.037 259.51V260.812C239.981 260.803 239.925 260.798 239.869 260.798C239.823 260.798 239.776 260.798 239.729 260.798C239.011 260.798 238.441 261.013 238.021 261.442C237.601 261.871 237.391 262.492 237.391 263.304V267H236.047ZM243.904 267.084C243.288 267.084 242.7 267 242.14 266.832C241.589 266.664 241.155 266.459 240.838 266.216L241.398 265.152C241.715 265.367 242.107 265.549 242.574 265.698C243.041 265.847 243.517 265.922 244.002 265.922C244.627 265.922 245.075 265.833 245.346 265.656C245.626 265.479 245.766 265.231 245.766 264.914C245.766 264.681 245.682 264.499 245.514 264.368C245.346 264.237 245.122 264.139 244.842 264.074C244.571 264.009 244.268 263.953 243.932 263.906C243.596 263.85 243.26 263.785 242.924 263.71C242.588 263.626 242.28 263.514 242 263.374C241.72 263.225 241.496 263.024 241.328 262.772C241.16 262.511 241.076 262.165 241.076 261.736C241.076 261.288 241.202 260.896 241.454 260.56C241.706 260.224 242.061 259.967 242.518 259.79C242.985 259.603 243.535 259.51 244.17 259.51C244.655 259.51 245.145 259.571 245.64 259.692C246.144 259.804 246.555 259.967 246.872 260.182L246.298 261.246C245.962 261.022 245.612 260.868 245.248 260.784C244.884 260.7 244.52 260.658 244.156 260.658C243.568 260.658 243.129 260.756 242.84 260.952C242.551 261.139 242.406 261.381 242.406 261.68C242.406 261.932 242.49 262.128 242.658 262.268C242.835 262.399 243.059 262.501 243.33 262.576C243.61 262.651 243.918 262.716 244.254 262.772C244.59 262.819 244.926 262.884 245.262 262.968C245.598 263.043 245.901 263.15 246.172 263.29C246.452 263.43 246.676 263.626 246.844 263.878C247.021 264.13 247.11 264.466 247.11 264.886C247.11 265.334 246.979 265.721 246.718 266.048C246.457 266.375 246.088 266.631 245.612 266.818C245.136 266.995 244.567 267.084 243.904 267.084Z" fill="#4B4B4B"/>
<defs>
<linearGradient id="paint0_linear_1672_831" x1="15" y1="27" x2="317.789" y2="323.057" gradientUnits="userSpaceOnUse">
<stop stop-color="#FF865C"/>
<stop offset="1" stop-color="#FF5D25" stop-opacity="0"/>
</linearGradient>
</defs>
</svg>
