<svg width="348" height="347" viewBox="0 0 348 347" fill="none" xmlns="http://www.w3.org/2000/svg">
<rect x="20.5" y="0.5" width="307" height="346" rx="11.5" fill="white" stroke="#EAEAEE"/>
<rect x="0.5" y="0.5" width="347" height="328" rx="11.5" fill="white" stroke="#EAEAEE"/>
<path d="M21.68 37V25.8H22.992L28.016 34.264H27.312L32.272 25.8H33.584L33.6 37H32.064L32.048 28.216H32.416L28 35.64H27.264L22.816 28.216H23.216V37H21.68ZM42.0013 37V35.208L41.9213 34.872V31.816C41.9213 31.1653 41.7293 30.664 41.3453 30.312C40.9719 29.9493 40.4066 29.768 39.6493 29.768C39.1479 29.768 38.6573 29.8533 38.1773 30.024C37.6973 30.184 37.2919 30.4027 36.9613 30.68L36.3213 29.528C36.7586 29.176 37.2813 28.9093 37.8893 28.728C38.5079 28.536 39.1533 28.44 39.8253 28.44C40.9879 28.44 41.8839 28.7227 42.5133 29.288C43.1426 29.8533 43.4573 30.7173 43.4573 31.88V37H42.0013ZM39.2173 37.096C38.5879 37.096 38.0333 36.9893 37.5533 36.776C37.0839 36.5627 36.7213 36.2693 36.4653 35.896C36.2093 35.512 36.0813 35.08 36.0813 34.6C36.0813 34.1413 36.1879 33.7253 36.4013 33.352C36.6253 32.9787 36.9826 32.68 37.4733 32.456C37.9746 32.232 38.6466 32.12 39.4893 32.12H42.1773V33.224H39.5533C38.7853 33.224 38.2679 33.352 38.0013 33.608C37.7346 33.864 37.6013 34.1733 37.6013 34.536C37.6013 34.952 37.7666 35.288 38.0973 35.544C38.4279 35.7893 38.8866 35.912 39.4733 35.912C40.0493 35.912 40.5506 35.784 40.9773 35.528C41.4146 35.272 41.7293 34.8987 41.9213 34.408L42.2253 35.464C42.0226 35.9653 41.6653 36.3653 41.1533 36.664C40.6413 36.952 39.9959 37.096 39.2173 37.096ZM47.5478 34.952L47.5798 32.984L52.4598 28.52H54.3158L50.5718 32.2L49.7398 32.904L47.5478 34.952ZM46.2998 37V25.128H47.8358V37H46.2998ZM52.7798 37L49.4518 32.872L50.4438 31.64L54.6678 37H52.7798ZM59.5914 37.096C58.6847 37.096 57.8847 36.9093 57.1914 36.536C56.5087 36.1627 55.9754 35.6507 55.5914 35C55.218 34.3493 55.0314 33.6027 55.0314 32.76C55.0314 31.9173 55.2127 31.1707 55.5754 30.52C55.9487 29.8693 56.4554 29.3627 57.0954 29C57.746 28.6267 58.4767 28.44 59.2874 28.44C60.1087 28.44 60.834 28.6213 61.4634 28.984C62.0927 29.3467 62.5834 29.8587 62.9354 30.52C63.298 31.1707 63.4794 31.9333 63.4794 32.808C63.4794 32.872 63.474 32.9467 63.4634 33.032C63.4634 33.1173 63.458 33.1973 63.4474 33.272H56.2314V32.168H62.6474L62.0234 32.552C62.034 32.008 61.922 31.5227 61.6874 31.096C61.4527 30.6693 61.1274 30.3387 60.7114 30.104C60.306 29.8587 59.8314 29.736 59.2874 29.736C58.754 29.736 58.2794 29.8587 57.8634 30.104C57.4474 30.3387 57.122 30.6747 56.8874 31.112C56.6527 31.5387 56.5354 32.0293 56.5354 32.584V32.84C56.5354 33.4053 56.6634 33.912 56.9194 34.36C57.186 34.7973 57.554 35.1387 58.0234 35.384C58.4927 35.6293 59.0314 35.752 59.6394 35.752C60.1407 35.752 60.594 35.6667 60.9994 35.496C61.4154 35.3253 61.778 35.0693 62.0874 34.728L62.9354 35.72C62.5514 36.168 62.0714 36.5093 61.4954 36.744C60.93 36.9787 60.2954 37.096 59.5914 37.096ZM75.1731 37V35.208L75.0931 34.872V31.816C75.0931 31.1653 74.9011 30.664 74.5171 30.312C74.1438 29.9493 73.5785 29.768 72.8211 29.768C72.3198 29.768 71.8291 29.8533 71.3491 30.024C70.8691 30.184 70.4638 30.4027 70.1331 30.68L69.4931 29.528C69.9305 29.176 70.4531 28.9093 71.0611 28.728C71.6798 28.536 72.3251 28.44 72.9971 28.44C74.1598 28.44 75.0558 28.7227 75.6851 29.288C76.3145 29.8533 76.6291 30.7173 76.6291 31.88V37H75.1731ZM72.3891 37.096C71.7598 37.096 71.2051 36.9893 70.7251 36.776C70.2558 36.5627 69.8931 36.2693 69.6371 35.896C69.3811 35.512 69.2531 35.08 69.2531 34.6C69.2531 34.1413 69.3598 33.7253 69.5731 33.352C69.7971 32.9787 70.1545 32.68 70.6451 32.456C71.1465 32.232 71.8185 32.12 72.6611 32.12H75.3491V33.224H72.7251C71.9571 33.224 71.4398 33.352 71.1731 33.608C70.9065 33.864 70.7731 34.1733 70.7731 34.536C70.7731 34.952 70.9385 35.288 71.2691 35.544C71.5998 35.7893 72.0585 35.912 72.6451 35.912C73.2211 35.912 73.7225 35.784 74.1491 35.528C74.5865 35.272 74.9011 34.8987 75.0931 34.408L75.3971 35.464C75.1945 35.9653 74.8371 36.3653 74.3251 36.664C73.8131 36.952 73.1678 37.096 72.3891 37.096ZM87.4645 37.096C86.6005 37.096 85.8272 36.9093 85.1445 36.536C84.4725 36.1627 83.9445 35.6507 83.5605 35C83.1765 34.3493 82.9845 33.6027 82.9845 32.76C82.9845 31.9173 83.1765 31.1707 83.5605 30.52C83.9445 29.8693 84.4725 29.3627 85.1445 29C85.8272 28.6267 86.6005 28.44 87.4645 28.44C88.2325 28.44 88.9152 28.5947 89.5125 28.904C90.1205 29.2027 90.5898 29.6507 90.9205 30.248L89.7525 31C89.4752 30.584 89.1338 30.28 88.7285 30.088C88.3338 29.8853 87.9072 29.784 87.4485 29.784C86.8938 29.784 86.3978 29.9067 85.9605 30.152C85.5232 30.3973 85.1765 30.744 84.9205 31.192C84.6645 31.6293 84.5365 32.152 84.5365 32.76C84.5365 33.368 84.6645 33.896 84.9205 34.344C85.1765 34.792 85.5232 35.1387 85.9605 35.384C86.3978 35.6293 86.8938 35.752 87.4485 35.752C87.9072 35.752 88.3338 35.656 88.7285 35.464C89.1338 35.2613 89.4752 34.952 89.7525 34.536L90.9205 35.272C90.5898 35.8587 90.1205 36.312 89.5125 36.632C88.9152 36.9413 88.2325 37.096 87.4645 37.096ZM98.1731 37V35.208L98.0931 34.872V31.816C98.0931 31.1653 97.9011 30.664 97.5171 30.312C97.1438 29.9493 96.5785 29.768 95.8211 29.768C95.3198 29.768 94.8291 29.8533 94.3491 30.024C93.8691 30.184 93.4638 30.4027 93.1331 30.68L92.4931 29.528C92.9305 29.176 93.4531 28.9093 94.0611 28.728C94.6798 28.536 95.3251 28.44 95.9971 28.44C97.1598 28.44 98.0558 28.7227 98.6851 29.288C99.3145 29.8533 99.6291 30.7173 99.6291 31.88V37H98.1731ZM95.3891 37.096C94.7598 37.096 94.2051 36.9893 93.7251 36.776C93.2558 36.5627 92.8931 36.2693 92.6371 35.896C92.3811 35.512 92.2531 35.08 92.2531 34.6C92.2531 34.1413 92.3598 33.7253 92.5731 33.352C92.7971 32.9787 93.1545 32.68 93.6451 32.456C94.1465 32.232 94.8185 32.12 95.6611 32.12H98.3491V33.224H95.7251C94.9571 33.224 94.4398 33.352 94.1731 33.608C93.9065 33.864 93.7731 34.1733 93.7731 34.536C93.7731 34.952 93.9385 35.288 94.2691 35.544C94.5998 35.7893 95.0585 35.912 95.6451 35.912C96.2211 35.912 96.7225 35.784 97.1491 35.528C97.5865 35.272 97.9011 34.8987 98.0931 34.408L98.3971 35.464C98.1945 35.9653 97.8371 36.3653 97.3251 36.664C96.8131 36.952 96.1678 37.096 95.3891 37.096ZM102.472 37V25.128H104.008V37H102.472ZM106.94 37V25.128H108.476V37H106.94ZM118.154 37V27.192H114.314V25.8H123.578V27.192H119.738V37H118.154ZM127.854 37.096C127 37.096 126.243 36.9093 125.582 36.536C124.92 36.1627 124.398 35.6507 124.014 35C123.63 34.3387 123.438 33.592 123.438 32.76C123.438 31.9173 123.63 31.1707 124.014 30.52C124.398 29.8693 124.92 29.3627 125.582 29C126.243 28.6267 127 28.44 127.854 28.44C128.696 28.44 129.448 28.6267 130.11 29C130.782 29.3627 131.304 29.8693 131.678 30.52C132.062 31.16 132.254 31.9067 132.254 32.76C132.254 33.6027 132.062 34.3493 131.678 35C131.304 35.6507 130.782 36.1627 130.11 36.536C129.448 36.9093 128.696 37.096 127.854 37.096ZM127.854 35.752C128.398 35.752 128.883 35.6293 129.31 35.384C129.747 35.1387 130.088 34.792 130.334 34.344C130.579 33.8853 130.702 33.3573 130.702 32.76C130.702 32.152 130.579 31.6293 130.334 31.192C130.088 30.744 129.747 30.3973 129.31 30.152C128.883 29.9067 128.398 29.784 127.854 29.784C127.31 29.784 126.824 29.9067 126.398 30.152C125.971 30.3973 125.63 30.744 125.374 31.192C125.118 31.6293 124.99 32.152 124.99 32.76C124.99 33.3573 125.118 33.8853 125.374 34.344C125.63 34.792 125.971 35.1387 126.398 35.384C126.824 35.6293 127.31 35.752 127.854 35.752ZM137.882 37.096C137.061 37.096 136.325 36.9147 135.674 36.552C135.034 36.1893 134.527 35.6827 134.154 35.032C133.781 34.3813 133.594 33.624 133.594 32.76C133.594 31.896 133.781 31.144 134.154 30.504C134.527 29.8533 135.034 29.3467 135.674 28.984C136.325 28.6213 137.061 28.44 137.882 28.44C138.597 28.44 139.242 28.6 139.818 28.92C140.394 29.24 140.853 29.72 141.194 30.36C141.546 31 141.722 31.8 141.722 32.76C141.722 33.72 141.551 34.52 141.21 35.16C140.879 35.8 140.426 36.2853 139.85 36.616C139.274 36.936 138.618 37.096 137.882 37.096ZM138.01 35.752C138.543 35.752 139.023 35.6293 139.45 35.384C139.887 35.1387 140.229 34.792 140.474 34.344C140.73 33.8853 140.858 33.3573 140.858 32.76C140.858 32.152 140.73 31.6293 140.474 31.192C140.229 30.744 139.887 30.3973 139.45 30.152C139.023 29.9067 138.543 29.784 138.01 29.784C137.466 29.784 136.981 29.9067 136.554 30.152C136.127 30.3973 135.786 30.744 135.53 31.192C135.274 31.6293 135.146 32.152 135.146 32.76C135.146 33.3573 135.274 33.8853 135.53 34.344C135.786 34.792 136.127 35.1387 136.554 35.384C136.981 35.6293 137.466 35.752 138.01 35.752ZM140.906 37V34.712L141.002 32.744L140.842 30.776V25.128H142.378V37H140.906ZM150.548 37V35.208L150.468 34.872V31.816C150.468 31.1653 150.276 30.664 149.892 30.312C149.519 29.9493 148.953 29.768 148.196 29.768C147.695 29.768 147.204 29.8533 146.724 30.024C146.244 30.184 145.839 30.4027 145.508 30.68L144.868 29.528C145.305 29.176 145.828 28.9093 146.436 28.728C147.055 28.536 147.7 28.44 148.372 28.44C149.535 28.44 150.431 28.7227 151.06 29.288C151.689 29.8533 152.004 30.7173 152.004 31.88V37H150.548ZM147.764 37.096C147.135 37.096 146.58 36.9893 146.1 36.776C145.631 36.5627 145.268 36.2693 145.012 35.896C144.756 35.512 144.628 35.08 144.628 34.6C144.628 34.1413 144.735 33.7253 144.948 33.352C145.172 32.9787 145.529 32.68 146.02 32.456C146.521 32.232 147.193 32.12 148.036 32.12H150.724V33.224H148.1C147.332 33.224 146.815 33.352 146.548 33.608C146.281 33.864 146.148 34.1733 146.148 34.536C146.148 34.952 146.313 35.288 146.644 35.544C146.975 35.7893 147.433 35.912 148.02 35.912C148.596 35.912 149.097 35.784 149.524 35.528C149.961 35.272 150.276 34.8987 150.468 34.408L150.772 35.464C150.569 35.9653 150.212 36.3653 149.7 36.664C149.188 36.952 148.543 37.096 147.764 37.096ZM155.058 40.2C154.653 40.2 154.258 40.1307 153.874 39.992C153.49 39.864 153.16 39.672 152.882 39.416L153.538 38.264C153.752 38.4667 153.986 38.6213 154.242 38.728C154.498 38.8347 154.77 38.888 155.058 38.888C155.432 38.888 155.741 38.792 155.986 38.6C156.232 38.408 156.461 38.0667 156.674 37.576L157.202 36.408L157.362 36.216L160.69 28.52H162.194L158.082 37.848C157.837 38.4453 157.56 38.9147 157.25 39.256C156.952 39.5973 156.621 39.8373 156.258 39.976C155.896 40.1253 155.496 40.2 155.058 40.2ZM157.074 37.272L153.202 28.52H154.802L158.098 36.072L157.074 37.272Z" fill="#FF5D25"/>
<path d="M21.824 206V194.8H26.016C26.9653 194.8 27.7813 194.955 28.464 195.264C29.1467 195.563 29.6693 196 30.032 196.576C30.4053 197.141 30.592 197.829 30.592 198.64C30.592 199.429 30.4053 200.112 30.032 200.688C29.6693 201.253 29.1467 201.691 28.464 202C27.7813 202.309 26.9653 202.464 26.016 202.464H22.48L23.008 201.904V206H21.824ZM23.008 202L22.48 201.424H25.984C27.104 201.424 27.952 201.184 28.528 200.704C29.1147 200.213 29.408 199.525 29.408 198.64C29.408 197.744 29.1147 197.051 28.528 196.56C27.952 196.069 27.104 195.824 25.984 195.824H22.48L23.008 195.264V202ZM37.3564 197.52C38.039 197.52 38.6364 197.653 39.1484 197.92C39.671 198.176 40.0764 198.571 40.3644 199.104C40.663 199.637 40.8124 200.309 40.8124 201.12V206H39.6764V201.232C39.6764 200.347 39.4524 199.68 39.0044 199.232C38.567 198.773 37.9484 198.544 37.1484 198.544C36.551 198.544 36.0284 198.667 35.5804 198.912C35.143 199.147 34.8017 199.493 34.5564 199.952C34.3217 200.4 34.2044 200.944 34.2044 201.584V206H33.0684V194.128H34.2044V199.904L33.9804 199.472C34.247 198.864 34.6737 198.389 35.2604 198.048C35.847 197.696 36.5457 197.52 37.3564 197.52ZM47.3049 206.08C46.4942 206.08 45.7635 205.899 45.1129 205.536C44.4729 205.163 43.9662 204.656 43.5929 204.016C43.2195 203.365 43.0329 202.624 43.0329 201.792C43.0329 200.949 43.2195 200.208 43.5929 199.568C43.9662 198.928 44.4729 198.427 45.1129 198.064C45.7529 197.701 46.4835 197.52 47.3049 197.52C48.1369 197.52 48.8729 197.701 49.5129 198.064C50.1635 198.427 50.6702 198.928 51.0329 199.568C51.4062 200.208 51.5929 200.949 51.5929 201.792C51.5929 202.624 51.4062 203.365 51.0329 204.016C50.6702 204.656 50.1635 205.163 49.5129 205.536C48.8622 205.899 48.1262 206.08 47.3049 206.08ZM47.3049 205.072C47.9129 205.072 48.4515 204.939 48.9209 204.672C49.3902 204.395 49.7582 204.011 50.0249 203.52C50.3022 203.019 50.4409 202.443 50.4409 201.792C50.4409 201.131 50.3022 200.555 50.0249 200.064C49.7582 199.573 49.3902 199.195 48.9209 198.928C48.4515 198.651 47.9182 198.512 47.3209 198.512C46.7235 198.512 46.1902 198.651 45.7209 198.928C45.2515 199.195 44.8782 199.573 44.6009 200.064C44.3235 200.555 44.1849 201.131 44.1849 201.792C44.1849 202.443 44.3235 203.019 44.6009 203.52C44.8782 204.011 45.2515 204.395 45.7209 204.672C46.1902 204.939 46.7182 205.072 47.3049 205.072ZM58.2001 197.52C58.8828 197.52 59.4801 197.653 59.9921 197.92C60.5148 198.176 60.9201 198.571 61.2081 199.104C61.5068 199.637 61.6561 200.309 61.6561 201.12V206H60.5201V201.232C60.5201 200.347 60.2961 199.68 59.8481 199.232C59.4108 198.773 58.7921 198.544 57.9921 198.544C57.3948 198.544 56.8721 198.667 56.4241 198.912C55.9868 199.147 55.6455 199.493 55.4001 199.952C55.1655 200.4 55.0481 200.944 55.0481 201.584V206H53.9121V197.6H55.0001V199.904L54.8241 199.472C55.0908 198.864 55.5175 198.389 56.1041 198.048C56.6908 197.696 57.3895 197.52 58.2001 197.52ZM68.2926 206.08C67.418 206.08 66.65 205.899 65.9886 205.536C65.3273 205.163 64.81 204.656 64.4366 204.016C64.0633 203.365 63.8766 202.624 63.8766 201.792C63.8766 200.96 64.0526 200.224 64.4046 199.584C64.7673 198.944 65.258 198.443 65.8766 198.08C66.506 197.707 67.21 197.52 67.9886 197.52C68.778 197.52 69.4766 197.701 70.0846 198.064C70.7033 198.416 71.1886 198.917 71.5406 199.568C71.8926 200.208 72.0686 200.949 72.0686 201.792C72.0686 201.845 72.0633 201.904 72.0526 201.968C72.0526 202.021 72.0526 202.08 72.0526 202.144H64.7406V201.296H71.4446L70.9966 201.632C70.9966 201.024 70.8633 200.485 70.5966 200.016C70.3406 199.536 69.9886 199.163 69.5406 198.896C69.0926 198.629 68.5753 198.496 67.9886 198.496C67.4126 198.496 66.8953 198.629 66.4366 198.896C65.978 199.163 65.6206 199.536 65.3646 200.016C65.1086 200.496 64.9806 201.045 64.9806 201.664V201.84C64.9806 202.48 65.1193 203.045 65.3966 203.536C65.6846 204.016 66.0793 204.395 66.5806 204.672C67.0926 204.939 67.674 205.072 68.3246 205.072C68.8366 205.072 69.3113 204.981 69.7486 204.8C70.1966 204.619 70.5806 204.341 70.9006 203.968L71.5406 204.704C71.1673 205.152 70.698 205.493 70.1326 205.728C69.578 205.963 68.9646 206.08 68.2926 206.08ZM82.0564 206.08C81.2244 206.08 80.4777 205.899 79.8164 205.536C79.1657 205.163 78.6537 204.656 78.2804 204.016C77.907 203.365 77.7204 202.624 77.7204 201.792C77.7204 200.949 77.907 200.208 78.2804 199.568C78.6537 198.928 79.1657 198.427 79.8164 198.064C80.4777 197.701 81.2244 197.52 82.0564 197.52C82.771 197.52 83.4164 197.659 83.9924 197.936C84.5684 198.213 85.0217 198.629 85.3524 199.184L84.5044 199.76C84.2164 199.333 83.859 199.019 83.4324 198.816C83.0057 198.613 82.5417 198.512 82.0404 198.512C81.443 198.512 80.9044 198.651 80.4244 198.928C79.9444 199.195 79.5657 199.573 79.2884 200.064C79.011 200.555 78.8724 201.131 78.8724 201.792C78.8724 202.453 79.011 203.029 79.2884 203.52C79.5657 204.011 79.9444 204.395 80.4244 204.672C80.9044 204.939 81.443 205.072 82.0404 205.072C82.5417 205.072 83.0057 204.971 83.4324 204.768C83.859 204.565 84.2164 204.256 84.5044 203.84L85.3524 204.416C85.0217 204.96 84.5684 205.376 83.9924 205.664C83.4164 205.941 82.771 206.08 82.0564 206.08ZM92.848 206V204.144L92.8 203.84V200.736C92.8 200.021 92.5973 199.472 92.192 199.088C91.7973 198.704 91.2053 198.512 90.416 198.512C89.872 198.512 89.3547 198.603 88.864 198.784C88.3733 198.965 87.9573 199.205 87.616 199.504L87.104 198.656C87.5307 198.293 88.0427 198.016 88.64 197.824C89.2373 197.621 89.8667 197.52 90.528 197.52C91.616 197.52 92.4533 197.792 93.04 198.336C93.6373 198.869 93.936 199.685 93.936 200.784V206H92.848ZM89.952 206.08C89.3227 206.08 88.7733 205.979 88.304 205.776C87.8453 205.563 87.4933 205.275 87.248 204.912C87.0027 204.539 86.88 204.112 86.88 203.632C86.88 203.195 86.9813 202.8 87.184 202.448C87.3973 202.085 87.7387 201.797 88.208 201.584C88.688 201.36 89.328 201.248 90.128 201.248H93.024V202.096H90.16C89.3493 202.096 88.784 202.24 88.464 202.528C88.1547 202.816 88 203.173 88 203.6C88 204.08 88.1867 204.464 88.56 204.752C88.9333 205.04 89.456 205.184 90.128 205.184C90.768 205.184 91.3173 205.04 91.776 204.752C92.2453 204.453 92.5867 204.027 92.8 203.472L93.056 204.256C92.8427 204.811 92.4693 205.253 91.936 205.584C91.4133 205.915 90.752 206.08 89.952 206.08ZM97.0215 206V194.128H98.1575V206H97.0215ZM101.318 206V194.128H102.454V206H101.318ZM107.551 209.104C106.965 208.133 106.506 207.013 106.175 205.744C105.855 204.464 105.695 203.088 105.695 201.616C105.695 200.144 105.855 198.768 106.175 197.488C106.506 196.197 106.965 195.077 107.551 194.128H108.639C108.01 195.227 107.546 196.395 107.247 197.632C106.959 198.859 106.815 200.187 106.815 201.616C106.815 203.045 106.959 204.379 107.247 205.616C107.546 206.843 108.01 208.005 108.639 209.104H107.551ZM113.137 206.08C112.444 206.08 111.788 205.984 111.169 205.792C110.55 205.589 110.065 205.339 109.713 205.04L110.225 204.144C110.566 204.4 111.004 204.624 111.537 204.816C112.07 204.997 112.63 205.088 113.217 205.088C114.017 205.088 114.593 204.965 114.945 204.72C115.297 204.464 115.473 204.128 115.473 203.712C115.473 203.403 115.372 203.163 115.169 202.992C114.977 202.811 114.721 202.677 114.401 202.592C114.081 202.496 113.724 202.416 113.329 202.352C112.934 202.288 112.54 202.213 112.145 202.128C111.761 202.043 111.409 201.92 111.089 201.76C110.769 201.589 110.508 201.36 110.305 201.072C110.113 200.784 110.017 200.4 110.017 199.92C110.017 199.461 110.145 199.051 110.401 198.688C110.657 198.325 111.03 198.043 111.521 197.84C112.022 197.627 112.63 197.52 113.345 197.52C113.889 197.52 114.433 197.595 114.977 197.744C115.521 197.883 115.969 198.069 116.321 198.304L115.825 199.216C115.452 198.96 115.052 198.779 114.625 198.672C114.198 198.555 113.772 198.496 113.345 198.496C112.588 198.496 112.028 198.629 111.665 198.896C111.313 199.152 111.137 199.483 111.137 199.888C111.137 200.208 111.233 200.459 111.425 200.64C111.628 200.821 111.889 200.965 112.209 201.072C112.54 201.168 112.897 201.248 113.281 201.312C113.676 201.376 114.065 201.456 114.449 201.552C114.844 201.637 115.201 201.76 115.521 201.92C115.852 202.069 116.113 202.288 116.305 202.576C116.508 202.853 116.609 203.221 116.609 203.68C116.609 204.171 116.47 204.597 116.193 204.96C115.926 205.312 115.532 205.589 115.009 205.792C114.497 205.984 113.873 206.08 113.137 206.08ZM118.837 209.104H117.749C118.389 208.005 118.853 206.843 119.141 205.616C119.44 204.379 119.589 203.045 119.589 201.616C119.589 200.187 119.44 198.859 119.141 197.632C118.853 196.395 118.389 195.227 117.749 194.128H118.837C119.445 195.077 119.909 196.197 120.229 197.488C120.549 198.768 120.709 200.144 120.709 201.616C120.709 203.088 120.549 204.464 120.229 205.744C119.909 207.013 119.445 208.133 118.837 209.104Z" fill="black"/>
<path d="M21.26 70V61.6H22.244L27.8 68.5H27.284V61.6H28.484V70H27.5L21.944 63.1H22.46V70H21.26ZM34.7783 70V68.656L34.7183 68.404V66.112C34.7183 65.624 34.5743 65.248 34.2863 64.984C34.0063 64.712 33.5823 64.576 33.0143 64.576C32.6383 64.576 32.2703 64.64 31.9103 64.768C31.5503 64.888 31.2463 65.052 30.9983 65.26L30.5183 64.396C30.8463 64.132 31.2383 63.932 31.6943 63.796C32.1583 63.652 32.6423 63.58 33.1463 63.58C34.0183 63.58 34.6903 63.792 35.1623 64.216C35.6343 64.64 35.8703 65.288 35.8703 66.16V70H34.7783ZM32.6903 70.072C32.2183 70.072 31.8023 69.992 31.4423 69.832C31.0903 69.672 30.8183 69.452 30.6263 69.172C30.4343 68.884 30.3383 68.56 30.3383 68.2C30.3383 67.856 30.4183 67.544 30.5783 67.264C30.7463 66.984 31.0143 66.76 31.3823 66.592C31.7583 66.424 32.2623 66.34 32.8943 66.34H34.9103V67.168H32.9423C32.3663 67.168 31.9783 67.264 31.7783 67.456C31.5783 67.648 31.4783 67.88 31.4783 68.152C31.4783 68.464 31.6023 68.716 31.8503 68.908C32.0983 69.092 32.4423 69.184 32.8823 69.184C33.3143 69.184 33.6903 69.088 34.0103 68.896C34.3383 68.704 34.5743 68.424 34.7183 68.056L34.9463 68.848C34.7943 69.224 34.5263 69.524 34.1423 69.748C33.7583 69.964 33.2743 70.072 32.6903 70.072ZM45.9582 63.58C46.4702 63.58 46.9222 63.68 47.3142 63.88C47.7062 64.08 48.0102 64.384 48.2262 64.792C48.4502 65.2 48.5622 65.716 48.5622 66.34V70H47.4102V66.472C47.4102 65.856 47.2662 65.392 46.9782 65.08C46.6902 64.768 46.2862 64.612 45.7662 64.612C45.3822 64.612 45.0462 64.692 44.7582 64.852C44.4702 65.012 44.2462 65.248 44.0862 65.56C43.9342 65.872 43.8582 66.26 43.8582 66.724V70H42.7062V66.472C42.7062 65.856 42.5622 65.392 42.2742 65.08C41.9942 64.768 41.5902 64.612 41.0622 64.612C40.6862 64.612 40.3542 64.692 40.0662 64.852C39.7782 65.012 39.5542 65.248 39.3942 65.56C39.2342 65.872 39.1542 66.26 39.1542 66.724V70H38.0022V63.64H39.1062V65.332L38.9262 64.9C39.1262 64.484 39.4342 64.16 39.8502 63.928C40.2662 63.696 40.7502 63.58 41.3022 63.58C41.9102 63.58 42.4342 63.732 42.8742 64.036C43.3142 64.332 43.6022 64.784 43.7382 65.392L43.2702 65.2C43.4622 64.712 43.7982 64.32 44.2782 64.024C44.7582 63.728 45.3182 63.58 45.9582 63.58ZM53.5138 70.072C52.8338 70.072 52.2338 69.932 51.7138 69.652C51.2018 69.372 50.8018 68.988 50.5138 68.5C50.2338 68.012 50.0938 67.452 50.0938 66.82C50.0938 66.188 50.2298 65.628 50.5018 65.14C50.7818 64.652 51.1618 64.272 51.6418 64C52.1298 63.72 52.6778 63.58 53.2858 63.58C53.9018 63.58 54.4458 63.716 54.9178 63.988C55.3898 64.26 55.7578 64.644 56.0218 65.14C56.2938 65.628 56.4298 66.2 56.4298 66.856C56.4298 66.904 56.4258 66.96 56.4178 67.024C56.4178 67.088 56.4138 67.148 56.4058 67.204H50.9938V66.376H55.8058L55.3378 66.664C55.3458 66.256 55.2618 65.892 55.0858 65.572C54.9098 65.252 54.6658 65.004 54.3538 64.828C54.0498 64.644 53.6938 64.552 53.2858 64.552C52.8858 64.552 52.5298 64.644 52.2178 64.828C51.9058 65.004 51.6618 65.256 51.4858 65.584C51.3098 65.904 51.2218 66.272 51.2218 66.688V66.88C51.2218 67.304 51.3178 67.684 51.5098 68.02C51.7098 68.348 51.9858 68.604 52.3378 68.788C52.6898 68.972 53.0938 69.064 53.5498 69.064C53.9258 69.064 54.2658 69 54.5698 68.872C54.8818 68.744 55.1538 68.552 55.3858 68.296L56.0218 69.04C55.7338 69.376 55.3738 69.632 54.9418 69.808C54.5178 69.984 54.0418 70.072 53.5138 70.072Z" fill="#333333"/>
<path d="M31.26 98V89.6H32.244L37.8 96.5H37.284V89.6H38.484V98H37.5L31.944 91.1H32.46V98H31.26ZM44.7783 98V96.656L44.7183 96.404V94.112C44.7183 93.624 44.5743 93.248 44.2863 92.984C44.0063 92.712 43.5823 92.576 43.0143 92.576C42.6383 92.576 42.2703 92.64 41.9103 92.768C41.5503 92.888 41.2463 93.052 40.9983 93.26L40.5183 92.396C40.8463 92.132 41.2383 91.932 41.6943 91.796C42.1583 91.652 42.6423 91.58 43.1463 91.58C44.0183 91.58 44.6903 91.792 45.1623 92.216C45.6343 92.64 45.8703 93.288 45.8703 94.16V98H44.7783ZM42.6903 98.072C42.2183 98.072 41.8023 97.992 41.4423 97.832C41.0903 97.672 40.8183 97.452 40.6263 97.172C40.4343 96.884 40.3383 96.56 40.3383 96.2C40.3383 95.856 40.4183 95.544 40.5783 95.264C40.7463 94.984 41.0143 94.76 41.3823 94.592C41.7583 94.424 42.2623 94.34 42.8943 94.34H44.9103V95.168H42.9423C42.3663 95.168 41.9783 95.264 41.7783 95.456C41.5783 95.648 41.4783 95.88 41.4783 96.152C41.4783 96.464 41.6023 96.716 41.8503 96.908C42.0983 97.092 42.4423 97.184 42.8823 97.184C43.3143 97.184 43.6903 97.088 44.0103 96.896C44.3383 96.704 44.5743 96.424 44.7183 96.056L44.9463 96.848C44.7943 97.224 44.5263 97.524 44.1423 97.748C43.7583 97.964 43.2743 98.072 42.6903 98.072ZM49.553 98L46.769 91.64H47.969L50.441 97.4H49.865L52.385 91.64H53.513L50.729 98H49.553ZM57.2443 98.072C56.5643 98.072 55.9643 97.932 55.4443 97.652C54.9323 97.372 54.5323 96.988 54.2443 96.5C53.9643 96.012 53.8243 95.452 53.8243 94.82C53.8243 94.188 53.9603 93.628 54.2323 93.14C54.5123 92.652 54.8923 92.272 55.3723 92C55.8603 91.72 56.4083 91.58 57.0163 91.58C57.6323 91.58 58.1763 91.716 58.6483 91.988C59.1203 92.26 59.4883 92.644 59.7523 93.14C60.0243 93.628 60.1603 94.2 60.1603 94.856C60.1603 94.904 60.1563 94.96 60.1483 95.024C60.1483 95.088 60.1443 95.148 60.1363 95.204H54.7243V94.376H59.5363L59.0683 94.664C59.0763 94.256 58.9923 93.892 58.8163 93.572C58.6403 93.252 58.3963 93.004 58.0843 92.828C57.7803 92.644 57.4243 92.552 57.0163 92.552C56.6163 92.552 56.2603 92.644 55.9483 92.828C55.6363 93.004 55.3923 93.256 55.2163 93.584C55.0403 93.904 54.9523 94.272 54.9523 94.688V94.88C54.9523 95.304 55.0483 95.684 55.2403 96.02C55.4403 96.348 55.7163 96.604 56.0683 96.788C56.4203 96.972 56.8243 97.064 57.2803 97.064C57.6563 97.064 57.9963 97 58.3003 96.872C58.6123 96.744 58.8843 96.552 59.1163 96.296L59.7523 97.04C59.4643 97.376 59.1043 97.632 58.6723 97.808C58.2483 97.984 57.7723 98.072 57.2443 98.072ZM64.592 98.072C63.912 98.072 63.312 97.932 62.792 97.652C62.28 97.372 61.88 96.988 61.592 96.5C61.312 96.012 61.172 95.452 61.172 94.82C61.172 94.188 61.308 93.628 61.58 93.14C61.86 92.652 62.24 92.272 62.72 92C63.208 91.72 63.756 91.58 64.364 91.58C64.98 91.58 65.524 91.716 65.996 91.988C66.468 92.26 66.836 92.644 67.1 93.14C67.372 93.628 67.508 94.2 67.508 94.856C67.508 94.904 67.504 94.96 67.496 95.024C67.496 95.088 67.492 95.148 67.484 95.204H62.072V94.376H66.884L66.416 94.664C66.424 94.256 66.34 93.892 66.164 93.572C65.988 93.252 65.744 93.004 65.432 92.828C65.128 92.644 64.772 92.552 64.364 92.552C63.964 92.552 63.608 92.644 63.296 92.828C62.984 93.004 62.74 93.256 62.564 93.584C62.388 93.904 62.3 94.272 62.3 94.688V94.88C62.3 95.304 62.396 95.684 62.588 96.02C62.788 96.348 63.064 96.604 63.416 96.788C63.768 96.972 64.172 97.064 64.628 97.064C65.004 97.064 65.344 97 65.648 96.872C65.96 96.744 66.232 96.552 66.464 96.296L67.1 97.04C66.812 97.376 66.452 97.632 66.02 97.808C65.596 97.984 65.12 98.072 64.592 98.072ZM72.5036 91.58C73.0236 91.58 73.4796 91.68 73.8716 91.88C74.2716 92.08 74.5836 92.384 74.8076 92.792C75.0316 93.2 75.1436 93.716 75.1436 94.34V98H73.9916V94.472C73.9916 93.856 73.8396 93.392 73.5356 93.08C73.2396 92.768 72.8196 92.612 72.2756 92.612C71.8676 92.612 71.5116 92.692 71.2076 92.852C70.9036 93.012 70.6676 93.248 70.4996 93.56C70.3396 93.872 70.2596 94.26 70.2596 94.724V98H69.1076V91.64H70.2116V93.356L70.0316 92.9C70.2396 92.484 70.5596 92.16 70.9916 91.928C71.4236 91.696 71.9276 91.58 72.5036 91.58ZM81.7223 95.972L81.6623 94.508L86.4263 89.6H87.7943L84.1103 93.488L83.4383 94.232L81.7223 95.972ZM80.6663 98V89.6H81.8663V98H80.6663ZM86.6183 98L83.1743 93.992L83.9783 93.104L88.0223 98H86.6183ZM91.5883 98.072C91.0443 98.072 90.5643 97.972 90.1483 97.772C89.7403 97.572 89.4203 97.268 89.1883 96.86C88.9643 96.444 88.8523 95.924 88.8523 95.3V91.64H90.0043V95.168C90.0043 95.792 90.1523 96.26 90.4483 96.572C90.7523 96.884 91.1763 97.04 91.7203 97.04C92.1203 97.04 92.4683 96.96 92.7643 96.8C93.0603 96.632 93.2883 96.392 93.4483 96.08C93.6083 95.76 93.6883 95.376 93.6883 94.928V91.64H94.8403V98H93.7483V96.284L93.9283 96.74C93.7203 97.164 93.4083 97.492 92.9923 97.724C92.5763 97.956 92.1083 98.072 91.5883 98.072ZM104.989 91.58C105.501 91.58 105.953 91.68 106.345 91.88C106.737 92.08 107.041 92.384 107.257 92.792C107.481 93.2 107.593 93.716 107.593 94.34V98H106.441V94.472C106.441 93.856 106.297 93.392 106.009 93.08C105.721 92.768 105.317 92.612 104.797 92.612C104.413 92.612 104.077 92.692 103.789 92.852C103.501 93.012 103.277 93.248 103.117 93.56C102.965 93.872 102.889 94.26 102.889 94.724V98H101.737V94.472C101.737 93.856 101.593 93.392 101.305 93.08C101.025 92.768 100.621 92.612 100.093 92.612C99.7174 92.612 99.3854 92.692 99.0974 92.852C98.8094 93.012 98.5854 93.248 98.4254 93.56C98.2654 93.872 98.1854 94.26 98.1854 94.724V98H97.0334V91.64H98.1374V93.332L97.9574 92.9C98.1574 92.484 98.4654 92.16 98.8814 91.928C99.2974 91.696 99.7814 91.58 100.333 91.58C100.941 91.58 101.465 91.732 101.905 92.036C102.345 92.332 102.633 92.784 102.769 93.392L102.301 93.2C102.493 92.712 102.829 92.32 103.309 92.024C103.789 91.728 104.349 91.58 104.989 91.58ZM113.661 98V96.656L113.601 96.404V94.112C113.601 93.624 113.457 93.248 113.169 92.984C112.889 92.712 112.465 92.576 111.897 92.576C111.521 92.576 111.153 92.64 110.793 92.768C110.433 92.888 110.129 93.052 109.881 93.26L109.401 92.396C109.729 92.132 110.121 91.932 110.577 91.796C111.041 91.652 111.525 91.58 112.029 91.58C112.901 91.58 113.573 91.792 114.045 92.216C114.517 92.64 114.753 93.288 114.753 94.16V98H113.661ZM111.573 98.072C111.101 98.072 110.685 97.992 110.325 97.832C109.973 97.672 109.701 97.452 109.509 97.172C109.317 96.884 109.221 96.56 109.221 96.2C109.221 95.856 109.301 95.544 109.461 95.264C109.629 94.984 109.897 94.76 110.265 94.592C110.641 94.424 111.145 94.34 111.777 94.34H113.793V95.168H111.825C111.249 95.168 110.861 95.264 110.661 95.456C110.461 95.648 110.361 95.88 110.361 96.152C110.361 96.464 110.485 96.716 110.733 96.908C110.981 97.092 111.325 97.184 111.765 97.184C112.197 97.184 112.573 97.088 112.893 96.896C113.221 96.704 113.457 96.424 113.601 96.056L113.829 96.848C113.677 97.224 113.409 97.524 113.025 97.748C112.641 97.964 112.157 98.072 111.573 98.072ZM116.885 98V91.64H117.989V93.368L117.881 92.936C118.057 92.496 118.353 92.16 118.769 91.928C119.185 91.696 119.697 91.58 120.305 91.58V92.696C120.257 92.688 120.209 92.684 120.161 92.684C120.121 92.684 120.081 92.684 120.041 92.684C119.425 92.684 118.937 92.868 118.577 93.236C118.217 93.604 118.037 94.136 118.037 94.832V98H116.885Z" fill="black"/>
<rect x="20.5" y="80.5" width="307" height="29" rx="4.5" stroke="#EAEAEE"/>
<mask id="mask0_1753_2894" style="mask-type:alpha" maskUnits="userSpaceOnUse" x="300" y="86" width="18" height="18">
<rect x="300" y="86" width="18" height="18" fill="#D9D9D9"/>
</mask>
<g mask="url(#mask0_1753_2894)">
<mask id="mask1_1753_2894" style="mask-type:alpha" maskUnits="userSpaceOnUse" x="302" y="88" width="14" height="14">
<rect x="302" y="88" width="14" height="14" fill="#D9D9D9"/>
</mask>
<g mask="url(#mask1_1753_2894)">
<path d="M308.197 96.7632C308.388 96.9538 308.697 96.9538 308.887 96.7632L311.422 94.2282C311.651 93.9998 311.648 93.6286 311.415 93.4043C311.189 93.1856 310.828 93.1888 310.606 93.4115L308.542 95.475L307.697 94.6292C307.471 94.4037 307.105 94.4037 306.88 94.6292C306.654 94.8547 306.654 95.2203 306.88 95.4458L308.197 96.7632ZM308.834 100.667C308.027 100.667 307.269 100.514 306.559 100.207C305.849 99.901 305.232 99.4854 304.707 98.9604C304.182 98.4354 303.766 97.8181 303.46 97.1083C303.154 96.3986 303.001 95.6403 303.001 94.8333C303.001 94.0264 303.154 93.2681 303.46 92.5583C303.766 91.8486 304.182 91.2313 304.707 90.7063C305.232 90.1812 305.849 89.7656 306.559 89.4594C307.269 89.1531 308.027 89 308.834 89C309.641 89 310.399 89.1531 311.109 89.4594C311.819 89.7656 312.436 90.1812 312.961 90.7063C313.486 91.2313 313.902 91.8486 314.208 92.5583C314.514 93.2681 314.667 94.0264 314.667 94.8333C314.667 95.6403 314.514 96.3986 314.208 97.1083C313.902 97.8181 313.486 98.4354 312.961 98.9604C312.436 99.4854 311.819 99.901 311.109 100.207C310.399 100.514 309.641 100.667 308.834 100.667ZM308.834 99.5C310.137 99.5 311.24 99.0479 312.144 98.1438C313.049 97.2396 313.501 96.1361 313.501 94.8333C313.501 93.5306 313.049 92.4271 312.144 91.5229C311.24 90.6188 310.137 90.1667 308.834 90.1667C307.531 90.1667 306.428 90.6188 305.524 91.5229C304.619 92.4271 304.167 93.5306 304.167 94.8333C304.167 96.1361 304.619 97.2396 305.524 98.1438C306.428 99.0479 307.531 99.5 308.834 99.5Z" fill="#65B741"/>
</g>
</g>
<path d="M21.26 133V124.6H22.46V131.956H27.008V133H21.26ZM30.859 133.072C30.219 133.072 29.651 132.932 29.155 132.652C28.659 132.372 28.267 131.988 27.979 131.5C27.691 131.004 27.547 130.444 27.547 129.82C27.547 129.188 27.691 128.628 27.979 128.14C28.267 127.652 28.659 127.272 29.155 127C29.651 126.72 30.219 126.58 30.859 126.58C31.491 126.58 32.055 126.72 32.551 127C33.055 127.272 33.447 127.652 33.727 128.14C34.015 128.62 34.159 129.18 34.159 129.82C34.159 130.452 34.015 131.012 33.727 131.5C33.447 131.988 33.055 132.372 32.551 132.652C32.055 132.932 31.491 133.072 30.859 133.072ZM30.859 132.064C31.267 132.064 31.631 131.972 31.951 131.788C32.279 131.604 32.535 131.344 32.719 131.008C32.903 130.664 32.995 130.268 32.995 129.82C32.995 129.364 32.903 128.972 32.719 128.644C32.535 128.308 32.279 128.048 31.951 127.864C31.631 127.68 31.267 127.588 30.859 127.588C30.451 127.588 30.087 127.68 29.767 127.864C29.447 128.048 29.191 128.308 28.999 128.644C28.807 128.972 28.711 129.364 28.711 129.82C28.711 130.268 28.807 130.664 28.999 131.008C29.191 131.344 29.447 131.604 29.767 131.788C30.087 131.972 30.451 132.064 30.859 132.064ZM38.5242 133.072C37.8762 133.072 37.2962 132.932 36.7842 132.652C36.2802 132.372 35.8842 131.988 35.5962 131.5C35.3082 131.012 35.1642 130.452 35.1642 129.82C35.1642 129.188 35.3082 128.628 35.5962 128.14C35.8842 127.652 36.2802 127.272 36.7842 127C37.2962 126.72 37.8762 126.58 38.5242 126.58C39.1002 126.58 39.6122 126.696 40.0602 126.928C40.5162 127.152 40.8682 127.488 41.1162 127.936L40.2402 128.5C40.0322 128.188 39.7762 127.96 39.4722 127.816C39.1762 127.664 38.8562 127.588 38.5122 127.588C38.0962 127.588 37.7242 127.68 37.3962 127.864C37.0682 128.048 36.8082 128.308 36.6162 128.644C36.4242 128.972 36.3282 129.364 36.3282 129.82C36.3282 130.276 36.4242 130.672 36.6162 131.008C36.8082 131.344 37.0682 131.604 37.3962 131.788C37.7242 131.972 38.0962 132.064 38.5122 132.064C38.8562 132.064 39.1762 131.992 39.4722 131.848C39.7762 131.696 40.0322 131.464 40.2402 131.152L41.1162 131.704C40.8682 132.144 40.5162 132.484 40.0602 132.724C39.6122 132.956 39.1002 133.072 38.5242 133.072ZM46.5556 133V131.656L46.4956 131.404V129.112C46.4956 128.624 46.3516 128.248 46.0636 127.984C45.7836 127.712 45.3596 127.576 44.7916 127.576C44.4156 127.576 44.0476 127.64 43.6876 127.768C43.3276 127.888 43.0236 128.052 42.7756 128.26L42.2956 127.396C42.6236 127.132 43.0156 126.932 43.4716 126.796C43.9356 126.652 44.4196 126.58 44.9236 126.58C45.7956 126.58 46.4676 126.792 46.9396 127.216C47.4116 127.64 47.6476 128.288 47.6476 129.16V133H46.5556ZM44.4676 133.072C43.9956 133.072 43.5796 132.992 43.2196 132.832C42.8676 132.672 42.5956 132.452 42.4036 132.172C42.2116 131.884 42.1156 131.56 42.1156 131.2C42.1156 130.856 42.1956 130.544 42.3556 130.264C42.5236 129.984 42.7916 129.76 43.1596 129.592C43.5356 129.424 44.0396 129.34 44.6716 129.34H46.6876V130.168H44.7196C44.1436 130.168 43.7556 130.264 43.5556 130.456C43.3556 130.648 43.2556 130.88 43.2556 131.152C43.2556 131.464 43.3796 131.716 43.6276 131.908C43.8756 132.092 44.2196 132.184 44.6596 132.184C45.0916 132.184 45.4676 132.088 45.7876 131.896C46.1156 131.704 46.3516 131.424 46.4956 131.056L46.7236 131.848C46.5716 132.224 46.3036 132.524 45.9196 132.748C45.5356 132.964 45.0516 133.072 44.4676 133.072ZM51.9635 133.072C51.3235 133.072 50.8275 132.9 50.4755 132.556C50.1235 132.212 49.9475 131.72 49.9475 131.08V125.248H51.0995V131.032C51.0995 131.376 51.1835 131.64 51.3515 131.824C51.5275 132.008 51.7755 132.1 52.0955 132.1C52.4555 132.1 52.7555 132 52.9955 131.8L53.3555 132.628C53.1795 132.78 52.9675 132.892 52.7195 132.964C52.4795 133.036 52.2275 133.072 51.9635 133.072ZM48.8675 127.588V126.64H52.9235V127.588H48.8675ZM54.7483 133V126.64H55.9003V133H54.7483ZM55.3243 125.416C55.1003 125.416 54.9123 125.344 54.7603 125.2C54.6163 125.056 54.5443 124.88 54.5443 124.672C54.5443 124.456 54.6163 124.276 54.7603 124.132C54.9123 123.988 55.1003 123.916 55.3243 123.916C55.5483 123.916 55.7323 123.988 55.8763 124.132C56.0283 124.268 56.1043 124.44 56.1043 124.648C56.1043 124.864 56.0323 125.048 55.8883 125.2C55.7443 125.344 55.5563 125.416 55.3243 125.416ZM60.8238 133.072C60.1838 133.072 59.6158 132.932 59.1198 132.652C58.6238 132.372 58.2318 131.988 57.9438 131.5C57.6558 131.004 57.5118 130.444 57.5118 129.82C57.5118 129.188 57.6558 128.628 57.9438 128.14C58.2318 127.652 58.6238 127.272 59.1198 127C59.6158 126.72 60.1838 126.58 60.8238 126.58C61.4558 126.58 62.0198 126.72 62.5158 127C63.0198 127.272 63.4118 127.652 63.6918 128.14C63.9798 128.62 64.1238 129.18 64.1238 129.82C64.1238 130.452 63.9798 131.012 63.6918 131.5C63.4118 131.988 63.0198 132.372 62.5158 132.652C62.0198 132.932 61.4558 133.072 60.8238 133.072ZM60.8238 132.064C61.2318 132.064 61.5958 131.972 61.9158 131.788C62.2438 131.604 62.4998 131.344 62.6838 131.008C62.8678 130.664 62.9598 130.268 62.9598 129.82C62.9598 129.364 62.8678 128.972 62.6838 128.644C62.4998 128.308 62.2438 128.048 61.9158 127.864C61.5958 127.68 61.2318 127.588 60.8238 127.588C60.4158 127.588 60.0518 127.68 59.7318 127.864C59.4118 128.048 59.1558 128.308 58.9638 128.644C58.7718 128.972 58.6758 129.364 58.6758 129.82C58.6758 130.268 58.7718 130.664 58.9638 131.008C59.1558 131.344 59.4118 131.604 59.7318 131.788C60.0518 131.972 60.4158 132.064 60.8238 132.064ZM69.113 126.58C69.633 126.58 70.089 126.68 70.481 126.88C70.881 127.08 71.193 127.384 71.417 127.792C71.641 128.2 71.753 128.716 71.753 129.34V133H70.601V129.472C70.601 128.856 70.449 128.392 70.145 128.08C69.849 127.768 69.429 127.612 68.885 127.612C68.477 127.612 68.121 127.692 67.817 127.852C67.513 128.012 67.277 128.248 67.109 128.56C66.949 128.872 66.869 129.26 66.869 129.724V133H65.717V126.64H66.821V128.356L66.641 127.9C66.849 127.484 67.169 127.16 67.601 126.928C68.033 126.696 68.537 126.58 69.113 126.58Z" fill="#333333"/>
<path d="M32.928 162V154.644H30.048V153.6H36.996V154.644H34.116V162H32.928ZM38.135 162V155.64H39.287V162H38.135ZM38.711 154.416C38.487 154.416 38.299 154.344 38.147 154.2C38.003 154.056 37.931 153.88 37.931 153.672C37.931 153.456 38.003 153.276 38.147 153.132C38.299 152.988 38.487 152.916 38.711 152.916C38.935 152.916 39.119 152.988 39.263 153.132C39.415 153.268 39.491 153.44 39.491 153.648C39.491 153.864 39.419 154.048 39.275 154.2C39.131 154.344 38.943 154.416 38.711 154.416ZM41.4865 162V155.64H42.5905V157.368L42.4825 156.936C42.6585 156.496 42.9545 156.16 43.3705 155.928C43.7865 155.696 44.2985 155.58 44.9065 155.58V156.696C44.8585 156.688 44.8105 156.684 44.7625 156.684C44.7225 156.684 44.6825 156.684 44.6425 156.684C44.0265 156.684 43.5385 156.868 43.1785 157.236C42.8185 157.604 42.6385 158.136 42.6385 158.832V162H41.4865ZM49.0844 162.072C48.5404 162.072 48.0604 161.972 47.6444 161.772C47.2364 161.572 46.9164 161.268 46.6844 160.86C46.4604 160.444 46.3484 159.924 46.3484 159.3V155.64H47.5004V159.168C47.5004 159.792 47.6484 160.26 47.9444 160.572C48.2484 160.884 48.6724 161.04 49.2164 161.04C49.6164 161.04 49.9644 160.96 50.2604 160.8C50.5564 160.632 50.7844 160.392 50.9444 160.08C51.1044 159.76 51.1844 159.376 51.1844 158.928V155.64H52.3364V162H51.2444V160.284L51.4244 160.74C51.2164 161.164 50.9044 161.492 50.4884 161.724C50.0724 161.956 49.6044 162.072 49.0844 162.072ZM56.1975 162L53.4135 155.64H54.6135L57.0855 161.4H56.5095L59.0295 155.64H60.1575L57.3735 162H56.1975ZM64.9814 162V160.656L64.9214 160.404V158.112C64.9214 157.624 64.7774 157.248 64.4894 156.984C64.2094 156.712 63.7854 156.576 63.2174 156.576C62.8414 156.576 62.4734 156.64 62.1134 156.768C61.7534 156.888 61.4494 157.052 61.2014 157.26L60.7214 156.396C61.0494 156.132 61.4414 155.932 61.8974 155.796C62.3614 155.652 62.8454 155.58 63.3494 155.58C64.2214 155.58 64.8934 155.792 65.3654 156.216C65.8374 156.64 66.0734 157.288 66.0734 158.16V162H64.9814ZM62.8934 162.072C62.4214 162.072 62.0054 161.992 61.6454 161.832C61.2934 161.672 61.0214 161.452 60.8294 161.172C60.6374 160.884 60.5414 160.56 60.5414 160.2C60.5414 159.856 60.6214 159.544 60.7814 159.264C60.9494 158.984 61.2174 158.76 61.5854 158.592C61.9614 158.424 62.4654 158.34 63.0974 158.34H65.1134V159.168H63.1454C62.5694 159.168 62.1814 159.264 61.9814 159.456C61.7814 159.648 61.6814 159.88 61.6814 160.152C61.6814 160.464 61.8054 160.716 62.0534 160.908C62.3014 161.092 62.6454 161.184 63.0854 161.184C63.5174 161.184 63.8934 161.088 64.2134 160.896C64.5414 160.704 64.7774 160.424 64.9214 160.056L65.1494 160.848C64.9974 161.224 64.7294 161.524 64.3454 161.748C63.9614 161.964 63.4774 162.072 62.8934 162.072ZM71.6013 155.58C72.1213 155.58 72.5773 155.68 72.9693 155.88C73.3693 156.08 73.6813 156.384 73.9053 156.792C74.1293 157.2 74.2413 157.716 74.2413 158.34V162H73.0893V158.472C73.0893 157.856 72.9373 157.392 72.6333 157.08C72.3373 156.768 71.9173 156.612 71.3733 156.612C70.9653 156.612 70.6093 156.692 70.3053 156.852C70.0013 157.012 69.7653 157.248 69.5973 157.56C69.4373 157.872 69.3573 158.26 69.3573 158.724V162H68.2053V155.64H69.3093V157.356L69.1293 156.9C69.3373 156.484 69.6573 156.16 70.0893 155.928C70.5213 155.696 71.0253 155.58 71.6013 155.58ZM79.7693 155.58C80.2893 155.58 80.7453 155.68 81.1373 155.88C81.5373 156.08 81.8493 156.384 82.0733 156.792C82.2973 157.2 82.4093 157.716 82.4093 158.34V162H81.2573V158.472C81.2573 157.856 81.1053 157.392 80.8013 157.08C80.5053 156.768 80.0853 156.612 79.5413 156.612C79.1333 156.612 78.7773 156.692 78.4733 156.852C78.1693 157.012 77.9333 157.248 77.7653 157.56C77.6053 157.872 77.5253 158.26 77.5253 158.724V162H76.3733V155.64H77.4773V157.356L77.2973 156.9C77.5053 156.484 77.8253 156.16 78.2573 155.928C78.6893 155.696 79.1933 155.58 79.7693 155.58ZM88.4892 162V160.656L88.4292 160.404V158.112C88.4292 157.624 88.2852 157.248 87.9972 156.984C87.7172 156.712 87.2932 156.576 86.7252 156.576C86.3492 156.576 85.9812 156.64 85.6212 156.768C85.2612 156.888 84.9572 157.052 84.7092 157.26L84.2292 156.396C84.5572 156.132 84.9492 155.932 85.4052 155.796C85.8692 155.652 86.3532 155.58 86.8572 155.58C87.7292 155.58 88.4012 155.792 88.8732 156.216C89.3452 156.64 89.5812 157.288 89.5812 158.16V162H88.4892ZM86.4012 162.072C85.9292 162.072 85.5132 161.992 85.1532 161.832C84.8012 161.672 84.5292 161.452 84.3372 161.172C84.1452 160.884 84.0492 160.56 84.0492 160.2C84.0492 159.856 84.1292 159.544 84.2892 159.264C84.4572 158.984 84.7252 158.76 85.0932 158.592C85.4692 158.424 85.9732 158.34 86.6052 158.34H88.6212V159.168H86.6532C86.0772 159.168 85.6892 159.264 85.4892 159.456C85.2892 159.648 85.1892 159.88 85.1892 160.152C85.1892 160.464 85.3132 160.716 85.5612 160.908C85.8092 161.092 86.1532 161.184 86.5932 161.184C87.0252 161.184 87.4012 161.088 87.7212 160.896C88.0492 160.704 88.2852 160.424 88.4292 160.056L88.6572 160.848C88.5052 161.224 88.2372 161.524 87.8532 161.748C87.4692 161.964 86.9852 162.072 86.4012 162.072ZM99.6691 155.58C100.181 155.58 100.633 155.68 101.025 155.88C101.417 156.08 101.721 156.384 101.937 156.792C102.161 157.2 102.273 157.716 102.273 158.34V162H101.121V158.472C101.121 157.856 100.977 157.392 100.689 157.08C100.401 156.768 99.9971 156.612 99.4771 156.612C99.0931 156.612 98.7571 156.692 98.4691 156.852C98.1811 157.012 97.9571 157.248 97.7971 157.56C97.6451 157.872 97.5691 158.26 97.5691 158.724V162H96.4171V158.472C96.4171 157.856 96.2731 157.392 95.9851 157.08C95.7051 156.768 95.3011 156.612 94.7731 156.612C94.3971 156.612 94.0651 156.692 93.7771 156.852C93.4891 157.012 93.2651 157.248 93.1051 157.56C92.9451 157.872 92.8651 158.26 92.8651 158.724V162H91.7131V155.64H92.8171V157.332L92.6371 156.9C92.8371 156.484 93.1451 156.16 93.5611 155.928C93.9771 155.696 94.4611 155.58 95.0131 155.58C95.6211 155.58 96.1451 155.732 96.5851 156.036C97.0251 156.332 97.3131 156.784 97.4491 157.392L96.9811 157.2C97.1731 156.712 97.5091 156.32 97.9891 156.024C98.4691 155.728 99.0291 155.58 99.6691 155.58ZM108.341 162V160.656L108.281 160.404V158.112C108.281 157.624 108.137 157.248 107.849 156.984C107.569 156.712 107.145 156.576 106.577 156.576C106.201 156.576 105.833 156.64 105.473 156.768C105.113 156.888 104.809 157.052 104.561 157.26L104.081 156.396C104.409 156.132 104.801 155.932 105.257 155.796C105.721 155.652 106.205 155.58 106.709 155.58C107.581 155.58 108.253 155.792 108.725 156.216C109.197 156.64 109.433 157.288 109.433 158.16V162H108.341ZM106.253 162.072C105.781 162.072 105.365 161.992 105.005 161.832C104.653 161.672 104.381 161.452 104.189 161.172C103.997 160.884 103.901 160.56 103.901 160.2C103.901 159.856 103.981 159.544 104.141 159.264C104.309 158.984 104.577 158.76 104.945 158.592C105.321 158.424 105.825 158.34 106.457 158.34H108.473V159.168H106.505C105.929 159.168 105.541 159.264 105.341 159.456C105.141 159.648 105.041 159.88 105.041 160.152C105.041 160.464 105.165 160.716 105.413 160.908C105.661 161.092 106.005 161.184 106.445 161.184C106.877 161.184 107.253 161.088 107.573 160.896C107.901 160.704 108.137 160.424 108.281 160.056L108.509 160.848C108.357 161.224 108.089 161.524 107.705 161.748C107.321 161.964 106.837 162.072 106.253 162.072ZM111.565 162V153.096H112.717V162H111.565ZM118.864 162V160.656L118.804 160.404V158.112C118.804 157.624 118.66 157.248 118.372 156.984C118.092 156.712 117.668 156.576 117.1 156.576C116.724 156.576 116.356 156.64 115.996 156.768C115.636 156.888 115.332 157.052 115.084 157.26L114.604 156.396C114.932 156.132 115.324 155.932 115.78 155.796C116.244 155.652 116.728 155.58 117.232 155.58C118.104 155.58 118.776 155.792 119.248 156.216C119.72 156.64 119.956 157.288 119.956 158.16V162H118.864ZM116.776 162.072C116.304 162.072 115.888 161.992 115.528 161.832C115.176 161.672 114.904 161.452 114.712 161.172C114.52 160.884 114.424 160.56 114.424 160.2C114.424 159.856 114.504 159.544 114.664 159.264C114.832 158.984 115.1 158.76 115.468 158.592C115.844 158.424 116.348 158.34 116.98 158.34H118.996V159.168H117.028C116.452 159.168 116.064 159.264 115.864 159.456C115.664 159.648 115.564 159.88 115.564 160.152C115.564 160.464 115.688 160.716 115.936 160.908C116.184 161.092 116.528 161.184 116.968 161.184C117.4 161.184 117.776 161.088 118.096 160.896C118.424 160.704 118.66 160.424 118.804 160.056L119.032 160.848C118.88 161.224 118.612 161.524 118.228 161.748C117.844 161.964 117.36 162.072 116.776 162.072ZM122.088 162V155.64H123.24V162H122.088ZM122.664 154.416C122.44 154.416 122.252 154.344 122.1 154.2C121.956 154.056 121.884 153.88 121.884 153.672C121.884 153.456 121.956 153.276 122.1 153.132C122.252 152.988 122.44 152.916 122.664 152.916C122.888 152.916 123.072 152.988 123.216 153.132C123.368 153.268 123.444 153.44 123.444 153.648C123.444 153.864 123.372 154.048 123.228 154.2C123.084 154.344 122.896 154.416 122.664 154.416Z" fill="black"/>
<rect x="20.5" y="144.5" width="307" height="29" rx="4.5" stroke="#EAEAEE"/>
<mask id="mask2_1753_2894" style="mask-type:alpha" maskUnits="userSpaceOnUse" x="300" y="150" width="18" height="18">
<rect x="300" y="150" width="18" height="18" fill="#D9D9D9"/>
</mask>
<g mask="url(#mask2_1753_2894)">
<mask id="mask3_1753_2894" style="mask-type:alpha" maskUnits="userSpaceOnUse" x="302" y="152" width="14" height="14">
<rect x="302" y="152" width="14" height="14" fill="#D9D9D9"/>
</mask>
<g mask="url(#mask3_1753_2894)">
<path d="M308.197 160.763C308.388 160.954 308.697 160.954 308.887 160.763L311.422 158.228C311.651 158 311.648 157.629 311.415 157.404C311.189 157.186 310.828 157.189 310.606 157.412L308.542 159.475L307.697 158.629C307.471 158.404 307.105 158.404 306.88 158.629C306.654 158.855 306.654 159.22 306.88 159.446L308.197 160.763ZM308.834 164.667C308.027 164.667 307.269 164.514 306.559 164.207C305.849 163.901 305.232 163.485 304.707 162.96C304.182 162.435 303.766 161.818 303.46 161.108C303.154 160.399 303.001 159.64 303.001 158.833C303.001 158.026 303.154 157.268 303.46 156.558C303.766 155.849 304.182 155.231 304.707 154.706C305.232 154.181 305.849 153.766 306.559 153.459C307.269 153.153 308.027 153 308.834 153C309.641 153 310.399 153.153 311.109 153.459C311.819 153.766 312.436 154.181 312.961 154.706C313.486 155.231 313.902 155.849 314.208 156.558C314.514 157.268 314.667 158.026 314.667 158.833C314.667 159.64 314.514 160.399 314.208 161.108C313.902 161.818 313.486 162.435 312.961 162.96C312.436 163.485 311.819 163.901 311.109 164.207C310.399 164.514 309.641 164.667 308.834 164.667ZM308.834 163.5C310.137 163.5 311.24 163.048 312.144 162.144C313.049 161.24 313.501 160.136 313.501 158.833C313.501 157.531 313.049 156.427 312.144 155.523C311.24 154.619 310.137 154.167 308.834 154.167C307.531 154.167 306.428 154.619 305.524 155.523C304.619 156.427 304.167 157.531 304.167 158.833C304.167 160.136 304.619 161.24 305.524 162.144C306.428 163.048 307.531 163.5 308.834 163.5Z" fill="#65B741"/>
</g>
</g>
<path d="M58.182 249L62.256 243.442V244.52L58.406 239.2H60.002L63.054 243.386L62.424 243.4L65.462 239.2H66.988L63.166 244.436V243.428L67.24 249H65.63L62.382 244.534H62.998L59.792 249H58.182ZM67.3285 249L71.4025 243.442V244.52L67.5525 239.2H69.1485L72.2005 243.386L71.5705 243.4L74.6085 239.2H76.1345L72.3125 244.436V243.428L76.3865 249H74.7765L71.5285 244.534H72.1445L68.9385 249H67.3285ZM76.475 249L80.549 243.442V244.52L76.699 239.2H78.295L81.347 243.386L80.717 243.4L83.755 239.2H85.281L81.459 244.436V243.428L85.533 249H83.923L80.675 244.534H81.291L78.085 249H76.475ZM94.1487 249.112C93.3833 249.112 92.6973 248.916 92.0907 248.524C91.4933 248.132 91.0173 247.563 90.6627 246.816C90.3173 246.069 90.1447 245.164 90.1447 244.1C90.1447 243.036 90.3173 242.131 90.6627 241.384C91.0173 240.637 91.4933 240.068 92.0907 239.676C92.6973 239.284 93.3833 239.088 94.1487 239.088C94.9047 239.088 95.586 239.284 96.1927 239.676C96.7993 240.068 97.2753 240.637 97.6207 241.384C97.966 242.131 98.1387 243.036 98.1387 244.1C98.1387 245.164 97.966 246.069 97.6207 246.816C97.2753 247.563 96.7993 248.132 96.1927 248.524C95.586 248.916 94.9047 249.112 94.1487 249.112ZM94.1487 247.866C94.662 247.866 95.11 247.726 95.4927 247.446C95.8847 247.166 96.188 246.746 96.4027 246.186C96.6267 245.626 96.7387 244.931 96.7387 244.1C96.7387 243.269 96.6267 242.574 96.4027 242.014C96.188 241.454 95.8847 241.034 95.4927 240.754C95.11 240.474 94.662 240.334 94.1487 240.334C93.6353 240.334 93.1827 240.474 92.7907 240.754C92.3987 241.034 92.0907 241.454 91.8667 242.014C91.652 242.574 91.5447 243.269 91.5447 244.1C91.5447 244.931 91.652 245.626 91.8667 246.186C92.0907 246.746 92.3987 247.166 92.7907 247.446C93.1827 247.726 93.6353 247.866 94.1487 247.866ZM103.487 249.112C102.721 249.112 102.035 248.916 101.429 248.524C100.831 248.132 100.355 247.563 100.001 246.816C99.6552 246.069 99.4825 245.164 99.4825 244.1C99.4825 243.036 99.6552 242.131 100.001 241.384C100.355 240.637 100.831 240.068 101.429 239.676C102.035 239.284 102.721 239.088 103.487 239.088C104.243 239.088 104.924 239.284 105.531 239.676C106.137 240.068 106.613 240.637 106.959 241.384C107.304 242.131 107.477 243.036 107.477 244.1C107.477 245.164 107.304 246.069 106.959 246.816C106.613 247.563 106.137 248.132 105.531 248.524C104.924 248.916 104.243 249.112 103.487 249.112ZM103.487 247.866C104 247.866 104.448 247.726 104.831 247.446C105.223 247.166 105.526 246.746 105.741 246.186C105.965 245.626 106.077 244.931 106.077 244.1C106.077 243.269 105.965 242.574 105.741 242.014C105.526 241.454 105.223 241.034 104.831 240.754C104.448 240.474 104 240.334 103.487 240.334C102.973 240.334 102.521 240.474 102.129 240.754C101.737 241.034 101.429 241.454 101.205 242.014C100.99 242.574 100.883 243.269 100.883 244.1C100.883 244.931 100.99 245.626 101.205 246.186C101.429 246.746 101.737 247.166 102.129 247.446C102.521 247.726 102.973 247.866 103.487 247.866ZM112.824 249.112C112.059 249.112 111.373 248.916 110.766 248.524C110.169 248.132 109.693 247.563 109.338 246.816C108.993 246.069 108.82 245.164 108.82 244.1C108.82 243.036 108.993 242.131 109.338 241.384C109.693 240.637 110.169 240.068 110.766 239.676C111.373 239.284 112.059 239.088 112.824 239.088C113.58 239.088 114.262 239.284 114.868 239.676C115.475 240.068 115.951 240.637 116.296 241.384C116.642 242.131 116.814 243.036 116.814 244.1C116.814 245.164 116.642 246.069 116.296 246.816C115.951 247.563 115.475 248.132 114.868 248.524C114.262 248.916 113.58 249.112 112.824 249.112ZM112.824 247.866C113.338 247.866 113.786 247.726 114.168 247.446C114.56 247.166 114.864 246.746 115.078 246.186C115.302 245.626 115.414 244.931 115.414 244.1C115.414 243.269 115.302 242.574 115.078 242.014C114.864 241.454 114.56 241.034 114.168 240.754C113.786 240.474 113.338 240.334 112.824 240.334C112.311 240.334 111.858 240.474 111.466 240.754C111.074 241.034 110.766 241.454 110.542 242.014C110.328 242.574 110.22 243.269 110.22 244.1C110.22 244.931 110.328 245.626 110.542 246.186C110.766 246.746 111.074 247.166 111.466 247.446C111.858 247.726 112.311 247.866 112.824 247.866ZM122.162 249.112C121.397 249.112 120.711 248.916 120.104 248.524C119.507 248.132 119.031 247.563 118.676 246.816C118.331 246.069 118.158 245.164 118.158 244.1C118.158 243.036 118.331 242.131 118.676 241.384C119.031 240.637 119.507 240.068 120.104 239.676C120.711 239.284 121.397 239.088 122.162 239.088C122.918 239.088 123.6 239.284 124.206 239.676C124.813 240.068 125.289 240.637 125.634 241.384C125.98 242.131 126.152 243.036 126.152 244.1C126.152 245.164 125.98 246.069 125.634 246.816C125.289 247.563 124.813 248.132 124.206 248.524C123.6 248.916 122.918 249.112 122.162 249.112ZM122.162 247.866C122.676 247.866 123.124 247.726 123.506 247.446C123.898 247.166 124.202 246.746 124.416 246.186C124.64 245.626 124.752 244.931 124.752 244.1C124.752 243.269 124.64 242.574 124.416 242.014C124.202 241.454 123.898 241.034 123.506 240.754C123.124 240.474 122.676 240.334 122.162 240.334C121.649 240.334 121.196 240.474 120.804 240.754C120.412 241.034 120.104 241.454 119.88 242.014C119.666 242.574 119.558 243.269 119.558 244.1C119.558 244.931 119.666 245.626 119.88 246.186C120.104 246.746 120.412 247.166 120.804 247.446C121.196 247.726 121.649 247.866 122.162 247.866ZM135.26 249.112C134.495 249.112 133.809 248.916 133.202 248.524C132.605 248.132 132.129 247.563 131.774 246.816C131.429 246.069 131.256 245.164 131.256 244.1C131.256 243.036 131.429 242.131 131.774 241.384C132.129 240.637 132.605 240.068 133.202 239.676C133.809 239.284 134.495 239.088 135.26 239.088C136.016 239.088 136.697 239.284 137.304 239.676C137.911 240.068 138.387 240.637 138.732 241.384C139.077 242.131 139.25 243.036 139.25 244.1C139.25 245.164 139.077 246.069 138.732 246.816C138.387 247.563 137.911 248.132 137.304 248.524C136.697 248.916 136.016 249.112 135.26 249.112ZM135.26 247.866C135.773 247.866 136.221 247.726 136.604 247.446C136.996 247.166 137.299 246.746 137.514 246.186C137.738 245.626 137.85 244.931 137.85 244.1C137.85 243.269 137.738 242.574 137.514 242.014C137.299 241.454 136.996 241.034 136.604 240.754C136.221 240.474 135.773 240.334 135.26 240.334C134.747 240.334 134.294 240.474 133.902 240.754C133.51 241.034 133.202 241.454 132.978 242.014C132.763 242.574 132.656 243.269 132.656 244.1C132.656 244.931 132.763 245.626 132.978 246.186C133.202 246.746 133.51 247.166 133.902 247.446C134.294 247.726 134.747 247.866 135.26 247.866ZM144.598 249.112C143.833 249.112 143.147 248.916 142.54 248.524C141.943 248.132 141.467 247.563 141.112 246.816C140.767 246.069 140.594 245.164 140.594 244.1C140.594 243.036 140.767 242.131 141.112 241.384C141.467 240.637 141.943 240.068 142.54 239.676C143.147 239.284 143.833 239.088 144.598 239.088C145.354 239.088 146.035 239.284 146.642 239.676C147.249 240.068 147.725 240.637 148.07 241.384C148.415 242.131 148.588 243.036 148.588 244.1C148.588 245.164 148.415 246.069 148.07 246.816C147.725 247.563 147.249 248.132 146.642 248.524C146.035 248.916 145.354 249.112 144.598 249.112ZM144.598 247.866C145.111 247.866 145.559 247.726 145.942 247.446C146.334 247.166 146.637 246.746 146.852 246.186C147.076 245.626 147.188 244.931 147.188 244.1C147.188 243.269 147.076 242.574 146.852 242.014C146.637 241.454 146.334 241.034 145.942 240.754C145.559 240.474 145.111 240.334 144.598 240.334C144.085 240.334 143.632 240.474 143.24 240.754C142.848 241.034 142.54 241.454 142.316 242.014C142.101 242.574 141.994 243.269 141.994 244.1C141.994 244.931 142.101 245.626 142.316 246.186C142.54 246.746 142.848 247.166 143.24 247.446C143.632 247.726 144.085 247.866 144.598 247.866ZM153.936 249.112C153.17 249.112 152.484 248.916 151.878 248.524C151.28 248.132 150.804 247.563 150.45 246.816C150.104 246.069 149.932 245.164 149.932 244.1C149.932 243.036 150.104 242.131 150.45 241.384C150.804 240.637 151.28 240.068 151.878 239.676C152.484 239.284 153.17 239.088 153.936 239.088C154.692 239.088 155.373 239.284 155.98 239.676C156.586 240.068 157.062 240.637 157.408 241.384C157.753 242.131 157.926 243.036 157.926 244.1C157.926 245.164 157.753 246.069 157.408 246.816C157.062 247.563 156.586 248.132 155.98 248.524C155.373 248.916 154.692 249.112 153.936 249.112ZM153.936 247.866C154.449 247.866 154.897 247.726 155.28 247.446C155.672 247.166 155.975 246.746 156.19 246.186C156.414 245.626 156.526 244.931 156.526 244.1C156.526 243.269 156.414 242.574 156.19 242.014C155.975 241.454 155.672 241.034 155.28 240.754C154.897 240.474 154.449 240.334 153.936 240.334C153.422 240.334 152.97 240.474 152.578 240.754C152.186 241.034 151.878 241.454 151.654 242.014C151.439 242.574 151.332 243.269 151.332 244.1C151.332 244.931 151.439 245.626 151.654 246.186C151.878 246.746 152.186 247.166 152.578 247.446C152.97 247.726 153.422 247.866 153.936 247.866Z" fill="black"/>
<rect x="20.5" y="229.5" width="307" height="29" rx="4.5" stroke="#EAEAEE"/>
<mask id="mask4_1753_2894" style="mask-type:alpha" maskUnits="userSpaceOnUse" x="30" y="235" width="18" height="18">
<rect x="30" y="235" width="18" height="18" fill="#AFAFB8"/>
</mask>
<g mask="url(#mask4_1753_2894)">
<path d="M44.9625 250.75C43.4 250.75 41.8563 250.409 40.3313 249.728C38.8063 249.047 37.4187 248.081 36.1687 246.831C34.9188 245.581 33.9531 244.194 33.2719 242.669C32.5906 241.144 32.25 239.6 32.25 238.038C32.25 237.813 32.325 237.625 32.475 237.475C32.625 237.325 32.8125 237.25 33.0375 237.25H36.075C36.25 237.25 36.4062 237.309 36.5437 237.428C36.6813 237.547 36.7625 237.688 36.7875 237.85L37.275 240.475C37.3 240.675 37.2938 240.844 37.2563 240.981C37.2188 241.119 37.15 241.238 37.05 241.338L35.2313 243.175C35.4813 243.638 35.7781 244.084 36.1219 244.516C36.4656 244.947 36.8438 245.363 37.2563 245.763C37.6438 246.15 38.05 246.509 38.475 246.841C38.9 247.172 39.35 247.475 39.825 247.75L41.5875 245.988C41.7 245.875 41.8469 245.791 42.0281 245.734C42.2094 245.678 42.3875 245.663 42.5625 245.688L45.15 246.212C45.325 246.262 45.4688 246.353 45.5812 246.484C45.6937 246.616 45.75 246.763 45.75 246.925V249.963C45.75 250.188 45.675 250.375 45.525 250.525C45.375 250.675 45.1875 250.75 44.9625 250.75ZM34.5188 241.75L35.7563 240.512L35.4375 238.75H33.7688C33.8313 239.263 33.9188 239.769 34.0312 240.269C34.1437 240.769 34.3063 241.262 34.5188 241.75ZM41.2313 248.462C41.7188 248.675 42.2156 248.844 42.7219 248.969C43.2281 249.094 43.7375 249.175 44.25 249.212V247.562L42.4875 247.206L41.2313 248.462Z" fill="#AFAFB8"/>
</g>
<mask id="mask5_1753_2894" style="mask-type:alpha" maskUnits="userSpaceOnUse" x="300" y="235" width="18" height="18">
<rect x="300" y="235" width="18" height="18" fill="#D9D9D9"/>
</mask>
<g mask="url(#mask5_1753_2894)">
<mask id="mask6_1753_2894" style="mask-type:alpha" maskUnits="userSpaceOnUse" x="302" y="237" width="14" height="14">
<rect x="302" y="237" width="14" height="14" fill="#D9D9D9"/>
</mask>
<g mask="url(#mask6_1753_2894)">
<path d="M308.197 245.763C308.388 245.954 308.697 245.954 308.887 245.763L311.422 243.228C311.651 243 311.648 242.629 311.415 242.404C311.189 242.186 310.828 242.189 310.606 242.412L308.542 244.475L307.697 243.629C307.471 243.404 307.105 243.404 306.88 243.629C306.654 243.855 306.654 244.22 306.88 244.446L308.197 245.763ZM308.834 249.667C308.027 249.667 307.269 249.514 306.559 249.207C305.849 248.901 305.232 248.485 304.707 247.96C304.182 247.435 303.766 246.818 303.46 246.108C303.154 245.399 303.001 244.64 303.001 243.833C303.001 243.026 303.154 242.268 303.46 241.558C303.766 240.849 304.182 240.231 304.707 239.706C305.232 239.181 305.849 238.766 306.559 238.459C307.269 238.153 308.027 238 308.834 238C309.641 238 310.399 238.153 311.109 238.459C311.819 238.766 312.436 239.181 312.961 239.706C313.486 240.231 313.902 240.849 314.208 241.558C314.514 242.268 314.667 243.026 314.667 243.833C314.667 244.64 314.514 245.399 314.208 246.108C313.902 246.818 313.486 247.435 312.961 247.96C312.436 248.485 311.819 248.901 311.109 249.207C310.399 249.514 309.641 249.667 308.834 249.667ZM308.834 248.5C310.137 248.5 311.24 248.048 312.144 247.144C313.049 246.24 313.501 245.136 313.501 243.833C313.501 242.531 313.049 241.427 312.144 240.523C311.24 239.619 310.137 239.167 308.834 239.167C307.531 239.167 306.428 239.619 305.524 240.523C304.619 241.427 304.167 242.531 304.167 243.833C304.167 245.136 304.619 246.24 305.524 247.144C306.428 248.048 307.531 248.5 308.834 248.5Z" fill="#65B741"/>
</g>
</g>
<mask id="mask7_1753_2894" style="mask-type:alpha" maskUnits="userSpaceOnUse" x="300" y="275" width="18" height="18">
<rect x="300" y="275" width="18" height="18" fill="#D9D9D9"/>
</mask>
<g mask="url(#mask7_1753_2894)">
<mask id="mask8_1753_2894" style="mask-type:alpha" maskUnits="userSpaceOnUse" x="302" y="277" width="14" height="14">
<rect x="302" y="277" width="14" height="14" fill="#D9D9D9"/>
</mask>
<g mask="url(#mask8_1753_2894)">
<path d="M308.197 285.763C308.388 285.954 308.697 285.954 308.887 285.763L311.422 283.228C311.651 283 311.648 282.629 311.415 282.404C311.189 282.186 310.828 282.189 310.606 282.412L308.542 284.475L307.697 283.629C307.471 283.404 307.105 283.404 306.88 283.629C306.654 283.855 306.654 284.22 306.88 284.446L308.197 285.763ZM308.834 289.667C308.027 289.667 307.269 289.514 306.559 289.207C305.849 288.901 305.232 288.485 304.707 287.96C304.182 287.435 303.766 286.818 303.46 286.108C303.154 285.399 303.001 284.64 303.001 283.833C303.001 283.026 303.154 282.268 303.46 281.558C303.766 280.849 304.182 280.231 304.707 279.706C305.232 279.181 305.849 278.766 306.559 278.459C307.269 278.153 308.027 278 308.834 278C309.641 278 310.399 278.153 311.109 278.459C311.819 278.766 312.436 279.181 312.961 279.706C313.486 280.231 313.902 280.849 314.208 281.558C314.514 282.268 314.667 283.026 314.667 283.833C314.667 284.64 314.514 285.399 314.208 286.108C313.902 286.818 313.486 287.435 312.961 287.96C312.436 288.485 311.819 288.901 311.109 289.207C310.399 289.514 309.641 289.667 308.834 289.667ZM308.834 288.5C310.137 288.5 311.24 288.048 312.144 287.144C313.049 286.24 313.501 285.136 313.501 283.833C313.501 282.531 313.049 281.427 312.144 280.523C311.24 279.619 310.137 279.167 308.834 279.167C307.531 279.167 306.428 279.619 305.524 280.523C304.619 281.427 304.167 282.531 304.167 283.833C304.167 285.136 304.619 286.24 305.524 287.144C306.428 288.048 307.531 288.5 308.834 288.5Z" fill="#65B741"/>
</g>
</g>
<path d="M63.88 289V287.432L63.81 287.138V284.464C63.81 283.895 63.642 283.456 63.306 283.148C62.9793 282.831 62.4847 282.672 61.822 282.672C61.3833 282.672 60.954 282.747 60.534 282.896C60.114 283.036 59.7593 283.227 59.47 283.47L58.91 282.462C59.2927 282.154 59.75 281.921 60.282 281.762C60.8233 281.594 61.388 281.51 61.976 281.51C62.9933 281.51 63.7773 281.757 64.328 282.252C64.8787 282.747 65.154 283.503 65.154 284.52V289H63.88ZM61.444 289.084C60.8933 289.084 60.408 288.991 59.988 288.804C59.5773 288.617 59.26 288.361 59.036 288.034C58.812 287.698 58.7 287.32 58.7 286.9C58.7 286.499 58.7933 286.135 58.98 285.808C59.176 285.481 59.4887 285.22 59.918 285.024C60.3567 284.828 60.9447 284.73 61.682 284.73H64.034V285.696H61.738C61.066 285.696 60.6133 285.808 60.38 286.032C60.1467 286.256 60.03 286.527 60.03 286.844C60.03 287.208 60.1747 287.502 60.464 287.726C60.7533 287.941 61.1547 288.048 61.668 288.048C62.172 288.048 62.6107 287.936 62.984 287.712C63.3667 287.488 63.642 287.161 63.81 286.732L64.076 287.656C63.8987 288.095 63.586 288.445 63.138 288.706C62.69 288.958 62.1253 289.084 61.444 289.084ZM71.5752 289.084C70.9405 289.084 70.3665 288.944 69.8532 288.664C69.3492 288.375 68.9479 287.95 68.6492 287.39C68.3599 286.83 68.2152 286.13 68.2152 285.29C68.2152 284.45 68.3645 283.75 68.6632 283.19C68.9712 282.63 69.3772 282.21 69.8812 281.93C70.3945 281.65 70.9592 281.51 71.5752 281.51C72.3032 281.51 72.9472 281.669 73.5072 281.986C74.0672 282.303 74.5105 282.747 74.8372 283.316C75.1639 283.876 75.3272 284.534 75.3272 285.29C75.3272 286.046 75.1639 286.709 74.8372 287.278C74.5105 287.847 74.0672 288.291 73.5072 288.608C72.9472 288.925 72.3032 289.084 71.5752 289.084ZM67.6412 289V278.612H68.9852V283.554L68.8452 285.276L68.9292 286.998V289H67.6412ZM71.4632 287.908C71.9392 287.908 72.3639 287.801 72.7372 287.586C73.1199 287.371 73.4185 287.068 73.6332 286.676C73.8572 286.275 73.9692 285.813 73.9692 285.29C73.9692 284.758 73.8572 284.301 73.6332 283.918C73.4185 283.526 73.1199 283.223 72.7372 283.008C72.3639 282.793 71.9392 282.686 71.4632 282.686C70.9965 282.686 70.5719 282.793 70.1892 283.008C69.8159 283.223 69.5172 283.526 69.2932 283.918C69.0785 284.301 68.9712 284.758 68.9712 285.29C68.9712 285.813 69.0785 286.275 69.2932 286.676C69.5172 287.068 69.8159 287.371 70.1892 287.586C70.5719 287.801 70.9965 287.908 71.4632 287.908ZM80.4182 289.084C79.6622 289.084 78.9855 288.921 78.3882 288.594C77.8002 288.267 77.3382 287.819 77.0022 287.25C76.6662 286.681 76.4982 286.027 76.4982 285.29C76.4982 284.553 76.6662 283.899 77.0022 283.33C77.3382 282.761 77.8002 282.317 78.3882 282C78.9855 281.673 79.6622 281.51 80.4182 281.51C81.0902 281.51 81.6875 281.645 82.2102 281.916C82.7422 282.177 83.1528 282.569 83.4422 283.092L82.4202 283.75C82.1775 283.386 81.8788 283.12 81.5242 282.952C81.1788 282.775 80.8055 282.686 80.4042 282.686C79.9188 282.686 79.4848 282.793 79.1022 283.008C78.7195 283.223 78.4162 283.526 78.1922 283.918C77.9682 284.301 77.8562 284.758 77.8562 285.29C77.8562 285.822 77.9682 286.284 78.1922 286.676C78.4162 287.068 78.7195 287.371 79.1022 287.586C79.4848 287.801 79.9188 287.908 80.4042 287.908C80.8055 287.908 81.1788 287.824 81.5242 287.656C81.8788 287.479 82.1775 287.208 82.4202 286.844L83.4422 287.488C83.1528 288.001 82.7422 288.398 82.2102 288.678C81.6875 288.949 81.0902 289.084 80.4182 289.084ZM88.1388 289.084C87.4202 289.084 86.7762 288.925 86.2068 288.608C85.6468 288.291 85.2035 287.847 84.8768 287.278C84.5502 286.709 84.3868 286.046 84.3868 285.29C84.3868 284.534 84.5502 283.876 84.8768 283.316C85.2035 282.747 85.6468 282.303 86.2068 281.986C86.7762 281.669 87.4202 281.51 88.1388 281.51C88.7642 281.51 89.3288 281.65 89.8328 281.93C90.3368 282.21 90.7382 282.63 91.0368 283.19C91.3448 283.75 91.4988 284.45 91.4988 285.29C91.4988 286.13 91.3495 286.83 91.0508 287.39C90.7615 287.95 90.3648 288.375 89.8608 288.664C89.3568 288.944 88.7828 289.084 88.1388 289.084ZM88.2508 287.908C88.7175 287.908 89.1375 287.801 89.5108 287.586C89.8935 287.371 90.1922 287.068 90.4068 286.676C90.6308 286.275 90.7428 285.813 90.7428 285.29C90.7428 284.758 90.6308 284.301 90.4068 283.918C90.1922 283.526 89.8935 283.223 89.5108 283.008C89.1375 282.793 88.7175 282.686 88.2508 282.686C87.7748 282.686 87.3502 282.793 86.9768 283.008C86.6035 283.223 86.3048 283.526 86.0808 283.918C85.8568 284.301 85.7448 284.758 85.7448 285.29C85.7448 285.813 85.8568 286.275 86.0808 286.676C86.3048 287.068 86.6035 287.371 86.9768 287.586C87.3502 287.801 87.7748 287.908 88.2508 287.908ZM90.7848 289V286.998L90.8688 285.276L90.7288 283.554V278.612H92.0728V289H90.7848ZM100.566 291.828C99.5951 291.828 98.7085 291.669 97.9058 291.352C97.1031 291.035 96.4125 290.591 95.8338 290.022C95.2551 289.453 94.8071 288.781 94.4898 288.006C94.1725 287.222 94.0138 286.368 94.0138 285.444C94.0138 284.52 94.1725 283.671 94.4898 282.896C94.8071 282.121 95.2551 281.449 95.8338 280.88C96.4218 280.311 97.1218 279.872 97.9338 279.564C98.7458 279.256 99.6418 279.102 100.622 279.102C101.583 279.102 102.46 279.251 103.254 279.55C104.047 279.849 104.733 280.273 105.312 280.824C105.9 281.365 106.352 282.014 106.67 282.77C106.987 283.517 107.146 284.343 107.146 285.248C107.146 286.041 107.048 286.723 106.852 287.292C106.656 287.861 106.371 288.305 105.998 288.622C105.634 288.93 105.186 289.084 104.654 289.084C104.131 289.084 103.711 288.925 103.394 288.608C103.086 288.291 102.932 287.838 102.932 287.25V286.298L103.002 285.444L102.876 283.834V281.972H104.094V287.012C104.094 287.385 104.168 287.647 104.318 287.796C104.476 287.945 104.668 288.02 104.892 288.02C105.162 288.02 105.396 287.913 105.592 287.698C105.797 287.483 105.946 287.171 106.04 286.76C106.142 286.34 106.194 285.841 106.194 285.262C106.194 284.478 106.058 283.769 105.788 283.134C105.526 282.49 105.144 281.935 104.64 281.468C104.145 281.001 103.557 280.647 102.876 280.404C102.204 280.152 101.452 280.026 100.622 280.026C99.7911 280.026 99.0305 280.161 98.3398 280.432C97.6585 280.693 97.0705 281.067 96.5758 281.552C96.0811 282.028 95.6985 282.597 95.4278 283.26C95.1665 283.923 95.0358 284.651 95.0358 285.444C95.0358 286.247 95.1665 286.984 95.4278 287.656C95.6891 288.319 96.0625 288.888 96.5478 289.364C97.0425 289.849 97.6258 290.223 98.2978 290.484C98.9791 290.755 99.7351 290.89 100.566 290.89C100.995 290.89 101.448 290.839 101.924 290.736C102.4 290.643 102.848 290.489 103.268 290.274L103.576 291.17C103.146 291.385 102.661 291.548 102.12 291.66C101.578 291.772 101.06 291.828 100.566 291.828ZM100.314 289.084C99.6511 289.084 99.0631 288.93 98.5498 288.622C98.0365 288.305 97.6305 287.875 97.3318 287.334C97.0331 286.793 96.8838 286.177 96.8838 285.486C96.8838 284.786 97.0331 284.17 97.3318 283.638C97.6305 283.097 98.0365 282.677 98.5498 282.378C99.0631 282.07 99.6511 281.916 100.314 281.916C100.958 281.916 101.522 282.056 102.008 282.336C102.493 282.607 102.871 283.008 103.142 283.54C103.422 284.072 103.562 284.721 103.562 285.486C103.562 286.251 103.426 286.9 103.156 287.432C102.885 287.964 102.507 288.375 102.022 288.664C101.536 288.944 100.967 289.084 100.314 289.084ZM100.51 287.992C100.967 287.992 101.373 287.894 101.728 287.698C102.092 287.493 102.376 287.203 102.582 286.83C102.796 286.447 102.904 285.999 102.904 285.486C102.904 284.963 102.796 284.515 102.582 284.142C102.376 283.769 102.092 283.484 101.728 283.288C101.373 283.092 100.967 282.994 100.51 282.994C100.043 282.994 99.6278 283.097 99.2638 283.302C98.9091 283.498 98.6291 283.783 98.4238 284.156C98.2278 284.529 98.1298 284.973 98.1298 285.486C98.1298 285.99 98.2278 286.429 98.4238 286.802C98.6291 287.175 98.9091 287.469 99.2638 287.684C99.6278 287.889 100.043 287.992 100.51 287.992ZM112.342 291.8C111.661 291.8 110.998 291.702 110.354 291.506C109.72 291.319 109.202 291.049 108.8 290.694L109.444 289.658C109.79 289.957 110.214 290.19 110.718 290.358C111.222 290.535 111.75 290.624 112.3 290.624C113.178 290.624 113.822 290.419 114.232 290.008C114.643 289.597 114.848 288.972 114.848 288.132V286.564L114.988 285.094L114.918 283.61V281.58H116.192V287.992C116.192 289.299 115.866 290.26 115.212 290.876C114.559 291.492 113.602 291.8 112.342 291.8ZM112.174 288.692C111.456 288.692 110.812 288.543 110.242 288.244C109.682 287.936 109.234 287.511 108.898 286.97C108.572 286.429 108.408 285.803 108.408 285.094C108.408 284.375 108.572 283.75 108.898 283.218C109.234 282.677 109.682 282.257 110.242 281.958C110.812 281.659 111.456 281.51 112.174 281.51C112.809 281.51 113.388 281.641 113.91 281.902C114.433 282.154 114.848 282.546 115.156 283.078C115.474 283.61 115.632 284.282 115.632 285.094C115.632 285.897 115.474 286.564 115.156 287.096C114.848 287.628 114.433 288.029 113.91 288.3C113.388 288.561 112.809 288.692 112.174 288.692ZM112.328 287.516C112.823 287.516 113.262 287.413 113.644 287.208C114.027 287.003 114.326 286.718 114.54 286.354C114.764 285.99 114.876 285.57 114.876 285.094C114.876 284.618 114.764 284.198 114.54 283.834C114.326 283.47 114.027 283.19 113.644 282.994C113.262 282.789 112.823 282.686 112.328 282.686C111.834 282.686 111.39 282.789 110.998 282.994C110.616 283.19 110.312 283.47 110.088 283.834C109.874 284.198 109.766 284.618 109.766 285.094C109.766 285.57 109.874 285.99 110.088 286.354C110.312 286.718 110.616 287.003 110.998 287.208C111.39 287.413 111.834 287.516 112.328 287.516ZM128.042 281.51C128.64 281.51 129.167 281.627 129.624 281.86C130.082 282.093 130.436 282.448 130.688 282.924C130.95 283.4 131.08 284.002 131.08 284.73V289H129.736V284.884C129.736 284.165 129.568 283.624 129.232 283.26C128.896 282.896 128.425 282.714 127.818 282.714C127.37 282.714 126.978 282.807 126.642 282.994C126.306 283.181 126.045 283.456 125.858 283.82C125.681 284.184 125.592 284.637 125.592 285.178V289H124.248V284.884C124.248 284.165 124.08 283.624 123.744 283.26C123.418 282.896 122.946 282.714 122.33 282.714C121.892 282.714 121.504 282.807 121.168 282.994C120.832 283.181 120.571 283.456 120.384 283.82C120.198 284.184 120.104 284.637 120.104 285.178V289H118.76V281.58H120.048V283.554L119.838 283.05C120.072 282.565 120.431 282.187 120.916 281.916C121.402 281.645 121.966 281.51 122.61 281.51C123.32 281.51 123.931 281.687 124.444 282.042C124.958 282.387 125.294 282.915 125.452 283.624L124.906 283.4C125.13 282.831 125.522 282.373 126.082 282.028C126.642 281.683 127.296 281.51 128.042 281.51ZM138.159 289V287.432L138.089 287.138V284.464C138.089 283.895 137.921 283.456 137.585 283.148C137.259 282.831 136.764 282.672 136.101 282.672C135.663 282.672 135.233 282.747 134.813 282.896C134.393 283.036 134.039 283.227 133.749 283.47L133.189 282.462C133.572 282.154 134.029 281.921 134.561 281.762C135.103 281.594 135.667 281.51 136.255 281.51C137.273 281.51 138.057 281.757 138.607 282.252C139.158 282.747 139.433 283.503 139.433 284.52V289H138.159ZM135.723 289.084C135.173 289.084 134.687 288.991 134.267 288.804C133.857 288.617 133.539 288.361 133.315 288.034C133.091 287.698 132.979 287.32 132.979 286.9C132.979 286.499 133.073 286.135 133.259 285.808C133.455 285.481 133.768 285.22 134.197 285.024C134.636 284.828 135.224 284.73 135.961 284.73H138.313V285.696H136.017C135.345 285.696 134.893 285.808 134.659 286.032C134.426 286.256 134.309 286.527 134.309 286.844C134.309 287.208 134.454 287.502 134.743 287.726C135.033 287.941 135.434 288.048 135.947 288.048C136.451 288.048 136.89 287.936 137.263 287.712C137.646 287.488 137.921 287.161 138.089 286.732L138.355 287.656C138.178 288.095 137.865 288.445 137.417 288.706C136.969 288.958 136.405 289.084 135.723 289.084ZM141.92 289V281.58H143.264V289H141.92ZM142.592 280.152C142.331 280.152 142.112 280.068 141.934 279.9C141.766 279.732 141.682 279.527 141.682 279.284C141.682 279.032 141.766 278.822 141.934 278.654C142.112 278.486 142.331 278.402 142.592 278.402C142.854 278.402 143.068 278.486 143.236 278.654C143.414 278.813 143.502 279.013 143.502 279.256C143.502 279.508 143.418 279.723 143.25 279.9C143.082 280.068 142.863 280.152 142.592 280.152ZM145.831 289V278.612H147.175V289H145.831ZM150.063 289.084C149.801 289.084 149.577 288.995 149.391 288.818C149.204 288.631 149.111 288.398 149.111 288.118C149.111 287.838 149.204 287.609 149.391 287.432C149.577 287.255 149.801 287.166 150.063 287.166C150.315 287.166 150.529 287.255 150.707 287.432C150.893 287.609 150.987 287.838 150.987 288.118C150.987 288.398 150.893 288.631 150.707 288.818C150.529 288.995 150.315 289.084 150.063 289.084ZM155.983 289.084C155.227 289.084 154.55 288.921 153.953 288.594C153.365 288.267 152.903 287.819 152.567 287.25C152.231 286.681 152.063 286.027 152.063 285.29C152.063 284.553 152.231 283.899 152.567 283.33C152.903 282.761 153.365 282.317 153.953 282C154.55 281.673 155.227 281.51 155.983 281.51C156.655 281.51 157.252 281.645 157.775 281.916C158.307 282.177 158.717 282.569 159.007 283.092L157.985 283.75C157.742 283.386 157.443 283.12 157.089 282.952C156.743 282.775 156.37 282.686 155.969 282.686C155.483 282.686 155.049 282.793 154.667 283.008C154.284 283.223 153.981 283.526 153.757 283.918C153.533 284.301 153.421 284.758 153.421 285.29C153.421 285.822 153.533 286.284 153.757 286.676C153.981 287.068 154.284 287.371 154.667 287.586C155.049 287.801 155.483 287.908 155.969 287.908C156.37 287.908 156.743 287.824 157.089 287.656C157.443 287.479 157.742 287.208 157.985 286.844L159.007 287.488C158.717 288.001 158.307 288.398 157.775 288.678C157.252 288.949 156.655 289.084 155.983 289.084ZM163.815 289.084C163.069 289.084 162.406 288.921 161.827 288.594C161.249 288.267 160.791 287.819 160.455 287.25C160.119 286.671 159.951 286.018 159.951 285.29C159.951 284.553 160.119 283.899 160.455 283.33C160.791 282.761 161.249 282.317 161.827 282C162.406 281.673 163.069 281.51 163.815 281.51C164.553 281.51 165.211 281.673 165.789 282C166.377 282.317 166.835 282.761 167.161 283.33C167.497 283.89 167.665 284.543 167.665 285.29C167.665 286.027 167.497 286.681 167.161 287.25C166.835 287.819 166.377 288.267 165.789 288.594C165.211 288.921 164.553 289.084 163.815 289.084ZM163.815 287.908C164.291 287.908 164.716 287.801 165.089 287.586C165.472 287.371 165.771 287.068 165.985 286.676C166.2 286.275 166.307 285.813 166.307 285.29C166.307 284.758 166.2 284.301 165.985 283.918C165.771 283.526 165.472 283.223 165.089 283.008C164.716 282.793 164.291 282.686 163.815 282.686C163.339 282.686 162.915 282.793 162.541 283.008C162.168 283.223 161.869 283.526 161.645 283.918C161.421 284.301 161.309 284.758 161.309 285.29C161.309 285.813 161.421 286.275 161.645 286.676C161.869 287.068 162.168 287.371 162.541 287.586C162.915 287.801 163.339 287.908 163.815 287.908ZM178.806 281.51C179.403 281.51 179.931 281.627 180.388 281.86C180.845 282.093 181.2 282.448 181.452 282.924C181.713 283.4 181.844 284.002 181.844 284.73V289H180.5V284.884C180.5 284.165 180.332 283.624 179.996 283.26C179.66 282.896 179.189 282.714 178.582 282.714C178.134 282.714 177.742 282.807 177.406 282.994C177.07 283.181 176.809 283.456 176.622 283.82C176.445 284.184 176.356 284.637 176.356 285.178V289H175.012V284.884C175.012 284.165 174.844 283.624 174.508 283.26C174.181 282.896 173.71 282.714 173.094 282.714C172.655 282.714 172.268 282.807 171.932 282.994C171.596 283.181 171.335 283.456 171.148 283.82C170.961 284.184 170.868 284.637 170.868 285.178V289H169.524V281.58H170.812V283.554L170.602 283.05C170.835 282.565 171.195 282.187 171.68 281.916C172.165 281.645 172.73 281.51 173.374 281.51C174.083 281.51 174.695 281.687 175.208 282.042C175.721 282.387 176.057 282.915 176.216 283.624L175.67 283.4C175.894 282.831 176.286 282.373 176.846 282.028C177.406 281.683 178.059 281.51 178.806 281.51Z" fill="black"/>
<rect x="20.5" y="269.5" width="307" height="29" rx="4.5" stroke="#EAEAEE"/>
<mask id="mask9_1753_2894" style="mask-type:alpha" maskUnits="userSpaceOnUse" x="30" y="275" width="18" height="18">
<rect x="30" y="275" width="18" height="18" fill="#D9D9D9"/>
</mask>
<g mask="url(#mask9_1753_2894)">
<path d="M33 290C32.5875 290 32.2344 289.853 31.9406 289.559C31.6469 289.266 31.5 288.913 31.5 288.5V279.5C31.5 279.087 31.6469 278.734 31.9406 278.441C32.2344 278.147 32.5875 278 33 278H45C45.4125 278 45.7656 278.147 46.0594 278.441C46.3531 278.734 46.5 279.087 46.5 279.5V288.5C46.5 288.913 46.3531 289.266 46.0594 289.559C45.7656 289.853 45.4125 290 45 290H33ZM39 284.75L33 281V288.5H45V281L39 284.75ZM39 283.25L45 279.5H33L39 283.25ZM33 281V279.5V288.5V281Z" fill="#AFAFB8"/>
</g>
</svg>
