<svg width="322" height="335" viewBox="0 0 322 335" fill="none" xmlns="http://www.w3.org/2000/svg">
<path d="M60 118H13C6.37258 118 1 123.373 1 130V300.5" stroke="#DFDFE7" stroke-width="1.5"/>
<path d="M81.5 223L12.9303 223.398C6.33017 223.437 1 228.798 1 235.398V305C1 311.627 6.37258 317 13 317H89" stroke="#DFDFE7" stroke-width="1.5"/>
<rect x="21.5" y="190.5" width="155" height="64" rx="11.5" fill="white" stroke="#EAEAEE"/>
<path d="M37.47 215V205.2H41.292C42.1507 205.2 42.8833 205.335 43.49 205.606C44.0967 205.877 44.5633 206.269 44.89 206.782C45.2167 207.295 45.38 207.907 45.38 208.616C45.38 209.325 45.2167 209.937 44.89 210.45C44.5633 210.954 44.0967 211.341 43.49 211.612C42.8833 211.883 42.1507 212.018 41.292 212.018H38.24L38.87 211.374V215H37.47ZM44.022 215L41.53 211.444H43.028L45.548 215H44.022ZM38.87 211.514L38.24 210.828H41.25C42.146 210.828 42.8227 210.637 43.28 210.254C43.7467 209.862 43.98 209.316 43.98 208.616C43.98 207.916 43.7467 207.375 43.28 206.992C42.8227 206.609 42.146 206.418 41.25 206.418H38.24L38.87 205.718V211.514ZM50.6239 215.084C49.8772 215.084 49.2145 214.921 48.6359 214.594C48.0572 214.267 47.5999 213.819 47.2639 213.25C46.9279 212.671 46.7599 212.018 46.7599 211.29C46.7599 210.553 46.9279 209.899 47.2639 209.33C47.5999 208.761 48.0572 208.317 48.6359 208C49.2145 207.673 49.8772 207.51 50.6239 207.51C51.3612 207.51 52.0192 207.673 52.5979 208C53.1859 208.317 53.6432 208.761 53.9699 209.33C54.3059 209.89 54.4739 210.543 54.4739 211.29C54.4739 212.027 54.3059 212.681 53.9699 213.25C53.6432 213.819 53.1859 214.267 52.5979 214.594C52.0192 214.921 51.3612 215.084 50.6239 215.084ZM50.6239 213.908C51.0999 213.908 51.5245 213.801 51.8979 213.586C52.2805 213.371 52.5792 213.068 52.7939 212.676C53.0085 212.275 53.1159 211.813 53.1159 211.29C53.1159 210.758 53.0085 210.301 52.7939 209.918C52.5792 209.526 52.2805 209.223 51.8979 209.008C51.5245 208.793 51.0999 208.686 50.6239 208.686C50.1479 208.686 49.7232 208.793 49.3499 209.008C48.9765 209.223 48.6779 209.526 48.4539 209.918C48.2299 210.301 48.1179 210.758 48.1179 211.29C48.1179 211.813 48.2299 212.275 48.4539 212.676C48.6779 213.068 48.9765 213.371 49.3499 213.586C49.7232 213.801 50.1479 213.908 50.6239 213.908ZM56.3326 215V204.612H57.6766V215H56.3326ZM63.5468 215.084C62.7534 215.084 62.0534 214.921 61.4468 214.594C60.8494 214.267 60.3828 213.819 60.0468 213.25C59.7201 212.681 59.5568 212.027 59.5568 211.29C59.5568 210.553 59.7154 209.899 60.0328 209.33C60.3594 208.761 60.8028 208.317 61.3628 208C61.9321 207.673 62.5714 207.51 63.2808 207.51C63.9994 207.51 64.6341 207.669 65.1848 207.986C65.7354 208.303 66.1648 208.751 66.4728 209.33C66.7901 209.899 66.9488 210.567 66.9488 211.332C66.9488 211.388 66.9441 211.453 66.9348 211.528C66.9348 211.603 66.9301 211.673 66.9208 211.738H60.6068V210.772H66.2208L65.6748 211.108C65.6841 210.632 65.5861 210.207 65.3808 209.834C65.1754 209.461 64.8908 209.171 64.5268 208.966C64.1721 208.751 63.7568 208.644 63.2808 208.644C62.8141 208.644 62.3988 208.751 62.0348 208.966C61.6708 209.171 61.3861 209.465 61.1808 209.848C60.9754 210.221 60.8728 210.651 60.8728 211.136V211.36C60.8728 211.855 60.9848 212.298 61.2088 212.69C61.4421 213.073 61.7641 213.371 62.1748 213.586C62.5854 213.801 63.0568 213.908 63.5888 213.908C64.0274 213.908 64.4241 213.833 64.7788 213.684C65.1428 213.535 65.4601 213.311 65.7308 213.012L66.4728 213.88C66.1368 214.272 65.7168 214.571 65.2128 214.776C64.7181 214.981 64.1628 215.084 63.5468 215.084ZM77.1528 215.112C76.4061 215.112 75.7154 214.991 75.0808 214.748C74.4554 214.496 73.9094 214.146 73.4428 213.698C72.9854 213.241 72.6261 212.709 72.3648 212.102C72.1034 211.495 71.9728 210.828 71.9728 210.1C71.9728 209.372 72.1034 208.705 72.3648 208.098C72.6261 207.491 72.9901 206.964 73.4568 206.516C73.9234 206.059 74.4694 205.709 75.0948 205.466C75.7294 205.214 76.4201 205.088 77.1668 205.088C77.9228 205.088 78.6181 205.219 79.2528 205.48C79.8968 205.732 80.4428 206.11 80.8908 206.614L79.9808 207.496C79.6074 207.104 79.1874 206.815 78.7208 206.628C78.2541 206.432 77.7548 206.334 77.2228 206.334C76.6721 206.334 76.1588 206.427 75.6828 206.614C75.2161 206.801 74.8101 207.062 74.4648 207.398C74.1194 207.734 73.8488 208.135 73.6528 208.602C73.4661 209.059 73.3728 209.559 73.3728 210.1C73.3728 210.641 73.4661 211.145 73.6528 211.612C73.8488 212.069 74.1194 212.466 74.4648 212.802C74.8101 213.138 75.2161 213.399 75.6828 213.586C76.1588 213.773 76.6721 213.866 77.2228 213.866C77.7548 213.866 78.2541 213.773 78.7208 213.586C79.1874 213.39 79.6074 213.091 79.9808 212.69L80.8908 213.572C80.4428 214.076 79.8968 214.459 79.2528 214.72C78.6181 214.981 77.9181 215.112 77.1528 215.112ZM87.2023 215V213.432L87.1323 213.138V210.464C87.1323 209.895 86.9643 209.456 86.6283 209.148C86.3016 208.831 85.8069 208.672 85.1443 208.672C84.7056 208.672 84.2763 208.747 83.8563 208.896C83.4363 209.036 83.0816 209.227 82.7923 209.47L82.2323 208.462C82.6149 208.154 83.0723 207.921 83.6043 207.762C84.1456 207.594 84.7103 207.51 85.2983 207.51C86.3156 207.51 87.0996 207.757 87.6503 208.252C88.2009 208.747 88.4763 209.503 88.4763 210.52V215H87.2023ZM84.7663 215.084C84.2156 215.084 83.7303 214.991 83.3103 214.804C82.8996 214.617 82.5823 214.361 82.3583 214.034C82.1343 213.698 82.0223 213.32 82.0223 212.9C82.0223 212.499 82.1156 212.135 82.3023 211.808C82.4983 211.481 82.8109 211.22 83.2403 211.024C83.6789 210.828 84.2669 210.73 85.0043 210.73H87.3563V211.696H85.0603C84.3883 211.696 83.9356 211.808 83.7023 212.032C83.4689 212.256 83.3523 212.527 83.3523 212.844C83.3523 213.208 83.4969 213.502 83.7863 213.726C84.0756 213.941 84.4769 214.048 84.9903 214.048C85.4943 214.048 85.9329 213.936 86.3063 213.712C86.6889 213.488 86.9643 213.161 87.1323 212.732L87.3983 213.656C87.2209 214.095 86.9083 214.445 86.4603 214.706C86.0123 214.958 85.4476 215.084 84.7663 215.084ZM93.5115 215.084C92.7648 215.084 92.1861 214.883 91.7755 214.482C91.3648 214.081 91.1595 213.507 91.1595 212.76V205.956H92.5035V212.704C92.5035 213.105 92.6015 213.413 92.7975 213.628C93.0028 213.843 93.2921 213.95 93.6655 213.95C94.0855 213.95 94.4355 213.833 94.7155 213.6L95.1355 214.566C94.9301 214.743 94.6828 214.874 94.3935 214.958C94.1135 215.042 93.8195 215.084 93.5115 215.084ZM89.8995 208.686V207.58H94.6315V208.686H89.8995ZM99.8182 215.084C99.0249 215.084 98.3249 214.921 97.7182 214.594C97.1209 214.267 96.6542 213.819 96.3182 213.25C95.9916 212.681 95.8282 212.027 95.8282 211.29C95.8282 210.553 95.9869 209.899 96.3042 209.33C96.6309 208.761 97.0742 208.317 97.6342 208C98.2036 207.673 98.8429 207.51 99.5522 207.51C100.271 207.51 100.906 207.669 101.456 207.986C102.007 208.303 102.436 208.751 102.744 209.33C103.062 209.899 103.22 210.567 103.22 211.332C103.22 211.388 103.216 211.453 103.206 211.528C103.206 211.603 103.202 211.673 103.192 211.738H96.8782V210.772H102.492L101.946 211.108C101.956 210.632 101.858 210.207 101.652 209.834C101.447 209.461 101.162 209.171 100.798 208.966C100.444 208.751 100.028 208.644 99.5522 208.644C99.0856 208.644 98.6702 208.751 98.3062 208.966C97.9422 209.171 97.6576 209.465 97.4522 209.848C97.2469 210.221 97.1442 210.651 97.1442 211.136V211.36C97.1442 211.855 97.2562 212.298 97.4802 212.69C97.7136 213.073 98.0356 213.371 98.4462 213.586C98.8569 213.801 99.3282 213.908 99.8602 213.908C100.299 213.908 100.696 213.833 101.05 213.684C101.414 213.535 101.732 213.311 102.002 213.012L102.744 213.88C102.408 214.272 101.988 214.571 101.484 214.776C100.99 214.981 100.434 215.084 99.8182 215.084ZM108.335 217.8C107.653 217.8 106.991 217.702 106.347 217.506C105.712 217.319 105.194 217.049 104.793 216.694L105.437 215.658C105.782 215.957 106.207 216.19 106.711 216.358C107.215 216.535 107.742 216.624 108.293 216.624C109.17 216.624 109.814 216.419 110.225 216.008C110.635 215.597 110.841 214.972 110.841 214.132V212.564L110.981 211.094L110.911 209.61V207.58H112.185V213.992C112.185 215.299 111.858 216.26 111.204 216.876C110.551 217.492 109.595 217.8 108.335 217.8ZM108.167 214.692C107.448 214.692 106.804 214.543 106.235 214.244C105.675 213.936 105.227 213.511 104.891 212.97C104.564 212.429 104.401 211.803 104.401 211.094C104.401 210.375 104.564 209.75 104.891 209.218C105.227 208.677 105.675 208.257 106.235 207.958C106.804 207.659 107.448 207.51 108.167 207.51C108.801 207.51 109.38 207.641 109.903 207.902C110.425 208.154 110.841 208.546 111.149 209.078C111.466 209.61 111.625 210.282 111.625 211.094C111.625 211.897 111.466 212.564 111.149 213.096C110.841 213.628 110.425 214.029 109.903 214.3C109.38 214.561 108.801 214.692 108.167 214.692ZM108.321 213.516C108.815 213.516 109.254 213.413 109.637 213.208C110.019 213.003 110.318 212.718 110.533 212.354C110.757 211.99 110.869 211.57 110.869 211.094C110.869 210.618 110.757 210.198 110.533 209.834C110.318 209.47 110.019 209.19 109.637 208.994C109.254 208.789 108.815 208.686 108.321 208.686C107.826 208.686 107.383 208.789 106.991 208.994C106.608 209.19 106.305 209.47 106.081 209.834C105.866 210.198 105.759 210.618 105.759 211.094C105.759 211.57 105.866 211.99 106.081 212.354C106.305 212.718 106.608 213.003 106.991 213.208C107.383 213.413 107.826 213.516 108.321 213.516ZM117.931 215.084C117.184 215.084 116.521 214.921 115.943 214.594C115.364 214.267 114.907 213.819 114.571 213.25C114.235 212.671 114.067 212.018 114.067 211.29C114.067 210.553 114.235 209.899 114.571 209.33C114.907 208.761 115.364 208.317 115.943 208C116.521 207.673 117.184 207.51 117.931 207.51C118.668 207.51 119.326 207.673 119.905 208C120.493 208.317 120.95 208.761 121.277 209.33C121.613 209.89 121.781 210.543 121.781 211.29C121.781 212.027 121.613 212.681 121.277 213.25C120.95 213.819 120.493 214.267 119.905 214.594C119.326 214.921 118.668 215.084 117.931 215.084ZM117.931 213.908C118.407 213.908 118.831 213.801 119.205 213.586C119.587 213.371 119.886 213.068 120.101 212.676C120.315 212.275 120.423 211.813 120.423 211.29C120.423 210.758 120.315 210.301 120.101 209.918C119.886 209.526 119.587 209.223 119.205 209.008C118.831 208.793 118.407 208.686 117.931 208.686C117.455 208.686 117.03 208.793 116.657 209.008C116.283 209.223 115.985 209.526 115.761 209.918C115.537 210.301 115.425 210.758 115.425 211.29C115.425 211.813 115.537 212.275 115.761 212.676C115.985 213.068 116.283 213.371 116.657 213.586C117.03 213.801 117.455 213.908 117.931 213.908ZM123.639 215V207.58H124.927V209.596L124.801 209.092C125.007 208.579 125.352 208.187 125.837 207.916C126.323 207.645 126.92 207.51 127.629 207.51V208.812C127.573 208.803 127.517 208.798 127.461 208.798C127.415 208.798 127.368 208.798 127.321 208.798C126.603 208.798 126.033 209.013 125.613 209.442C125.193 209.871 124.983 210.492 124.983 211.304V215H123.639ZM129.909 217.8C129.554 217.8 129.209 217.739 128.873 217.618C128.537 217.506 128.247 217.338 128.004 217.114L128.579 216.106C128.765 216.283 128.971 216.419 129.195 216.512C129.419 216.605 129.657 216.652 129.909 216.652C130.235 216.652 130.506 216.568 130.721 216.4C130.935 216.232 131.136 215.933 131.323 215.504L131.785 214.482L131.925 214.314L134.837 207.58H136.153L132.555 215.742C132.34 216.265 132.097 216.675 131.827 216.974C131.565 217.273 131.276 217.483 130.959 217.604C130.641 217.735 130.291 217.8 129.909 217.8ZM131.673 215.238L128.284 207.58H129.685L132.569 214.188L131.673 215.238Z" fill="#8E8E8E"/>
<path d="M37.47 240V230.2H41.292C42.1507 230.2 42.8833 230.335 43.49 230.606C44.0967 230.877 44.5633 231.269 44.89 231.782C45.2167 232.295 45.38 232.907 45.38 233.616C45.38 234.325 45.2167 234.937 44.89 235.45C44.5633 235.954 44.0967 236.346 43.49 236.626C42.8833 236.897 42.1507 237.032 41.292 237.032H38.24L38.87 236.374V240H37.47ZM38.87 236.514L38.24 235.814H41.25C42.146 235.814 42.8227 235.623 43.28 235.24C43.7467 234.857 43.98 234.316 43.98 233.616C43.98 232.916 43.7467 232.375 43.28 231.992C42.8227 231.609 42.146 231.418 41.25 231.418H38.24L38.87 230.718V236.514ZM47.1041 240V232.58H48.3921V234.596L48.2661 234.092C48.4714 233.579 48.8167 233.187 49.3021 232.916C49.7874 232.645 50.3847 232.51 51.0941 232.51V233.812C51.0381 233.803 50.9821 233.798 50.9261 233.798C50.8794 233.798 50.8327 233.798 50.7861 233.798C50.0674 233.798 49.4981 234.013 49.0781 234.442C48.6581 234.871 48.4481 235.492 48.4481 236.304V240H47.1041ZM55.8602 240.084C55.1135 240.084 54.4509 239.921 53.8722 239.594C53.2935 239.267 52.8362 238.819 52.5002 238.25C52.1642 237.671 51.9962 237.018 51.9962 236.29C51.9962 235.553 52.1642 234.899 52.5002 234.33C52.8362 233.761 53.2935 233.317 53.8722 233C54.4509 232.673 55.1135 232.51 55.8602 232.51C56.5975 232.51 57.2555 232.673 57.8342 233C58.4222 233.317 58.8795 233.761 59.2062 234.33C59.5422 234.89 59.7102 235.543 59.7102 236.29C59.7102 237.027 59.5422 237.681 59.2062 238.25C58.8795 238.819 58.4222 239.267 57.8342 239.594C57.2555 239.921 56.5975 240.084 55.8602 240.084ZM55.8602 238.908C56.3362 238.908 56.7609 238.801 57.1342 238.586C57.5169 238.371 57.8155 238.068 58.0302 237.676C58.2449 237.275 58.3522 236.813 58.3522 236.29C58.3522 235.758 58.2449 235.301 58.0302 234.918C57.8155 234.526 57.5169 234.223 57.1342 234.008C56.7609 233.793 56.3362 233.686 55.8602 233.686C55.3842 233.686 54.9595 233.793 54.5862 234.008C54.2129 234.223 53.9142 234.526 53.6902 234.918C53.4662 235.301 53.3542 235.758 53.3542 236.29C53.3542 236.813 53.4662 237.275 53.6902 237.676C53.9142 238.068 54.2129 238.371 54.5862 238.586C54.9595 238.801 55.3842 238.908 55.8602 238.908ZM64.6349 240.084C63.9163 240.084 63.2723 239.925 62.7029 239.608C62.1429 239.291 61.6996 238.847 61.3729 238.278C61.0463 237.709 60.8829 237.046 60.8829 236.29C60.8829 235.534 61.0463 234.876 61.3729 234.316C61.6996 233.747 62.1429 233.303 62.7029 232.986C63.2723 232.669 63.9163 232.51 64.6349 232.51C65.2603 232.51 65.8249 232.65 66.3289 232.93C66.8329 233.21 67.2343 233.63 67.5329 234.19C67.8409 234.75 67.9949 235.45 67.9949 236.29C67.9949 237.13 67.8456 237.83 67.5469 238.39C67.2576 238.95 66.8609 239.375 66.3569 239.664C65.8529 239.944 65.2789 240.084 64.6349 240.084ZM64.7469 238.908C65.2136 238.908 65.6336 238.801 66.0069 238.586C66.3896 238.371 66.6883 238.068 66.9029 237.676C67.1269 237.275 67.2389 236.813 67.2389 236.29C67.2389 235.758 67.1269 235.301 66.9029 234.918C66.6883 234.526 66.3896 234.223 66.0069 234.008C65.6336 233.793 65.2136 233.686 64.7469 233.686C64.2709 233.686 63.8463 233.793 63.4729 234.008C63.0996 234.223 62.8009 234.526 62.5769 234.918C62.3529 235.301 62.2409 235.758 62.2409 236.29C62.2409 236.813 62.3529 237.275 62.5769 237.676C62.8009 238.068 63.0996 238.371 63.4729 238.586C63.8463 238.801 64.2709 238.908 64.7469 238.908ZM67.2809 240V237.998L67.3649 236.276L67.2249 234.554V229.612H68.5689V240H67.2809ZM74.2339 240.084C73.5992 240.084 73.0392 239.967 72.5539 239.734C72.0779 239.501 71.7046 239.146 71.4339 238.67C71.1726 238.185 71.0419 237.578 71.0419 236.85V232.58H72.3859V236.696C72.3859 237.424 72.5586 237.97 72.9039 238.334C73.2586 238.698 73.7532 238.88 74.3879 238.88C74.8546 238.88 75.2606 238.787 75.6059 238.6C75.9512 238.404 76.2172 238.124 76.4039 237.76C76.5906 237.387 76.6839 236.939 76.6839 236.416V232.58H78.0279V240H76.7539V237.998L76.9639 238.53C76.7212 239.025 76.3572 239.407 75.8719 239.678C75.3866 239.949 74.8406 240.084 74.2339 240.084ZM83.8205 240.084C83.0645 240.084 82.3878 239.921 81.7905 239.594C81.2025 239.267 80.7405 238.819 80.4045 238.25C80.0685 237.681 79.9005 237.027 79.9005 236.29C79.9005 235.553 80.0685 234.899 80.4045 234.33C80.7405 233.761 81.2025 233.317 81.7905 233C82.3878 232.673 83.0645 232.51 83.8205 232.51C84.4925 232.51 85.0898 232.645 85.6125 232.916C86.1445 233.177 86.5552 233.569 86.8445 234.092L85.8225 234.75C85.5798 234.386 85.2812 234.12 84.9265 233.952C84.5812 233.775 84.2078 233.686 83.8065 233.686C83.3212 233.686 82.8872 233.793 82.5045 234.008C82.1218 234.223 81.8185 234.526 81.5945 234.918C81.3705 235.301 81.2585 235.758 81.2585 236.29C81.2585 236.822 81.3705 237.284 81.5945 237.676C81.8185 238.068 82.1218 238.371 82.5045 238.586C82.8872 238.801 83.3212 238.908 83.8065 238.908C84.2078 238.908 84.5812 238.824 84.9265 238.656C85.2812 238.479 85.5798 238.208 85.8225 237.844L86.8445 238.488C86.5552 239.001 86.1445 239.398 85.6125 239.678C85.0898 239.949 84.4925 240.084 83.8205 240.084ZM91.2283 240.084C90.4816 240.084 89.9029 239.883 89.4923 239.482C89.0816 239.081 88.8763 238.507 88.8763 237.76V230.956H90.2203V237.704C90.2203 238.105 90.3183 238.413 90.5143 238.628C90.7196 238.843 91.0089 238.95 91.3823 238.95C91.8023 238.95 92.1523 238.833 92.4323 238.6L92.8523 239.566C92.6469 239.743 92.3996 239.874 92.1103 239.958C91.8303 240.042 91.5363 240.084 91.2283 240.084ZM87.6163 233.686V232.58H92.3483V233.686H87.6163ZM107.519 232.51C108.116 232.51 108.644 232.627 109.101 232.86C109.558 233.093 109.913 233.448 110.165 233.924C110.426 234.4 110.557 235.002 110.557 235.73V240H109.213V235.884C109.213 235.165 109.045 234.624 108.709 234.26C108.373 233.896 107.902 233.714 107.295 233.714C106.847 233.714 106.455 233.807 106.119 233.994C105.783 234.181 105.522 234.456 105.335 234.82C105.158 235.184 105.069 235.637 105.069 236.178V240H103.725V235.884C103.725 235.165 103.557 234.624 103.221 234.26C102.894 233.896 102.423 233.714 101.807 233.714C101.368 233.714 100.981 233.807 100.645 233.994C100.309 234.181 100.048 234.456 99.8609 234.82C99.6742 235.184 99.5809 235.637 99.5809 236.178V240H98.2369V232.58H99.5249V234.554L99.3149 234.05C99.5482 233.565 99.9076 233.187 100.393 232.916C100.878 232.645 101.443 232.51 102.087 232.51C102.796 232.51 103.408 232.687 103.921 233.042C104.434 233.387 104.77 233.915 104.929 234.624L104.383 234.4C104.607 233.831 104.999 233.373 105.559 233.028C106.119 232.683 106.772 232.51 107.519 232.51ZM117.636 240V238.432L117.566 238.138V235.464C117.566 234.895 117.398 234.456 117.062 234.148C116.735 233.831 116.241 233.672 115.578 233.672C115.139 233.672 114.71 233.747 114.29 233.896C113.87 234.036 113.515 234.227 113.226 234.47L112.666 233.462C113.049 233.154 113.506 232.921 114.038 232.762C114.579 232.594 115.144 232.51 115.732 232.51C116.749 232.51 117.533 232.757 118.084 233.252C118.635 233.747 118.91 234.503 118.91 235.52V240H117.636ZM115.2 240.084C114.649 240.084 114.164 239.991 113.744 239.804C113.333 239.617 113.016 239.361 112.792 239.034C112.568 238.698 112.456 238.32 112.456 237.9C112.456 237.499 112.549 237.135 112.736 236.808C112.932 236.481 113.245 236.22 113.674 236.024C114.113 235.828 114.701 235.73 115.438 235.73H117.79V236.696H115.494C114.822 236.696 114.369 236.808 114.136 237.032C113.903 237.256 113.786 237.527 113.786 237.844C113.786 238.208 113.931 238.502 114.22 238.726C114.509 238.941 114.911 239.048 115.424 239.048C115.928 239.048 116.367 238.936 116.74 238.712C117.123 238.488 117.398 238.161 117.566 237.732L117.832 238.656C117.655 239.095 117.342 239.445 116.894 239.706C116.446 239.958 115.881 240.084 115.2 240.084ZM125.359 232.51C125.966 232.51 126.498 232.627 126.955 232.86C127.422 233.093 127.786 233.448 128.047 233.924C128.308 234.4 128.439 235.002 128.439 235.73V240H127.095V235.884C127.095 235.165 126.918 234.624 126.563 234.26C126.218 233.896 125.728 233.714 125.093 233.714C124.617 233.714 124.202 233.807 123.847 233.994C123.492 234.181 123.217 234.456 123.021 234.82C122.834 235.184 122.741 235.637 122.741 236.178V240H121.397V232.58H122.685V234.582L122.475 234.05C122.718 233.565 123.091 233.187 123.595 232.916C124.099 232.645 124.687 232.51 125.359 232.51ZM135.532 240V238.432L135.462 238.138V235.464C135.462 234.895 135.294 234.456 134.958 234.148C134.632 233.831 134.137 233.672 133.474 233.672C133.036 233.672 132.606 233.747 132.186 233.896C131.766 234.036 131.412 234.227 131.122 234.47L130.562 233.462C130.945 233.154 131.402 232.921 131.934 232.762C132.476 232.594 133.04 232.51 133.628 232.51C134.646 232.51 135.43 232.757 135.98 233.252C136.531 233.747 136.806 234.503 136.806 235.52V240H135.532ZM133.096 240.084C132.546 240.084 132.06 239.991 131.64 239.804C131.23 239.617 130.912 239.361 130.688 239.034C130.464 238.698 130.352 238.32 130.352 237.9C130.352 237.499 130.446 237.135 130.632 236.808C130.828 236.481 131.141 236.22 131.57 236.024C132.009 235.828 132.597 235.73 133.334 235.73H135.686V236.696H133.39C132.718 236.696 132.266 236.808 132.032 237.032C131.799 237.256 131.682 237.527 131.682 237.844C131.682 238.208 131.827 238.502 132.116 238.726C132.406 238.941 132.807 239.048 133.32 239.048C133.824 239.048 134.263 238.936 134.636 238.712C135.019 238.488 135.294 238.161 135.462 237.732L135.728 238.656C135.551 239.095 135.238 239.445 134.79 239.706C134.342 239.958 133.778 240.084 133.096 240.084ZM142.542 242.8C141.86 242.8 141.198 242.702 140.554 242.506C139.919 242.319 139.401 242.049 139 241.694L139.644 240.658C139.989 240.957 140.414 241.19 140.918 241.358C141.422 241.535 141.949 241.624 142.5 241.624C143.377 241.624 144.021 241.419 144.432 241.008C144.842 240.597 145.048 239.972 145.048 239.132V237.564L145.188 236.094L145.118 234.61V232.58H146.392V238.992C146.392 240.299 146.065 241.26 145.412 241.876C144.758 242.492 143.802 242.8 142.542 242.8ZM142.374 239.692C141.655 239.692 141.011 239.543 140.442 239.244C139.882 238.936 139.434 238.511 139.098 237.97C138.771 237.429 138.608 236.803 138.608 236.094C138.608 235.375 138.771 234.75 139.098 234.218C139.434 233.677 139.882 233.257 140.442 232.958C141.011 232.659 141.655 232.51 142.374 232.51C143.008 232.51 143.587 232.641 144.11 232.902C144.632 233.154 145.048 233.546 145.356 234.078C145.673 234.61 145.832 235.282 145.832 236.094C145.832 236.897 145.673 237.564 145.356 238.096C145.048 238.628 144.632 239.029 144.11 239.3C143.587 239.561 143.008 239.692 142.374 239.692ZM142.528 238.516C143.022 238.516 143.461 238.413 143.844 238.208C144.226 238.003 144.525 237.718 144.74 237.354C144.964 236.99 145.076 236.57 145.076 236.094C145.076 235.618 144.964 235.198 144.74 234.834C144.525 234.47 144.226 234.19 143.844 233.994C143.461 233.789 143.022 233.686 142.528 233.686C142.033 233.686 141.59 233.789 141.198 233.994C140.815 234.19 140.512 234.47 140.288 234.834C140.073 235.198 139.966 235.618 139.966 236.094C139.966 236.57 140.073 236.99 140.288 237.354C140.512 237.718 140.815 238.003 141.198 238.208C141.59 238.413 142.033 238.516 142.528 238.516ZM152.264 240.084C151.47 240.084 150.77 239.921 150.164 239.594C149.566 239.267 149.1 238.819 148.764 238.25C148.437 237.681 148.274 237.027 148.274 236.29C148.274 235.553 148.432 234.899 148.75 234.33C149.076 233.761 149.52 233.317 150.08 233C150.649 232.673 151.288 232.51 151.998 232.51C152.716 232.51 153.351 232.669 153.902 232.986C154.452 233.303 154.882 233.751 155.19 234.33C155.507 234.899 155.666 235.567 155.666 236.332C155.666 236.388 155.661 236.453 155.652 236.528C155.652 236.603 155.647 236.673 155.638 236.738H149.324V235.772H154.938L154.392 236.108C154.401 235.632 154.303 235.207 154.098 234.834C153.892 234.461 153.608 234.171 153.244 233.966C152.889 233.751 152.474 233.644 151.998 233.644C151.531 233.644 151.116 233.751 150.752 233.966C150.388 234.171 150.103 234.465 149.898 234.848C149.692 235.221 149.59 235.651 149.59 236.136V236.36C149.59 236.855 149.702 237.298 149.926 237.69C150.159 238.073 150.481 238.371 150.892 238.586C151.302 238.801 151.774 238.908 152.306 238.908C152.744 238.908 153.141 238.833 153.496 238.684C153.86 238.535 154.177 238.311 154.448 238.012L155.19 238.88C154.854 239.272 154.434 239.571 153.93 239.776C153.435 239.981 152.88 240.084 152.264 240.084ZM157.532 240V232.58H158.82V234.596L158.694 234.092C158.899 233.579 159.244 233.187 159.73 232.916C160.215 232.645 160.812 232.51 161.522 232.51V233.812C161.466 233.803 161.41 233.798 161.354 233.798C161.307 233.798 161.26 233.798 161.214 233.798C160.495 233.798 159.926 234.013 159.506 234.442C159.086 234.871 158.876 235.492 158.876 236.304V240H157.532Z" fill="black"/>
<rect x="187.5" y="190.5" width="134" height="64" rx="11.5" fill="white" stroke="#EAEAEE"/>
<path d="M203.47 215V205.2H204.87V213.782H210.176V215H203.47ZM214.669 215.084C213.922 215.084 213.259 214.921 212.681 214.594C212.102 214.267 211.645 213.819 211.309 213.25C210.973 212.671 210.805 212.018 210.805 211.29C210.805 210.553 210.973 209.899 211.309 209.33C211.645 208.761 212.102 208.317 212.681 208C213.259 207.673 213.922 207.51 214.669 207.51C215.406 207.51 216.064 207.673 216.643 208C217.231 208.317 217.688 208.761 218.015 209.33C218.351 209.89 218.519 210.543 218.519 211.29C218.519 212.027 218.351 212.681 218.015 213.25C217.688 213.819 217.231 214.267 216.643 214.594C216.064 214.921 215.406 215.084 214.669 215.084ZM214.669 213.908C215.145 213.908 215.569 213.801 215.943 213.586C216.325 213.371 216.624 213.068 216.839 212.676C217.053 212.275 217.161 211.813 217.161 211.29C217.161 210.758 217.053 210.301 216.839 209.918C216.624 209.526 216.325 209.223 215.943 209.008C215.569 208.793 215.145 208.686 214.669 208.686C214.193 208.686 213.768 208.793 213.395 209.008C213.021 209.223 212.723 209.526 212.499 209.918C212.275 210.301 212.163 210.758 212.163 211.29C212.163 211.813 212.275 212.275 212.499 212.676C212.723 213.068 213.021 213.371 213.395 213.586C213.768 213.801 214.193 213.908 214.669 213.908ZM223.612 215.084C222.856 215.084 222.179 214.921 221.582 214.594C220.994 214.267 220.532 213.819 220.196 213.25C219.86 212.681 219.692 212.027 219.692 211.29C219.692 210.553 219.86 209.899 220.196 209.33C220.532 208.761 220.994 208.317 221.582 208C222.179 207.673 222.856 207.51 223.612 207.51C224.284 207.51 224.881 207.645 225.404 207.916C225.936 208.177 226.346 208.569 226.636 209.092L225.614 209.75C225.371 209.386 225.072 209.12 224.718 208.952C224.372 208.775 223.999 208.686 223.598 208.686C223.112 208.686 222.678 208.793 222.296 209.008C221.913 209.223 221.61 209.526 221.386 209.918C221.162 210.301 221.05 210.758 221.05 211.29C221.05 211.822 221.162 212.284 221.386 212.676C221.61 213.068 221.913 213.371 222.296 213.586C222.678 213.801 223.112 213.908 223.598 213.908C223.999 213.908 224.372 213.824 224.718 213.656C225.072 213.479 225.371 213.208 225.614 212.844L226.636 213.488C226.346 214.001 225.936 214.398 225.404 214.678C224.881 214.949 224.284 215.084 223.612 215.084ZM232.982 215V213.432L232.912 213.138V210.464C232.912 209.895 232.744 209.456 232.408 209.148C232.081 208.831 231.586 208.672 230.924 208.672C230.485 208.672 230.056 208.747 229.636 208.896C229.216 209.036 228.861 209.227 228.572 209.47L228.012 208.462C228.394 208.154 228.852 207.921 229.384 207.762C229.925 207.594 230.49 207.51 231.078 207.51C232.095 207.51 232.879 207.757 233.43 208.252C233.98 208.747 234.256 209.503 234.256 210.52V215H232.982ZM230.546 215.084C229.995 215.084 229.51 214.991 229.09 214.804C228.679 214.617 228.362 214.361 228.138 214.034C227.914 213.698 227.802 213.32 227.802 212.9C227.802 212.499 227.895 212.135 228.082 211.808C228.278 211.481 228.59 211.22 229.02 211.024C229.458 210.828 230.046 210.73 230.784 210.73H233.136V211.696H230.84C230.168 211.696 229.715 211.808 229.482 212.032C229.248 212.256 229.132 212.527 229.132 212.844C229.132 213.208 229.276 213.502 229.566 213.726C229.855 213.941 230.256 214.048 230.77 214.048C231.274 214.048 231.712 213.936 232.086 213.712C232.468 213.488 232.744 213.161 232.912 212.732L233.178 213.656C233 214.095 232.688 214.445 232.24 214.706C231.792 214.958 231.227 215.084 230.546 215.084ZM239.291 215.084C238.544 215.084 237.965 214.883 237.555 214.482C237.144 214.081 236.939 213.507 236.939 212.76V205.956H238.283V212.704C238.283 213.105 238.381 213.413 238.577 213.628C238.782 213.843 239.071 213.95 239.445 213.95C239.865 213.95 240.215 213.833 240.495 213.6L240.915 214.566C240.709 214.743 240.462 214.874 240.173 214.958C239.893 215.042 239.599 215.084 239.291 215.084ZM235.679 208.686V207.58H240.411V208.686H235.679ZM242.54 215V207.58H243.884V215H242.54ZM243.212 206.152C242.95 206.152 242.731 206.068 242.554 205.9C242.386 205.732 242.302 205.527 242.302 205.284C242.302 205.032 242.386 204.822 242.554 204.654C242.731 204.486 242.95 204.402 243.212 204.402C243.473 204.402 243.688 204.486 243.856 204.654C244.033 204.813 244.122 205.013 244.122 205.256C244.122 205.508 244.038 205.723 243.87 205.9C243.702 206.068 243.482 206.152 243.212 206.152ZM249.628 215.084C248.881 215.084 248.218 214.921 247.64 214.594C247.061 214.267 246.604 213.819 246.268 213.25C245.932 212.671 245.764 212.018 245.764 211.29C245.764 210.553 245.932 209.899 246.268 209.33C246.604 208.761 247.061 208.317 247.64 208C248.218 207.673 248.881 207.51 249.628 207.51C250.365 207.51 251.023 207.673 251.602 208C252.19 208.317 252.647 208.761 252.974 209.33C253.31 209.89 253.478 210.543 253.478 211.29C253.478 212.027 253.31 212.681 252.974 213.25C252.647 213.819 252.19 214.267 251.602 214.594C251.023 214.921 250.365 215.084 249.628 215.084ZM249.628 213.908C250.104 213.908 250.528 213.801 250.902 213.586C251.284 213.371 251.583 213.068 251.798 212.676C252.012 212.275 252.12 211.813 252.12 211.29C252.12 210.758 252.012 210.301 251.798 209.918C251.583 209.526 251.284 209.223 250.902 209.008C250.528 208.793 250.104 208.686 249.628 208.686C249.152 208.686 248.727 208.793 248.354 209.008C247.98 209.223 247.682 209.526 247.458 209.918C247.234 210.301 247.122 210.758 247.122 211.29C247.122 211.813 247.234 212.275 247.458 212.676C247.682 213.068 247.98 213.371 248.354 213.586C248.727 213.801 249.152 213.908 249.628 213.908ZM259.299 207.51C259.905 207.51 260.437 207.627 260.895 207.86C261.361 208.093 261.725 208.448 261.987 208.924C262.248 209.4 262.379 210.002 262.379 210.73V215H261.035V210.884C261.035 210.165 260.857 209.624 260.503 209.26C260.157 208.896 259.667 208.714 259.033 208.714C258.557 208.714 258.141 208.807 257.787 208.994C257.432 209.181 257.157 209.456 256.961 209.82C256.774 210.184 256.681 210.637 256.681 211.178V215H255.337V207.58H256.625V209.582L256.415 209.05C256.657 208.565 257.031 208.187 257.535 207.916C258.039 207.645 258.627 207.51 259.299 207.51Z" fill="#8E8E8E"/>
<path d="M207.852 240.112C207.105 240.112 206.415 239.991 205.78 239.748C205.155 239.496 204.609 239.146 204.142 238.698C203.685 238.241 203.325 237.709 203.064 237.102C202.803 236.495 202.672 235.828 202.672 235.1C202.672 234.372 202.803 233.705 203.064 233.098C203.325 232.491 203.689 231.964 204.156 231.516C204.623 231.059 205.169 230.709 205.794 230.466C206.429 230.214 207.119 230.088 207.866 230.088C208.622 230.088 209.317 230.219 209.952 230.48C210.596 230.732 211.142 231.11 211.59 231.614L210.68 232.496C210.307 232.104 209.887 231.815 209.42 231.628C208.953 231.432 208.454 231.334 207.922 231.334C207.371 231.334 206.858 231.427 206.382 231.614C205.915 231.801 205.509 232.062 205.164 232.398C204.819 232.734 204.548 233.135 204.352 233.602C204.165 234.059 204.072 234.559 204.072 235.1C204.072 235.641 204.165 236.145 204.352 236.612C204.548 237.069 204.819 237.466 205.164 237.802C205.509 238.138 205.915 238.399 206.382 238.586C206.858 238.773 207.371 238.866 207.922 238.866C208.454 238.866 208.953 238.773 209.42 238.586C209.887 238.39 210.307 238.091 210.68 237.69L211.59 238.572C211.142 239.076 210.596 239.459 209.952 239.72C209.317 239.981 208.617 240.112 207.852 240.112ZM217.353 232.51C217.96 232.51 218.492 232.627 218.949 232.86C219.416 233.093 219.78 233.448 220.041 233.924C220.303 234.4 220.433 235.002 220.433 235.73V240H219.089V235.884C219.089 235.165 218.912 234.624 218.557 234.26C218.212 233.896 217.722 233.714 217.087 233.714C216.611 233.714 216.196 233.807 215.841 233.994C215.487 234.181 215.211 234.456 215.015 234.82C214.829 235.184 214.735 235.637 214.735 236.178V240H213.391V229.612H214.735V234.582L214.469 234.05C214.712 233.565 215.085 233.187 215.589 232.916C216.093 232.645 216.681 232.51 217.353 232.51ZM226.224 240.084C225.431 240.084 224.731 239.921 224.124 239.594C223.527 239.267 223.06 238.819 222.724 238.25C222.398 237.681 222.234 237.027 222.234 236.29C222.234 235.553 222.393 234.899 222.71 234.33C223.037 233.761 223.48 233.317 224.04 233C224.61 232.673 225.249 232.51 225.958 232.51C226.677 232.51 227.312 232.669 227.862 232.986C228.413 233.303 228.842 233.751 229.15 234.33C229.468 234.899 229.626 235.567 229.626 236.332C229.626 236.388 229.622 236.453 229.612 236.528C229.612 236.603 229.608 236.673 229.598 236.738H223.284V235.772H228.898L228.352 236.108C228.362 235.632 228.264 235.207 228.058 234.834C227.853 234.461 227.568 234.171 227.204 233.966C226.85 233.751 226.434 233.644 225.958 233.644C225.492 233.644 225.076 233.751 224.712 233.966C224.348 234.171 224.064 234.465 223.858 234.848C223.653 235.221 223.55 235.651 223.55 236.136V236.36C223.55 236.855 223.662 237.298 223.886 237.69C224.12 238.073 224.442 238.371 224.852 238.586C225.263 238.801 225.734 238.908 226.266 238.908C226.705 238.908 227.102 238.833 227.456 238.684C227.82 238.535 228.138 238.311 228.408 238.012L229.15 238.88C228.814 239.272 228.394 239.571 227.89 239.776C227.396 239.981 226.84 240.084 226.224 240.084ZM235.455 232.51C236.061 232.51 236.593 232.627 237.051 232.86C237.517 233.093 237.881 233.448 238.143 233.924C238.404 234.4 238.535 235.002 238.535 235.73V240H237.191V235.884C237.191 235.165 237.013 234.624 236.659 234.26C236.313 233.896 235.823 233.714 235.189 233.714C234.713 233.714 234.297 233.807 233.943 233.994C233.588 234.181 233.313 234.456 233.117 234.82C232.93 235.184 232.837 235.637 232.837 236.178V240H231.493V232.58H232.781V234.582L232.571 234.05C232.813 233.565 233.187 233.187 233.691 232.916C234.195 232.645 234.783 232.51 235.455 232.51ZM244.984 232.51C245.591 232.51 246.123 232.627 246.58 232.86C247.047 233.093 247.411 233.448 247.672 233.924C247.933 234.4 248.064 235.002 248.064 235.73V240H246.72V235.884C246.72 235.165 246.543 234.624 246.188 234.26C245.843 233.896 245.353 233.714 244.718 233.714C244.242 233.714 243.827 233.807 243.472 233.994C243.117 234.181 242.842 234.456 242.646 234.82C242.459 235.184 242.366 235.637 242.366 236.178V240H241.022V232.58H242.31V234.582L242.1 234.05C242.343 233.565 242.716 233.187 243.22 232.916C243.724 232.645 244.312 232.51 244.984 232.51ZM255.157 240V238.432L255.087 238.138V235.464C255.087 234.895 254.919 234.456 254.583 234.148C254.257 233.831 253.762 233.672 253.099 233.672C252.661 233.672 252.231 233.747 251.811 233.896C251.391 234.036 251.037 234.227 250.747 234.47L250.187 233.462C250.57 233.154 251.027 232.921 251.559 232.762C252.101 232.594 252.665 232.51 253.253 232.51C254.271 232.51 255.055 232.757 255.605 233.252C256.156 233.747 256.431 234.503 256.431 235.52V240H255.157ZM252.721 240.084C252.171 240.084 251.685 239.991 251.265 239.804C250.855 239.617 250.537 239.361 250.313 239.034C250.089 238.698 249.977 238.32 249.977 237.9C249.977 237.499 250.071 237.135 250.257 236.808C250.453 236.481 250.766 236.22 251.195 236.024C251.634 235.828 252.222 235.73 252.959 235.73H255.311V236.696H253.015C252.343 236.696 251.891 236.808 251.657 237.032C251.424 237.256 251.307 237.527 251.307 237.844C251.307 238.208 251.452 238.502 251.741 238.726C252.031 238.941 252.432 239.048 252.945 239.048C253.449 239.048 253.888 238.936 254.261 238.712C254.644 238.488 254.919 238.161 255.087 237.732L255.353 238.656C255.176 239.095 254.863 239.445 254.415 239.706C253.967 239.958 253.403 240.084 252.721 240.084ZM258.919 240V232.58H260.263V240H258.919ZM259.591 231.152C259.329 231.152 259.11 231.068 258.933 230.9C258.765 230.732 258.681 230.527 258.681 230.284C258.681 230.032 258.765 229.822 258.933 229.654C259.11 229.486 259.329 229.402 259.591 229.402C259.852 229.402 260.067 229.486 260.235 229.654C260.412 229.813 260.501 230.013 260.501 230.256C260.501 230.508 260.417 230.723 260.249 230.9C260.081 231.068 259.861 231.152 259.591 231.152Z" fill="black"/>
<rect x="21.5" y="85.5" width="122" height="64" rx="11.5" fill="white" stroke="#EAEAEE"/>
<path d="M37.97 110V100.2H39.118L45.6 108.25H44.998V100.2H46.398V110H45.25L38.768 101.95H39.37V110H37.97ZM52.3133 110.084C51.5667 110.084 50.904 109.921 50.3253 109.594C49.7467 109.267 49.2893 108.819 48.9533 108.25C48.6173 107.671 48.4493 107.018 48.4493 106.29C48.4493 105.553 48.6173 104.899 48.9533 104.33C49.2893 103.761 49.7467 103.317 50.3253 103C50.904 102.673 51.5667 102.51 52.3133 102.51C53.0507 102.51 53.7087 102.673 54.2873 103C54.8753 103.317 55.3327 103.761 55.6593 104.33C55.9953 104.89 56.1633 105.543 56.1633 106.29C56.1633 107.027 55.9953 107.681 55.6593 108.25C55.3327 108.819 54.8753 109.267 54.2873 109.594C53.7087 109.921 53.0507 110.084 52.3133 110.084ZM52.3133 108.908C52.7893 108.908 53.214 108.801 53.5873 108.586C53.97 108.371 54.2687 108.068 54.4833 107.676C54.698 107.275 54.8053 106.813 54.8053 106.29C54.8053 105.758 54.698 105.301 54.4833 104.918C54.2687 104.526 53.97 104.223 53.5873 104.008C53.214 103.793 52.7893 103.686 52.3133 103.686C51.8373 103.686 51.4127 103.793 51.0393 104.008C50.666 104.223 50.3673 104.526 50.1433 104.918C49.9193 105.301 49.8073 105.758 49.8073 106.29C49.8073 106.813 49.9193 107.275 50.1433 107.676C50.3673 108.068 50.666 108.371 51.0393 108.586C51.4127 108.801 51.8373 108.908 52.3133 108.908ZM64.9598 110.084C64.2131 110.084 63.5505 109.921 62.9718 109.594C62.3931 109.267 61.9358 108.819 61.5998 108.25C61.2638 107.671 61.0958 107.018 61.0958 106.29C61.0958 105.553 61.2638 104.899 61.5998 104.33C61.9358 103.761 62.3931 103.317 62.9718 103C63.5505 102.673 64.2131 102.51 64.9598 102.51C65.6971 102.51 66.3551 102.673 66.9338 103C67.5218 103.317 67.9791 103.761 68.3058 104.33C68.6418 104.89 68.8098 105.543 68.8098 106.29C68.8098 107.027 68.6418 107.681 68.3058 108.25C67.9791 108.819 67.5218 109.267 66.9338 109.594C66.3551 109.921 65.6971 110.084 64.9598 110.084ZM64.9598 108.908C65.4358 108.908 65.8605 108.801 66.2338 108.586C66.6165 108.371 66.9151 108.068 67.1298 107.676C67.3445 107.275 67.4518 106.813 67.4518 106.29C67.4518 105.758 67.3445 105.301 67.1298 104.918C66.9151 104.526 66.6165 104.223 66.2338 104.008C65.8605 103.793 65.4358 103.686 64.9598 103.686C64.4838 103.686 64.0591 103.793 63.6858 104.008C63.3125 104.223 63.0138 104.526 62.7898 104.918C62.5658 105.301 62.4538 105.758 62.4538 106.29C62.4538 106.813 62.5658 107.275 62.7898 107.676C63.0138 108.068 63.3125 108.371 63.6858 108.586C64.0591 108.801 64.4838 108.908 64.9598 108.908ZM70.8645 110V101.922C70.8645 101.194 71.0745 100.615 71.4945 100.186C71.9239 99.7473 72.5305 99.528 73.3145 99.528C73.6039 99.528 73.8792 99.5653 74.1405 99.64C74.4112 99.7053 74.6399 99.8127 74.8265 99.962L74.4205 100.984C74.2805 100.872 74.1219 100.788 73.9445 100.732C73.7672 100.667 73.5805 100.634 73.3845 100.634C72.9925 100.634 72.6939 100.746 72.4885 100.97C72.2832 101.185 72.1805 101.507 72.1805 101.936V102.93L72.2085 103.546V110H70.8645ZM69.6045 103.686V102.58H74.3365V103.686H69.6045ZM82.4158 110.112C81.6692 110.112 80.9552 110 80.2738 109.776C79.5925 109.543 79.0558 109.244 78.6638 108.88L79.1818 107.788C79.5552 108.115 80.0312 108.385 80.6098 108.6C81.1885 108.815 81.7905 108.922 82.4158 108.922C82.9852 108.922 83.4472 108.857 83.8018 108.726C84.1565 108.595 84.4178 108.418 84.5858 108.194C84.7538 107.961 84.8378 107.699 84.8378 107.41C84.8378 107.074 84.7258 106.803 84.5018 106.598C84.2872 106.393 84.0025 106.229 83.6478 106.108C83.3025 105.977 82.9198 105.865 82.4998 105.772C82.0798 105.679 81.6552 105.571 81.2258 105.45C80.8058 105.319 80.4185 105.156 80.0638 104.96C79.7185 104.764 79.4385 104.503 79.2238 104.176C79.0092 103.84 78.9018 103.411 78.9018 102.888C78.9018 102.384 79.0325 101.922 79.2938 101.502C79.5645 101.073 79.9752 100.732 80.5258 100.48C81.0858 100.219 81.7952 100.088 82.6538 100.088C83.2232 100.088 83.7878 100.163 84.3478 100.312C84.9078 100.461 85.3932 100.676 85.8038 100.956L85.3418 102.076C84.9218 101.796 84.4785 101.595 84.0118 101.474C83.5452 101.343 83.0925 101.278 82.6538 101.278C82.1032 101.278 81.6505 101.348 81.2958 101.488C80.9412 101.628 80.6798 101.815 80.5118 102.048C80.3532 102.281 80.2738 102.543 80.2738 102.832C80.2738 103.177 80.3812 103.453 80.5958 103.658C80.8198 103.863 81.1045 104.027 81.4498 104.148C81.8045 104.269 82.1918 104.381 82.6118 104.484C83.0318 104.577 83.4518 104.685 83.8718 104.806C84.3012 104.927 84.6885 105.086 85.0338 105.282C85.3885 105.478 85.6732 105.739 85.8878 106.066C86.1025 106.393 86.2098 106.813 86.2098 107.326C86.2098 107.821 86.0745 108.283 85.8038 108.712C85.5332 109.132 85.1132 109.473 84.5438 109.734C83.9838 109.986 83.2745 110.112 82.4158 110.112ZM90.6072 110.084C89.8605 110.084 89.2818 109.883 88.8712 109.482C88.4605 109.081 88.2552 108.507 88.2552 107.76V100.956H89.5992V107.704C89.5992 108.105 89.6972 108.413 89.8932 108.628C90.0985 108.843 90.3878 108.95 90.7612 108.95C91.1812 108.95 91.5312 108.833 91.8112 108.6L92.2312 109.566C92.0258 109.743 91.7785 109.874 91.4892 109.958C91.2092 110.042 90.9152 110.084 90.6072 110.084ZM86.9952 103.686V102.58H91.7272V103.686H86.9952ZM96.7879 110.084C96.0413 110.084 95.3786 109.921 94.7999 109.594C94.2213 109.267 93.7639 108.819 93.4279 108.25C93.0919 107.671 92.9239 107.018 92.9239 106.29C92.9239 105.553 93.0919 104.899 93.4279 104.33C93.7639 103.761 94.2213 103.317 94.7999 103C95.3786 102.673 96.0413 102.51 96.7879 102.51C97.5253 102.51 98.1833 102.673 98.7619 103C99.3499 103.317 99.8073 103.761 100.134 104.33C100.47 104.89 100.638 105.543 100.638 106.29C100.638 107.027 100.47 107.681 100.134 108.25C99.8073 108.819 99.3499 109.267 98.7619 109.594C98.1833 109.921 97.5253 110.084 96.7879 110.084ZM96.7879 108.908C97.2639 108.908 97.6886 108.801 98.0619 108.586C98.4446 108.371 98.7433 108.068 98.9579 107.676C99.1726 107.275 99.2799 106.813 99.2799 106.29C99.2799 105.758 99.1726 105.301 98.9579 104.918C98.7433 104.526 98.4446 104.223 98.0619 104.008C97.6886 103.793 97.2639 103.686 96.7879 103.686C96.3119 103.686 95.8873 103.793 95.5139 104.008C95.1406 104.223 94.8419 104.526 94.6179 104.918C94.3939 105.301 94.2819 105.758 94.2819 106.29C94.2819 106.813 94.3939 107.275 94.6179 107.676C94.8419 108.068 95.1406 108.371 95.5139 108.586C95.8873 108.801 96.3119 108.908 96.7879 108.908ZM105.731 110.084C104.975 110.084 104.298 109.921 103.701 109.594C103.113 109.267 102.651 108.819 102.315 108.25C101.979 107.681 101.811 107.027 101.811 106.29C101.811 105.553 101.979 104.899 102.315 104.33C102.651 103.761 103.113 103.317 103.701 103C104.298 102.673 104.975 102.51 105.731 102.51C106.403 102.51 107 102.645 107.523 102.916C108.055 103.177 108.465 103.569 108.755 104.092L107.733 104.75C107.49 104.386 107.191 104.12 106.837 103.952C106.491 103.775 106.118 103.686 105.717 103.686C105.231 103.686 104.797 103.793 104.415 104.008C104.032 104.223 103.729 104.526 103.505 104.918C103.281 105.301 103.169 105.758 103.169 106.29C103.169 106.822 103.281 107.284 103.505 107.676C103.729 108.068 104.032 108.371 104.415 108.586C104.797 108.801 105.231 108.908 105.717 108.908C106.118 108.908 106.491 108.824 106.837 108.656C107.191 108.479 107.49 108.208 107.733 107.844L108.755 108.488C108.465 109.001 108.055 109.398 107.523 109.678C107 109.949 106.403 110.084 105.731 110.084ZM111.491 108.208L111.519 106.486L115.789 102.58H117.413L114.137 105.8L113.409 106.416L111.491 108.208ZM110.399 110V99.612H111.743V110H110.399ZM116.069 110L113.157 106.388L114.025 105.31L117.721 110H116.069Z" fill="#8E8E8E"/>
<path d="M39.986 133.166V127.034H41.162V133.166H39.986ZM37.438 130.66V129.554H43.71V130.66H37.438ZM48.9262 135V134.048L52.9162 130.198C53.2709 129.862 53.5322 129.568 53.7002 129.316C53.8775 129.055 53.9942 128.817 54.0502 128.602C54.1155 128.378 54.1482 128.163 54.1482 127.958C54.1482 127.454 53.9709 127.057 53.6162 126.768C53.2615 126.479 52.7435 126.334 52.0622 126.334C51.5395 126.334 51.0682 126.423 50.6482 126.6C50.2282 126.768 49.8642 127.034 49.5562 127.398L48.6042 126.572C48.9775 126.096 49.4769 125.732 50.1022 125.48C50.7369 125.219 51.4322 125.088 52.1882 125.088C52.8695 125.088 53.4622 125.2 53.9662 125.424C54.4702 125.639 54.8575 125.951 55.1282 126.362C55.4082 126.773 55.5482 127.258 55.5482 127.818C55.5482 128.135 55.5062 128.448 55.4222 128.756C55.3382 129.064 55.1795 129.391 54.9462 129.736C54.7129 130.081 54.3769 130.469 53.9382 130.898L50.3822 134.328L50.0462 133.782H55.9682V135H48.9262ZM57.326 137.072L58.026 134.244L58.208 135.056C57.9373 135.056 57.7087 134.972 57.522 134.804C57.3447 134.636 57.256 134.407 57.256 134.118C57.256 133.838 57.3447 133.609 57.522 133.432C57.7087 133.255 57.9327 133.166 58.194 133.166C58.4647 133.166 58.684 133.259 58.852 133.446C59.02 133.623 59.104 133.847 59.104 134.118C59.104 134.211 59.0947 134.305 59.076 134.398C59.0667 134.482 59.0433 134.585 59.006 134.706C58.978 134.818 58.9313 134.958 58.866 135.126L58.208 137.072H57.326ZM63.5606 135.112C62.8699 135.112 62.1979 135.005 61.5446 134.79C60.9006 134.575 60.3732 134.286 59.9626 133.922L60.6066 132.816C60.9332 133.124 61.3579 133.376 61.8806 133.572C62.4032 133.768 62.9632 133.866 63.5606 133.866C64.2886 133.866 64.8532 133.712 65.2546 133.404C65.6652 133.087 65.8706 132.662 65.8706 132.13C65.8706 131.617 65.6746 131.206 65.2826 130.898C64.8999 130.581 64.2886 130.422 63.4486 130.422H62.6646V129.442L65.5766 125.858L65.7726 126.418H60.4106V125.2H66.8786V126.152L63.9806 129.722L63.2526 129.288H63.7146C64.8999 129.288 65.7866 129.554 66.3746 130.086C66.9719 130.618 67.2706 131.295 67.2706 132.116C67.2706 132.667 67.1352 133.171 66.8646 133.628C66.5939 134.085 66.1832 134.449 65.6326 134.72C65.0912 134.981 64.4006 135.112 63.5606 135.112ZM72.3983 135.112C71.605 135.112 70.919 134.995 70.3403 134.762C69.7616 134.529 69.3136 134.197 68.9963 133.768C68.679 133.329 68.5203 132.816 68.5203 132.228C68.5203 131.649 68.6696 131.159 68.9683 130.758C69.2763 130.347 69.7196 130.039 70.2983 129.834C70.877 129.619 71.577 129.512 72.3983 129.512C73.2196 129.512 73.9196 129.619 74.4983 129.834C75.0863 130.039 75.5343 130.347 75.8423 130.758C76.1503 131.169 76.3043 131.659 76.3043 132.228C76.3043 132.816 76.1456 133.329 75.8283 133.768C75.511 134.197 75.0583 134.529 74.4703 134.762C73.8823 134.995 73.1916 135.112 72.3983 135.112ZM72.3983 133.978C73.1823 133.978 73.7936 133.819 74.2323 133.502C74.6803 133.175 74.9043 132.737 74.9043 132.186C74.9043 131.645 74.6803 131.22 74.2323 130.912C73.7936 130.595 73.1823 130.436 72.3983 130.436C71.6236 130.436 71.017 130.595 70.5783 130.912C70.1396 131.22 69.9203 131.645 69.9203 132.186C69.9203 132.737 70.1396 133.175 70.5783 133.502C71.017 133.819 71.6236 133.978 72.3983 133.978ZM72.3983 130.268C71.6516 130.268 71.017 130.17 70.4943 129.974C69.9716 129.769 69.5703 129.479 69.2903 129.106C69.0103 128.723 68.8703 128.271 68.8703 127.748C68.8703 127.197 69.015 126.726 69.3043 126.334C69.603 125.933 70.0183 125.625 70.5503 125.41C71.0823 125.195 71.6983 125.088 72.3983 125.088C73.1076 125.088 73.7283 125.195 74.2603 125.41C74.7923 125.625 75.2076 125.933 75.5063 126.334C75.805 126.726 75.9543 127.197 75.9543 127.748C75.9543 128.271 75.8143 128.723 75.5343 129.106C75.2543 129.479 74.8483 129.769 74.3163 129.974C73.7843 130.17 73.145 130.268 72.3983 130.268ZM72.3983 129.372C73.0796 129.372 73.6116 129.232 73.9943 128.952C74.3863 128.672 74.5823 128.289 74.5823 127.804C74.5823 127.309 74.3816 126.922 73.9803 126.642C73.579 126.362 73.0516 126.222 72.3983 126.222C71.745 126.222 71.2223 126.362 70.8303 126.642C70.4476 126.922 70.2563 127.309 70.2563 127.804C70.2563 128.289 70.443 128.672 70.8163 128.952C71.199 129.232 71.7263 129.372 72.3983 129.372ZM77.4461 132.592V131.612L82.4581 125.2H83.9701L79.0001 131.612L78.2861 131.388H86.1121V132.592H77.4461ZM82.8921 135V132.592L82.9341 131.388V129.26H84.2501V135H82.8921Z" fill="black"/>
<rect x="154.5" y="85.5" width="106" height="64" rx="11.5" fill="white" stroke="#EAEAEE"/>
<path d="M170.47 110V100.2H171.618L178.1 108.25H177.498V100.2H178.898V110H177.75L171.268 101.95H171.87V110H170.47ZM184.813 110.084C184.067 110.084 183.404 109.921 182.825 109.594C182.247 109.267 181.789 108.819 181.453 108.25C181.117 107.671 180.949 107.018 180.949 106.29C180.949 105.553 181.117 104.899 181.453 104.33C181.789 103.761 182.247 103.317 182.825 103C183.404 102.673 184.067 102.51 184.813 102.51C185.551 102.51 186.209 102.673 186.787 103C187.375 103.317 187.833 103.761 188.159 104.33C188.495 104.89 188.663 105.543 188.663 106.29C188.663 107.027 188.495 107.681 188.159 108.25C187.833 108.819 187.375 109.267 186.787 109.594C186.209 109.921 185.551 110.084 184.813 110.084ZM184.813 108.908C185.289 108.908 185.714 108.801 186.087 108.586C186.47 108.371 186.769 108.068 186.983 107.676C187.198 107.275 187.305 106.813 187.305 106.29C187.305 105.758 187.198 105.301 186.983 104.918C186.769 104.526 186.47 104.223 186.087 104.008C185.714 103.793 185.289 103.686 184.813 103.686C184.337 103.686 183.913 103.793 183.539 104.008C183.166 104.223 182.867 104.526 182.643 104.918C182.419 105.301 182.307 105.758 182.307 106.29C182.307 106.813 182.419 107.275 182.643 107.676C182.867 108.068 183.166 108.371 183.539 108.586C183.913 108.801 184.337 108.908 184.813 108.908ZM198.902 110.112C198.155 110.112 197.46 109.986 196.816 109.734C196.181 109.482 195.63 109.132 195.164 108.684C194.697 108.227 194.333 107.695 194.072 107.088C193.81 106.481 193.68 105.819 193.68 105.1C193.68 104.381 193.81 103.719 194.072 103.112C194.333 102.505 194.697 101.978 195.164 101.53C195.63 101.073 196.181 100.718 196.816 100.466C197.45 100.214 198.146 100.088 198.902 100.088C199.648 100.088 200.334 100.214 200.96 100.466C201.594 100.709 202.145 101.059 202.612 101.516C203.088 101.964 203.452 102.491 203.704 103.098C203.965 103.705 204.096 104.372 204.096 105.1C204.096 105.828 203.965 106.495 203.704 107.102C203.452 107.709 203.088 108.241 202.612 108.698C202.145 109.146 201.594 109.496 200.96 109.748C200.334 109.991 199.648 110.112 198.902 110.112ZM198.902 108.866C199.443 108.866 199.942 108.773 200.4 108.586C200.866 108.399 201.268 108.138 201.604 107.802C201.949 107.457 202.215 107.055 202.402 106.598C202.598 106.141 202.696 105.641 202.696 105.1C202.696 104.559 202.598 104.059 202.402 103.602C202.215 103.145 201.949 102.748 201.604 102.412C201.268 102.067 200.866 101.801 200.4 101.614C199.942 101.427 199.443 101.334 198.902 101.334C198.351 101.334 197.842 101.427 197.376 101.614C196.918 101.801 196.517 102.067 196.172 102.412C195.826 102.748 195.556 103.145 195.36 103.602C195.173 104.059 195.08 104.559 195.08 105.1C195.08 105.641 195.173 106.141 195.36 106.598C195.556 107.055 195.826 107.457 196.172 107.802C196.517 108.138 196.918 108.399 197.376 108.586C197.842 108.773 198.351 108.866 198.902 108.866ZM206.236 110V101.922C206.236 101.194 206.446 100.615 206.866 100.186C207.295 99.7473 207.902 99.528 208.686 99.528C208.975 99.528 209.25 99.5653 209.512 99.64C209.782 99.7053 210.011 99.8127 210.198 99.962L209.792 100.984C209.652 100.872 209.493 100.788 209.316 100.732C209.138 100.667 208.952 100.634 208.756 100.634C208.364 100.634 208.065 100.746 207.86 100.97C207.654 101.185 207.552 101.507 207.552 101.936V102.93L207.58 103.546V110H206.236ZM204.976 103.686V102.58H209.708V103.686H204.976ZM214.931 110V100.2H218.753C219.612 100.2 220.344 100.335 220.951 100.606C221.558 100.877 222.024 101.269 222.351 101.782C222.678 102.295 222.841 102.907 222.841 103.616C222.841 104.325 222.678 104.937 222.351 105.45C222.024 105.954 221.558 106.341 220.951 106.612C220.344 106.883 219.612 107.018 218.753 107.018H215.701L216.331 106.374V110H214.931ZM221.483 110L218.991 106.444H220.489L223.009 110H221.483ZM216.331 106.514L215.701 105.828H218.711C219.607 105.828 220.284 105.637 220.741 105.254C221.208 104.862 221.441 104.316 221.441 103.616C221.441 102.916 221.208 102.375 220.741 101.992C220.284 101.609 219.607 101.418 218.711 101.418H215.701L216.331 100.718V106.514ZM228.085 110.084C227.338 110.084 226.675 109.921 226.097 109.594C225.518 109.267 225.061 108.819 224.725 108.25C224.389 107.671 224.221 107.018 224.221 106.29C224.221 105.553 224.389 104.899 224.725 104.33C225.061 103.761 225.518 103.317 226.097 103C226.675 102.673 227.338 102.51 228.085 102.51C228.822 102.51 229.48 102.673 230.059 103C230.647 103.317 231.104 103.761 231.431 104.33C231.767 104.89 231.935 105.543 231.935 106.29C231.935 107.027 231.767 107.681 231.431 108.25C231.104 108.819 230.647 109.267 230.059 109.594C229.48 109.921 228.822 110.084 228.085 110.084ZM228.085 108.908C228.561 108.908 228.985 108.801 229.359 108.586C229.741 108.371 230.04 108.068 230.255 107.676C230.469 107.275 230.577 106.813 230.577 106.29C230.577 105.758 230.469 105.301 230.255 104.918C230.04 104.526 229.741 104.223 229.359 104.008C228.985 103.793 228.561 103.686 228.085 103.686C227.609 103.686 227.184 103.793 226.811 104.008C226.437 104.223 226.139 104.526 225.915 104.918C225.691 105.301 225.579 105.758 225.579 106.29C225.579 106.813 225.691 107.275 225.915 107.676C226.139 108.068 226.437 108.371 226.811 108.586C227.184 108.801 227.609 108.908 228.085 108.908ZM233.794 110V99.612H235.138V110H233.794ZM241.008 110.084C240.214 110.084 239.514 109.921 238.908 109.594C238.31 109.267 237.844 108.819 237.508 108.25C237.181 107.681 237.018 107.027 237.018 106.29C237.018 105.553 237.176 104.899 237.494 104.33C237.82 103.761 238.264 103.317 238.824 103C239.393 102.673 240.032 102.51 240.742 102.51C241.46 102.51 242.095 102.669 242.646 102.986C243.196 103.303 243.626 103.751 243.934 104.33C244.251 104.899 244.41 105.567 244.41 106.332C244.41 106.388 244.405 106.453 244.396 106.528C244.396 106.603 244.391 106.673 244.382 106.738H238.068V105.772H243.682L243.136 106.108C243.145 105.632 243.047 105.207 242.842 104.834C242.636 104.461 242.352 104.171 241.988 103.966C241.633 103.751 241.218 103.644 240.742 103.644C240.275 103.644 239.86 103.751 239.496 103.966C239.132 104.171 238.847 104.465 238.642 104.848C238.436 105.221 238.334 105.651 238.334 106.136V106.36C238.334 106.855 238.446 107.298 238.67 107.69C238.903 108.073 239.225 108.371 239.636 108.586C240.046 108.801 240.518 108.908 241.05 108.908C241.488 108.908 241.885 108.833 242.24 108.684C242.604 108.535 242.921 108.311 243.192 108.012L243.934 108.88C243.598 109.272 243.178 109.571 242.674 109.776C242.179 109.981 241.624 110.084 241.008 110.084Z" fill="#8E8E8E"/>
<path d="M172.486 133.166V127.034H173.662V133.166H172.486ZM169.938 130.66V129.554H176.21V130.66H169.938ZM180.984 135.112C180.294 135.112 179.622 135.005 178.968 134.79C178.324 134.575 177.797 134.286 177.386 133.922L178.03 132.816C178.357 133.124 178.782 133.376 179.304 133.572C179.827 133.768 180.382 133.866 180.97 133.866C181.717 133.866 182.291 133.707 182.692 133.39C183.094 133.073 183.294 132.648 183.294 132.116C183.294 131.752 183.206 131.435 183.028 131.164C182.851 130.893 182.543 130.688 182.104 130.548C181.675 130.399 181.082 130.324 180.326 130.324H178.1L178.618 125.2H184.148V126.418H179.136L179.864 125.732L179.458 129.778L178.73 129.106H180.62C181.6 129.106 182.389 129.232 182.986 129.484C183.584 129.736 184.018 130.086 184.288 130.534C184.559 130.973 184.694 131.481 184.694 132.06C184.694 132.62 184.559 133.133 184.288 133.6C184.018 134.057 183.607 134.426 183.056 134.706C182.515 134.977 181.824 135.112 180.984 135.112Z" fill="black"/>
<path d="M117 29H13C6.37258 29 1 34.3726 1 41V305C1 311.627 6.37258 317 13 317H83.8571" stroke="url(#paint0_linear_1672_830)" stroke-width="1.5"/>
<rect x="21.5" y="0.5" width="155" height="64" rx="11.5" fill="white" stroke="#EAEAEE"/>
<path d="M37.47 25V15.2H38.618L45.1 23.25H44.498V15.2H45.898V25H44.75L38.268 16.95H38.87V25H37.47ZM51.8133 25.084C51.0667 25.084 50.404 24.9207 49.8253 24.594C49.2467 24.2673 48.7893 23.8193 48.4533 23.25C48.1173 22.6713 47.9493 22.018 47.9493 21.29C47.9493 20.5527 48.1173 19.8993 48.4533 19.33C48.7893 18.7607 49.2467 18.3173 49.8253 18C50.404 17.6733 51.0667 17.51 51.8133 17.51C52.5507 17.51 53.2087 17.6733 53.7873 18C54.3753 18.3173 54.8327 18.7607 55.1593 19.33C55.4953 19.89 55.6633 20.5433 55.6633 21.29C55.6633 22.0273 55.4953 22.6807 55.1593 23.25C54.8327 23.8193 54.3753 24.2673 53.7873 24.594C53.2087 24.9207 52.5507 25.084 51.8133 25.084ZM51.8133 23.908C52.2893 23.908 52.714 23.8007 53.0873 23.586C53.47 23.3713 53.7687 23.068 53.9833 22.676C54.198 22.2747 54.3053 21.8127 54.3053 21.29C54.3053 20.758 54.198 20.3007 53.9833 19.918C53.7687 19.526 53.47 19.2227 53.0873 19.008C52.714 18.7933 52.2893 18.686 51.8133 18.686C51.3373 18.686 50.9127 18.7933 50.5393 19.008C50.166 19.2227 49.8673 19.526 49.6433 19.918C49.4193 20.3007 49.3073 20.758 49.3073 21.29C49.3073 21.8127 49.4193 22.2747 49.6433 22.676C49.8673 23.068 50.166 23.3713 50.5393 23.586C50.9127 23.8007 51.3373 23.908 51.8133 23.908ZM65.9018 25.112C65.1551 25.112 64.4598 24.986 63.8158 24.734C63.1811 24.482 62.6305 24.132 62.1638 23.684C61.6971 23.2267 61.3331 22.6947 61.0718 22.088C60.8105 21.4813 60.6798 20.8187 60.6798 20.1C60.6798 19.3813 60.8105 18.7187 61.0718 18.112C61.3331 17.5053 61.6971 16.978 62.1638 16.53C62.6305 16.0727 63.1811 15.718 63.8158 15.466C64.4505 15.214 65.1458 15.088 65.9018 15.088C66.6485 15.088 67.3345 15.214 67.9598 15.466C68.5945 15.7087 69.1451 16.0587 69.6118 16.516C70.0878 16.964 70.4518 17.4913 70.7038 18.098C70.9651 18.7047 71.0958 19.372 71.0958 20.1C71.0958 20.828 70.9651 21.4953 70.7038 22.102C70.4518 22.7087 70.0878 23.2407 69.6118 23.698C69.1451 24.146 68.5945 24.496 67.9598 24.748C67.3345 24.9907 66.6485 25.112 65.9018 25.112ZM65.9018 23.866C66.4431 23.866 66.9425 23.7727 67.3998 23.586C67.8665 23.3993 68.2678 23.138 68.6038 22.802C68.9491 22.4567 69.2151 22.0553 69.4018 21.598C69.5978 21.1407 69.6958 20.6413 69.6958 20.1C69.6958 19.5587 69.5978 19.0593 69.4018 18.602C69.2151 18.1447 68.9491 17.748 68.6038 17.412C68.2678 17.0667 67.8665 16.8007 67.3998 16.614C66.9425 16.4273 66.4431 16.334 65.9018 16.334C65.3511 16.334 64.8425 16.4273 64.3758 16.614C63.9185 16.8007 63.5171 17.0667 63.1718 17.412C62.8265 17.748 62.5558 18.1447 62.3598 18.602C62.1731 19.0593 62.0798 19.5587 62.0798 20.1C62.0798 20.6413 62.1731 21.1407 62.3598 21.598C62.5558 22.0553 62.8265 22.4567 63.1718 22.802C63.5171 23.138 63.9185 23.3993 64.3758 23.586C64.8425 23.7727 65.3511 23.866 65.9018 23.866ZM73.2356 25V16.922C73.2356 16.194 73.4456 15.6153 73.8656 15.186C74.295 14.7473 74.9016 14.528 75.6856 14.528C75.975 14.528 76.2503 14.5653 76.5116 14.64C76.7823 14.7053 77.011 14.8127 77.1976 14.962L76.7916 15.984C76.6516 15.872 76.493 15.788 76.3156 15.732C76.1383 15.6667 75.9516 15.634 75.7556 15.634C75.3636 15.634 75.065 15.746 74.8596 15.97C74.6543 16.1847 74.5516 16.5067 74.5516 16.936V17.93L74.5796 18.546V25H73.2356ZM71.9756 18.686V17.58H76.7076V18.686H71.9756ZM81.9309 25V15.2H86.0609C87.1063 15.2 88.0256 15.4053 88.8189 15.816C89.6216 16.2267 90.2423 16.8007 90.6809 17.538C91.1289 18.2753 91.3529 19.1293 91.3529 20.1C91.3529 21.0707 91.1289 21.9247 90.6809 22.662C90.2423 23.3993 89.6216 23.9733 88.8189 24.384C88.0256 24.7947 87.1063 25 86.0609 25H81.9309ZM83.3309 23.782H85.9769C86.7889 23.782 87.4889 23.628 88.0769 23.32C88.6743 23.012 89.1363 22.5827 89.4629 22.032C89.7896 21.472 89.9529 20.828 89.9529 20.1C89.9529 19.3627 89.7896 18.7187 89.4629 18.168C89.1363 17.6173 88.6743 17.188 88.0769 16.88C87.4889 16.572 86.7889 16.418 85.9769 16.418H83.3309V23.782ZM96.6053 25.084C95.812 25.084 95.112 24.9207 94.5053 24.594C93.908 24.2673 93.4413 23.8193 93.1053 23.25C92.7787 22.6807 92.6153 22.0273 92.6153 21.29C92.6153 20.5527 92.774 19.8993 93.0913 19.33C93.418 18.7607 93.8613 18.3173 94.4213 18C94.9907 17.6733 95.63 17.51 96.3393 17.51C97.058 17.51 97.6927 17.6687 98.2433 17.986C98.794 18.3033 99.2233 18.7513 99.5313 19.33C99.8487 19.8993 100.007 20.5667 100.007 21.332C100.007 21.388 100.003 21.4533 99.9933 21.528C99.9933 21.6027 99.9887 21.6727 99.9793 21.738H93.6653V20.772H99.2793L98.7333 21.108C98.7427 20.632 98.6447 20.2073 98.4393 19.834C98.234 19.4607 97.9493 19.1713 97.5853 18.966C97.2307 18.7513 96.8153 18.644 96.3393 18.644C95.8727 18.644 95.4573 18.7513 95.0933 18.966C94.7293 19.1713 94.4447 19.4653 94.2393 19.848C94.034 20.2213 93.9313 20.6507 93.9313 21.136V21.36C93.9313 21.8547 94.0433 22.298 94.2673 22.69C94.5007 23.0727 94.8227 23.3713 95.2333 23.586C95.644 23.8007 96.1153 23.908 96.6473 23.908C97.086 23.908 97.4827 23.8333 97.8373 23.684C98.2013 23.5347 98.5187 23.3107 98.7893 23.012L99.5313 23.88C99.1953 24.272 98.7753 24.5707 98.2713 24.776C97.7767 24.9813 97.2213 25.084 96.6053 25.084ZM106.275 25V23.432L106.205 23.138V20.464C106.205 19.8947 106.037 19.456 105.701 19.148C105.374 18.8307 104.879 18.672 104.217 18.672C103.778 18.672 103.349 18.7467 102.929 18.896C102.509 19.036 102.154 19.2273 101.865 19.47L101.305 18.462C101.687 18.154 102.145 17.9207 102.677 17.762C103.218 17.594 103.783 17.51 104.371 17.51C105.388 17.51 106.172 17.7573 106.723 18.252C107.273 18.7467 107.549 19.5027 107.549 20.52V25H106.275ZM103.839 25.084C103.288 25.084 102.803 24.9907 102.383 24.804C101.972 24.6173 101.655 24.3607 101.431 24.034C101.207 23.698 101.095 23.32 101.095 22.9C101.095 22.4987 101.188 22.1347 101.375 21.808C101.571 21.4813 101.883 21.22 102.313 21.024C102.751 20.828 103.339 20.73 104.077 20.73H106.429V21.696H104.133C103.461 21.696 103.008 21.808 102.775 22.032C102.541 22.256 102.425 22.5267 102.425 22.844C102.425 23.208 102.569 23.502 102.859 23.726C103.148 23.9407 103.549 24.048 104.063 24.048C104.567 24.048 105.005 23.936 105.379 23.712C105.761 23.488 106.037 23.1613 106.205 22.732L106.471 23.656C106.293 24.0947 105.981 24.4447 105.533 24.706C105.085 24.958 104.52 25.084 103.839 25.084ZM110.036 25V14.612H111.38V25H110.036ZM117.25 25.084C116.457 25.084 115.757 24.9207 115.15 24.594C114.553 24.2673 114.086 23.8193 113.75 23.25C113.423 22.6807 113.26 22.0273 113.26 21.29C113.26 20.5527 113.419 19.8993 113.736 19.33C114.063 18.7607 114.506 18.3173 115.066 18C115.635 17.6733 116.275 17.51 116.984 17.51C117.703 17.51 118.337 17.6687 118.888 17.986C119.439 18.3033 119.868 18.7513 120.176 19.33C120.493 19.8993 120.652 20.5667 120.652 21.332C120.652 21.388 120.647 21.4533 120.638 21.528C120.638 21.6027 120.633 21.6727 120.624 21.738H114.31V20.772H119.924L119.378 21.108C119.387 20.632 119.289 20.2073 119.084 19.834C118.879 19.4607 118.594 19.1713 118.23 18.966C117.875 18.7513 117.46 18.644 116.984 18.644C116.517 18.644 116.102 18.7513 115.738 18.966C115.374 19.1713 115.089 19.4653 114.884 19.848C114.679 20.2213 114.576 20.6507 114.576 21.136V21.36C114.576 21.8547 114.688 22.298 114.912 22.69C115.145 23.0727 115.467 23.3713 115.878 23.586C116.289 23.8007 116.76 23.908 117.292 23.908C117.731 23.908 118.127 23.8333 118.482 23.684C118.846 23.5347 119.163 23.3107 119.434 23.012L120.176 23.88C119.84 24.272 119.42 24.5707 118.916 24.776C118.421 24.9813 117.866 25.084 117.25 25.084ZM122.518 25V17.58H123.806V19.596L123.68 19.092C123.885 18.5787 124.231 18.1867 124.716 17.916C125.201 17.6453 125.799 17.51 126.508 17.51V18.812C126.452 18.8027 126.396 18.798 126.34 18.798C126.293 18.798 126.247 18.798 126.2 18.798C125.481 18.798 124.912 19.0127 124.492 19.442C124.072 19.8713 123.862 20.492 123.862 21.304V25H122.518Z" fill="#8E8E8E"/>
<path d="M39.486 48.166V42.034H40.662V48.166H39.486ZM36.938 45.66V44.554H43.21V45.66H36.938ZM52.6962 50.112C51.8282 50.112 51.0862 49.9207 50.4702 49.538C49.8542 49.1553 49.3829 48.6047 49.0562 47.886C48.7389 47.158 48.5802 46.2713 48.5802 45.226C48.5802 44.1153 48.7762 43.1773 49.1682 42.412C49.5602 41.6467 50.1062 41.068 50.8062 40.676C51.5062 40.284 52.3089 40.088 53.2142 40.088C53.6809 40.088 54.1242 40.1347 54.5442 40.228C54.9735 40.3213 55.3422 40.466 55.6502 40.662L55.1182 41.754C54.8662 41.5767 54.5769 41.4553 54.2502 41.39C53.9329 41.3247 53.5969 41.292 53.2422 41.292C52.2435 41.292 51.4502 41.6047 50.8622 42.23C50.2742 42.846 49.9802 43.7653 49.9802 44.988C49.9802 45.184 49.9895 45.4173 50.0082 45.688C50.0269 45.9587 50.0735 46.2247 50.1482 46.486L49.6722 46.01C49.8122 45.5807 50.0315 45.2213 50.3302 44.932C50.6382 44.6333 51.0022 44.414 51.4222 44.274C51.8515 44.1247 52.3135 44.05 52.8082 44.05C53.4615 44.05 54.0402 44.1713 54.5442 44.414C55.0482 44.6567 55.4449 45.002 55.7342 45.45C56.0235 45.8887 56.1682 46.4113 56.1682 47.018C56.1682 47.6433 56.0142 48.1893 55.7062 48.656C55.3982 49.1227 54.9829 49.482 54.4602 49.734C53.9375 49.986 53.3495 50.112 52.6962 50.112ZM52.6402 48.978C53.0695 48.978 53.4429 48.8987 53.7602 48.74C54.0869 48.5813 54.3435 48.362 54.5302 48.082C54.7169 47.7927 54.8102 47.4567 54.8102 47.074C54.8102 46.4953 54.6095 46.038 54.2082 45.702C53.8069 45.3567 53.2609 45.184 52.5702 45.184C52.1222 45.184 51.7302 45.268 51.3942 45.436C51.0582 45.604 50.7922 45.8327 50.5962 46.122C50.4095 46.402 50.3162 46.724 50.3162 47.088C50.3162 47.424 50.4049 47.7367 50.5822 48.026C50.7595 48.306 51.0209 48.5347 51.3662 48.712C51.7115 48.8893 52.1362 48.978 52.6402 48.978ZM57.0668 50V49.048L61.0568 45.198C61.4115 44.862 61.6728 44.568 61.8408 44.316C62.0182 44.0547 62.1348 43.8167 62.1908 43.602C62.2562 43.378 62.2888 43.1633 62.2888 42.958C62.2888 42.454 62.1115 42.0573 61.7568 41.768C61.4022 41.4787 60.8842 41.334 60.2028 41.334C59.6802 41.334 59.2088 41.4227 58.7888 41.6C58.3688 41.768 58.0048 42.034 57.6968 42.398L56.7448 41.572C57.1182 41.096 57.6175 40.732 58.2428 40.48C58.8775 40.2187 59.5728 40.088 60.3288 40.088C61.0102 40.088 61.6028 40.2 62.1068 40.424C62.6108 40.6387 62.9982 40.9513 63.2688 41.362C63.5488 41.7727 63.6888 42.258 63.6888 42.818C63.6888 43.1353 63.6468 43.448 63.5628 43.756C63.4788 44.064 63.3202 44.3907 63.0868 44.736C62.8535 45.0813 62.5175 45.4687 62.0788 45.898L58.5228 49.328L58.1868 48.782H64.1088V50H57.0668ZM69.0819 50.112C68.2886 50.112 67.6026 49.9953 67.0239 49.762C66.4452 49.5287 65.9972 49.1973 65.6799 48.768C65.3626 48.3293 65.2039 47.816 65.2039 47.228C65.2039 46.6493 65.3532 46.1593 65.6519 45.758C65.9599 45.3473 66.4032 45.0393 66.9819 44.834C67.5606 44.6193 68.2606 44.512 69.0819 44.512C69.9032 44.512 70.6032 44.6193 71.1819 44.834C71.7699 45.0393 72.2179 45.3473 72.5259 45.758C72.8339 46.1687 72.9879 46.6587 72.9879 47.228C72.9879 47.816 72.8292 48.3293 72.5119 48.768C72.1946 49.1973 71.7419 49.5287 71.1539 49.762C70.5659 49.9953 69.8752 50.112 69.0819 50.112ZM69.0819 48.978C69.8659 48.978 70.4772 48.8193 70.9159 48.502C71.3639 48.1753 71.5879 47.7367 71.5879 47.186C71.5879 46.6447 71.3639 46.22 70.9159 45.912C70.4772 45.5947 69.8659 45.436 69.0819 45.436C68.3072 45.436 67.7006 45.5947 67.2619 45.912C66.8232 46.22 66.6039 46.6447 66.6039 47.186C66.6039 47.7367 66.8232 48.1753 67.2619 48.502C67.7006 48.8193 68.3072 48.978 69.0819 48.978ZM69.0819 45.268C68.3352 45.268 67.7006 45.17 67.1779 44.974C66.6552 44.7687 66.2539 44.4793 65.9739 44.106C65.6939 43.7233 65.5539 43.2707 65.5539 42.748C65.5539 42.1973 65.6986 41.726 65.9879 41.334C66.2866 40.9327 66.7019 40.6247 67.2339 40.41C67.7659 40.1953 68.3819 40.088 69.0819 40.088C69.7912 40.088 70.4119 40.1953 70.9439 40.41C71.4759 40.6247 71.8912 40.9327 72.1899 41.334C72.4886 41.726 72.6379 42.1973 72.6379 42.748C72.6379 43.2707 72.4979 43.7233 72.2179 44.106C71.9379 44.4793 71.5319 44.7687 70.9999 44.974C70.4679 45.17 69.8286 45.268 69.0819 45.268ZM69.0819 44.372C69.7632 44.372 70.2952 44.232 70.6779 43.952C71.0699 43.672 71.2659 43.2893 71.2659 42.804C71.2659 42.3093 71.0652 41.922 70.6639 41.642C70.2626 41.362 69.7352 41.222 69.0819 41.222C68.4286 41.222 67.9059 41.362 67.5139 41.642C67.1312 41.922 66.9399 42.3093 66.9399 42.804C66.9399 43.2893 67.1266 43.672 67.4999 43.952C67.8826 44.232 68.4099 44.372 69.0819 44.372Z" fill="black"/>
<rect x="187.5" y="0.5" width="134" height="64" rx="11.5" fill="white" stroke="#EAEAEE"/>
<path d="M203.47 25V15.2H204.618L211.1 23.25H210.498V15.2H211.898V25H210.75L204.268 16.95H204.87V25H203.47ZM217.813 25.084C217.067 25.084 216.404 24.9207 215.825 24.594C215.247 24.2673 214.789 23.8193 214.453 23.25C214.117 22.6713 213.949 22.018 213.949 21.29C213.949 20.5527 214.117 19.8993 214.453 19.33C214.789 18.7607 215.247 18.3173 215.825 18C216.404 17.6733 217.067 17.51 217.813 17.51C218.551 17.51 219.209 17.6733 219.787 18C220.375 18.3173 220.833 18.7607 221.159 19.33C221.495 19.89 221.663 20.5433 221.663 21.29C221.663 22.0273 221.495 22.6807 221.159 23.25C220.833 23.8193 220.375 24.2673 219.787 24.594C219.209 24.9207 218.551 25.084 217.813 25.084ZM217.813 23.908C218.289 23.908 218.714 23.8007 219.087 23.586C219.47 23.3713 219.769 23.068 219.983 22.676C220.198 22.2747 220.305 21.8127 220.305 21.29C220.305 20.758 220.198 20.3007 219.983 19.918C219.769 19.526 219.47 19.2227 219.087 19.008C218.714 18.7933 218.289 18.686 217.813 18.686C217.337 18.686 216.913 18.7933 216.539 19.008C216.166 19.2227 215.867 19.526 215.643 19.918C215.419 20.3007 215.307 20.758 215.307 21.29C215.307 21.8127 215.419 22.2747 215.643 22.676C215.867 23.068 216.166 23.3713 216.539 23.586C216.913 23.8007 217.337 23.908 217.813 23.908ZM231.902 25.112C231.155 25.112 230.46 24.986 229.816 24.734C229.181 24.482 228.63 24.132 228.164 23.684C227.697 23.2267 227.333 22.6947 227.072 22.088C226.81 21.4813 226.68 20.8187 226.68 20.1C226.68 19.3813 226.81 18.7187 227.072 18.112C227.333 17.5053 227.697 16.978 228.164 16.53C228.63 16.0727 229.181 15.718 229.816 15.466C230.45 15.214 231.146 15.088 231.902 15.088C232.648 15.088 233.334 15.214 233.96 15.466C234.594 15.7087 235.145 16.0587 235.612 16.516C236.088 16.964 236.452 17.4913 236.704 18.098C236.965 18.7047 237.096 19.372 237.096 20.1C237.096 20.828 236.965 21.4953 236.704 22.102C236.452 22.7087 236.088 23.2407 235.612 23.698C235.145 24.146 234.594 24.496 233.96 24.748C233.334 24.9907 232.648 25.112 231.902 25.112ZM231.902 23.866C232.443 23.866 232.942 23.7727 233.4 23.586C233.866 23.3993 234.268 23.138 234.604 22.802C234.949 22.4567 235.215 22.0553 235.402 21.598C235.598 21.1407 235.696 20.6413 235.696 20.1C235.696 19.5587 235.598 19.0593 235.402 18.602C235.215 18.1447 234.949 17.748 234.604 17.412C234.268 17.0667 233.866 16.8007 233.4 16.614C232.942 16.4273 232.443 16.334 231.902 16.334C231.351 16.334 230.842 16.4273 230.376 16.614C229.918 16.8007 229.517 17.0667 229.172 17.412C228.826 17.748 228.556 18.1447 228.36 18.602C228.173 19.0593 228.08 19.5587 228.08 20.1C228.08 20.6413 228.173 21.1407 228.36 21.598C228.556 22.0553 228.826 22.4567 229.172 22.802C229.517 23.138 229.918 23.3993 230.376 23.586C230.842 23.7727 231.351 23.866 231.902 23.866ZM239.236 25V16.922C239.236 16.194 239.446 15.6153 239.866 15.186C240.295 14.7473 240.902 14.528 241.686 14.528C241.975 14.528 242.25 14.5653 242.512 14.64C242.782 14.7053 243.011 14.8127 243.198 14.962L242.792 15.984C242.652 15.872 242.493 15.788 242.316 15.732C242.138 15.6667 241.952 15.634 241.756 15.634C241.364 15.634 241.065 15.746 240.86 15.97C240.654 16.1847 240.552 16.5067 240.552 16.936V17.93L240.58 18.546V25H239.236ZM237.976 18.686V17.58H242.708V18.686H237.976ZM247.931 25V15.2H249.079L253.475 22.606H252.859L257.199 15.2H258.347L258.361 25H257.017L257.003 17.314H257.325L253.461 23.81H252.817L248.925 17.314H249.275V25H247.931ZM264.284 25.084C263.537 25.084 262.875 24.9207 262.296 24.594C261.717 24.2673 261.26 23.8193 260.924 23.25C260.588 22.6713 260.42 22.018 260.42 21.29C260.42 20.5527 260.588 19.8993 260.924 19.33C261.26 18.7607 261.717 18.3173 262.296 18C262.875 17.6733 263.537 17.51 264.284 17.51C265.021 17.51 265.679 17.6733 266.258 18C266.846 18.3173 267.303 18.7607 267.63 19.33C267.966 19.89 268.134 20.5433 268.134 21.29C268.134 22.0273 267.966 22.6807 267.63 23.25C267.303 23.8193 266.846 24.2673 266.258 24.594C265.679 24.9207 265.021 25.084 264.284 25.084ZM264.284 23.908C264.76 23.908 265.185 23.8007 265.558 23.586C265.941 23.3713 266.239 23.068 266.454 22.676C266.669 22.2747 266.776 21.8127 266.776 21.29C266.776 20.758 266.669 20.3007 266.454 19.918C266.239 19.526 265.941 19.2227 265.558 19.008C265.185 18.7933 264.76 18.686 264.284 18.686C263.808 18.686 263.383 18.7933 263.01 19.008C262.637 19.2227 262.338 19.526 262.114 19.918C261.89 20.3007 261.778 20.758 261.778 21.29C261.778 21.8127 261.89 22.2747 262.114 22.676C262.338 23.068 262.637 23.3713 263.01 23.586C263.383 23.8007 263.808 23.908 264.284 23.908ZM273.059 25.084C272.34 25.084 271.696 24.9253 271.127 24.608C270.567 24.2907 270.123 23.8473 269.797 23.278C269.47 22.7087 269.307 22.046 269.307 21.29C269.307 20.534 269.47 19.876 269.797 19.316C270.123 18.7467 270.567 18.3033 271.127 17.986C271.696 17.6687 272.34 17.51 273.059 17.51C273.684 17.51 274.249 17.65 274.753 17.93C275.257 18.21 275.658 18.63 275.957 19.19C276.265 19.75 276.419 20.45 276.419 21.29C276.419 22.13 276.269 22.83 275.971 23.39C275.681 23.95 275.285 24.3747 274.781 24.664C274.277 24.944 273.703 25.084 273.059 25.084ZM273.171 23.908C273.637 23.908 274.057 23.8007 274.431 23.586C274.813 23.3713 275.112 23.068 275.327 22.676C275.551 22.2747 275.663 21.8127 275.663 21.29C275.663 20.758 275.551 20.3007 275.327 19.918C275.112 19.526 274.813 19.2227 274.431 19.008C274.057 18.7933 273.637 18.686 273.171 18.686C272.695 18.686 272.27 18.7933 271.897 19.008C271.523 19.2227 271.225 19.526 271.001 19.918C270.777 20.3007 270.665 20.758 270.665 21.29C270.665 21.8127 270.777 22.2747 271.001 22.676C271.225 23.068 271.523 23.3713 271.897 23.586C272.27 23.8007 272.695 23.908 273.171 23.908ZM275.705 25V22.998L275.789 21.276L275.649 19.554V14.612H276.993V25H275.705ZM282.84 25.084C282.046 25.084 281.346 24.9207 280.74 24.594C280.142 24.2673 279.676 23.8193 279.34 23.25C279.013 22.6807 278.85 22.0273 278.85 21.29C278.85 20.5527 279.008 19.8993 279.326 19.33C279.652 18.7607 280.096 18.3173 280.656 18C281.225 17.6733 281.864 17.51 282.574 17.51C283.292 17.51 283.927 17.6687 284.478 17.986C285.028 18.3033 285.458 18.7513 285.766 19.33C286.083 19.8993 286.242 20.5667 286.242 21.332C286.242 21.388 286.237 21.4533 286.228 21.528C286.228 21.6027 286.223 21.6727 286.214 21.738H279.9V20.772H285.514L284.968 21.108C284.977 20.632 284.879 20.2073 284.674 19.834C284.468 19.4607 284.184 19.1713 283.82 18.966C283.465 18.7513 283.05 18.644 282.574 18.644C282.107 18.644 281.692 18.7513 281.328 18.966C280.964 19.1713 280.679 19.4653 280.474 19.848C280.268 20.2213 280.166 20.6507 280.166 21.136V21.36C280.166 21.8547 280.278 22.298 280.502 22.69C280.735 23.0727 281.057 23.3713 281.468 23.586C281.878 23.8007 282.35 23.908 282.882 23.908C283.32 23.908 283.717 23.8333 284.072 23.684C284.436 23.5347 284.753 23.3107 285.024 23.012L285.766 23.88C285.43 24.272 285.01 24.5707 284.506 24.776C284.011 24.9813 283.456 25.084 282.84 25.084ZM288.108 25V14.612H289.452V25H288.108Z" fill="#8E8E8E"/>
<path d="M205.486 48.166V42.034H206.662V48.166H205.486ZM202.938 45.66V44.554H209.21V45.66H202.938ZM214.44 47.592V46.612L219.452 40.2H220.964L215.994 46.612L215.28 46.388H223.106V47.592H214.44ZM219.886 50V47.592L219.928 46.388V44.26H221.244V50H219.886Z" fill="black"/>
<rect x="80" y="295" width="166" height="40" rx="10" fill="white"/>
<rect x="80.5" y="295.5" width="165" height="39" rx="9.5" stroke="#BFC8E2" stroke-opacity="0.3"/>
<path d="M101.47 320V310.2H105.6C106.645 310.2 107.565 310.405 108.358 310.816C109.161 311.227 109.781 311.801 110.22 312.538C110.668 313.275 110.892 314.129 110.892 315.1C110.892 316.071 110.668 316.925 110.22 317.662C109.781 318.399 109.161 318.973 108.358 319.384C107.565 319.795 106.645 320 105.6 320H101.47ZM102.87 318.782H105.516C106.328 318.782 107.028 318.628 107.616 318.32C108.213 318.012 108.675 317.583 109.002 317.032C109.329 316.472 109.492 315.828 109.492 315.1C109.492 314.363 109.329 313.719 109.002 313.168C108.675 312.617 108.213 312.188 107.616 311.88C107.028 311.572 106.328 311.418 105.516 311.418H102.87V318.782ZM117.446 320V318.432L117.376 318.138V315.464C117.376 314.895 117.208 314.456 116.872 314.148C116.546 313.831 116.051 313.672 115.388 313.672C114.95 313.672 114.52 313.747 114.1 313.896C113.68 314.036 113.326 314.227 113.036 314.47L112.476 313.462C112.859 313.154 113.316 312.921 113.848 312.762C114.39 312.594 114.954 312.51 115.542 312.51C116.56 312.51 117.344 312.757 117.894 313.252C118.445 313.747 118.72 314.503 118.72 315.52V320H117.446ZM115.01 320.084C114.46 320.084 113.974 319.991 113.554 319.804C113.144 319.617 112.826 319.361 112.602 319.034C112.378 318.698 112.266 318.32 112.266 317.9C112.266 317.499 112.36 317.135 112.546 316.808C112.742 316.481 113.055 316.22 113.484 316.024C113.923 315.828 114.511 315.73 115.248 315.73H117.6V316.696H115.304C114.632 316.696 114.18 316.808 113.946 317.032C113.713 317.256 113.596 317.527 113.596 317.844C113.596 318.208 113.741 318.502 114.03 318.726C114.32 318.941 114.721 319.048 115.234 319.048C115.738 319.048 116.177 318.936 116.55 318.712C116.933 318.488 117.208 318.161 117.376 317.732L117.642 318.656C117.465 319.095 117.152 319.445 116.704 319.706C116.256 319.958 115.692 320.084 115.01 320.084ZM123.756 320.084C123.009 320.084 122.43 319.883 122.02 319.482C121.609 319.081 121.404 318.507 121.404 317.76V310.956H122.748V317.704C122.748 318.105 122.846 318.413 123.042 318.628C123.247 318.843 123.536 318.95 123.91 318.95C124.33 318.95 124.68 318.833 124.96 318.6L125.38 319.566C125.174 319.743 124.927 319.874 124.638 319.958C124.358 320.042 124.064 320.084 123.756 320.084ZM120.144 313.686V312.58H124.876V313.686H120.144ZM131.61 320V318.432L131.54 318.138V315.464C131.54 314.895 131.372 314.456 131.036 314.148C130.71 313.831 130.215 313.672 129.552 313.672C129.114 313.672 128.684 313.747 128.264 313.896C127.844 314.036 127.49 314.227 127.2 314.47L126.64 313.462C127.023 313.154 127.48 312.921 128.012 312.762C128.554 312.594 129.118 312.51 129.706 312.51C130.724 312.51 131.508 312.757 132.058 313.252C132.609 313.747 132.884 314.503 132.884 315.52V320H131.61ZM129.174 320.084C128.624 320.084 128.138 319.991 127.718 319.804C127.308 319.617 126.99 319.361 126.766 319.034C126.542 318.698 126.43 318.32 126.43 317.9C126.43 317.499 126.524 317.135 126.71 316.808C126.906 316.481 127.219 316.22 127.648 316.024C128.087 315.828 128.675 315.73 129.412 315.73H131.764V316.696H129.468C128.796 316.696 128.344 316.808 128.11 317.032C127.877 317.256 127.76 317.527 127.76 317.844C127.76 318.208 127.905 318.502 128.194 318.726C128.484 318.941 128.885 319.048 129.398 319.048C129.902 319.048 130.341 318.936 130.714 318.712C131.097 318.488 131.372 318.161 131.54 317.732L131.806 318.656C131.629 319.095 131.316 319.445 130.868 319.706C130.42 319.958 129.856 320.084 129.174 320.084ZM146.355 310.2H147.755V320H146.355V310.2ZM140.727 320H139.327V310.2H140.727V320ZM146.481 315.632H140.587V314.414H146.481V315.632ZM155.099 320V318.432L155.029 318.138V315.464C155.029 314.895 154.861 314.456 154.525 314.148C154.198 313.831 153.703 313.672 153.041 313.672C152.602 313.672 152.173 313.747 151.753 313.896C151.333 314.036 150.978 314.227 150.689 314.47L150.129 313.462C150.511 313.154 150.969 312.921 151.501 312.762C152.042 312.594 152.607 312.51 153.195 312.51C154.212 312.51 154.996 312.757 155.547 313.252C156.097 313.747 156.373 314.503 156.373 315.52V320H155.099ZM152.663 320.084C152.112 320.084 151.627 319.991 151.207 319.804C150.796 319.617 150.479 319.361 150.255 319.034C150.031 318.698 149.919 318.32 149.919 317.9C149.919 317.499 150.012 317.135 150.199 316.808C150.395 316.481 150.707 316.22 151.137 316.024C151.575 315.828 152.163 315.73 152.901 315.73H155.253V316.696H152.957C152.285 316.696 151.832 316.808 151.599 317.032C151.365 317.256 151.249 317.527 151.249 317.844C151.249 318.208 151.393 318.502 151.683 318.726C151.972 318.941 152.373 319.048 152.887 319.048C153.391 319.048 153.829 318.936 154.203 318.712C154.585 318.488 154.861 318.161 155.029 317.732L155.295 318.656C155.117 319.095 154.805 319.445 154.357 319.706C153.909 319.958 153.344 320.084 152.663 320.084ZM162.822 312.51C163.429 312.51 163.961 312.627 164.418 312.86C164.885 313.093 165.249 313.448 165.51 313.924C165.771 314.4 165.902 315.002 165.902 315.73V320H164.558V315.884C164.558 315.165 164.381 314.624 164.026 314.26C163.681 313.896 163.191 313.714 162.556 313.714C162.08 313.714 161.665 313.807 161.31 313.994C160.955 314.181 160.68 314.456 160.484 314.82C160.297 315.184 160.204 315.637 160.204 316.178V320H158.86V312.58H160.148V314.582L159.938 314.05C160.181 313.565 160.554 313.187 161.058 312.916C161.562 312.645 162.15 312.51 162.822 312.51ZM171.455 320.084C170.737 320.084 170.093 319.925 169.523 319.608C168.963 319.291 168.52 318.847 168.193 318.278C167.867 317.709 167.703 317.046 167.703 316.29C167.703 315.534 167.867 314.876 168.193 314.316C168.52 313.747 168.963 313.303 169.523 312.986C170.093 312.669 170.737 312.51 171.455 312.51C172.081 312.51 172.645 312.65 173.149 312.93C173.653 313.21 174.055 313.63 174.353 314.19C174.661 314.75 174.815 315.45 174.815 316.29C174.815 317.13 174.666 317.83 174.367 318.39C174.078 318.95 173.681 319.375 173.177 319.664C172.673 319.944 172.099 320.084 171.455 320.084ZM171.567 318.908C172.034 318.908 172.454 318.801 172.827 318.586C173.21 318.371 173.509 318.068 173.723 317.676C173.947 317.275 174.059 316.813 174.059 316.29C174.059 315.758 173.947 315.301 173.723 314.918C173.509 314.526 173.21 314.223 172.827 314.008C172.454 313.793 172.034 313.686 171.567 313.686C171.091 313.686 170.667 313.793 170.293 314.008C169.92 314.223 169.621 314.526 169.397 314.918C169.173 315.301 169.061 315.758 169.061 316.29C169.061 316.813 169.173 317.275 169.397 317.676C169.621 318.068 169.92 318.371 170.293 318.586C170.667 318.801 171.091 318.908 171.567 318.908ZM174.101 320V317.998L174.185 316.276L174.045 314.554V309.612H175.389V320H174.101ZM177.932 320V309.612H179.276V320H177.932ZM181.842 320V312.58H183.186V320H181.842ZM182.514 311.152C182.253 311.152 182.034 311.068 181.856 310.9C181.688 310.732 181.604 310.527 181.604 310.284C181.604 310.032 181.688 309.822 181.856 309.654C182.034 309.486 182.253 309.402 182.514 309.402C182.776 309.402 182.99 309.486 183.158 309.654C183.336 309.813 183.424 310.013 183.424 310.256C183.424 310.508 183.34 310.723 183.172 310.9C183.004 311.068 182.785 311.152 182.514 311.152ZM189.715 312.51C190.321 312.51 190.853 312.627 191.311 312.86C191.777 313.093 192.141 313.448 192.403 313.924C192.664 314.4 192.795 315.002 192.795 315.73V320H191.451V315.884C191.451 315.165 191.273 314.624 190.919 314.26C190.573 313.896 190.083 313.714 189.449 313.714C188.973 313.714 188.557 313.807 188.203 313.994C187.848 314.181 187.573 314.456 187.377 314.82C187.19 315.184 187.097 315.637 187.097 316.178V320H185.753V312.58H187.041V314.582L186.831 314.05C187.073 313.565 187.447 313.187 187.951 312.916C188.455 312.645 189.043 312.51 189.715 312.51ZM198.53 322.8C197.848 322.8 197.186 322.702 196.542 322.506C195.907 322.319 195.389 322.049 194.988 321.694L195.632 320.658C195.977 320.957 196.402 321.19 196.906 321.358C197.41 321.535 197.937 321.624 198.488 321.624C199.365 321.624 200.009 321.419 200.42 321.008C200.83 320.597 201.036 319.972 201.036 319.132V317.564L201.176 316.094L201.106 314.61V312.58H202.38V318.992C202.38 320.299 202.053 321.26 201.4 321.876C200.746 322.492 199.79 322.8 198.53 322.8ZM198.362 319.692C197.643 319.692 196.999 319.543 196.43 319.244C195.87 318.936 195.422 318.511 195.086 317.97C194.759 317.429 194.596 316.803 194.596 316.094C194.596 315.375 194.759 314.75 195.086 314.218C195.422 313.677 195.87 313.257 196.43 312.958C196.999 312.659 197.643 312.51 198.362 312.51C198.996 312.51 199.575 312.641 200.098 312.902C200.62 313.154 201.036 313.546 201.344 314.078C201.661 314.61 201.82 315.282 201.82 316.094C201.82 316.897 201.661 317.564 201.344 318.096C201.036 318.628 200.62 319.029 200.098 319.3C199.575 319.561 198.996 319.692 198.362 319.692ZM198.516 318.516C199.01 318.516 199.449 318.413 199.832 318.208C200.214 318.003 200.513 317.718 200.728 317.354C200.952 316.99 201.064 316.57 201.064 316.094C201.064 315.618 200.952 315.198 200.728 314.834C200.513 314.47 200.214 314.19 199.832 313.994C199.449 313.789 199.01 313.686 198.516 313.686C198.021 313.686 197.578 313.789 197.186 313.994C196.803 314.19 196.5 314.47 196.276 314.834C196.061 315.198 195.954 315.618 195.954 316.094C195.954 316.57 196.061 316.99 196.276 317.354C196.5 317.718 196.803 318.003 197.186 318.208C197.578 318.413 198.021 318.516 198.516 318.516Z" fill="#FF5D25"/>
<defs>
<linearGradient id="paint0_linear_1672_830" x1="1" y1="29" x2="1" y2="203.857" gradientUnits="userSpaceOnUse">
<stop stop-color="#FF5D25" stop-opacity="0.5"/>
<stop offset="1" stop-color="#DFDFE7"/>
</linearGradient>
</defs>
</svg>
