<svg width="18" height="21" viewBox="0 0 18 21" fill="none" xmlns="http://www.w3.org/2000/svg">
<path d="M6 9.57031H4V11.5703H6V9.57031ZM10 9.57031H8V11.5703H10V9.57031ZM14 9.57031H12V11.5703H14V9.57031ZM16 2.57031H15V0.570312H13V2.57031H5V0.570312H3V2.57031H2C0.89 2.57031 0 3.47031 0 4.57031V18.5703C0 19.1007 0.210714 19.6095 0.585786 19.9845C0.960859 20.3596 1.46957 20.5703 2 20.5703H16C16.5304 20.5703 17.0391 20.3596 17.4142 19.9845C17.7893 19.6095 18 19.1007 18 18.5703V4.57031C18 4.03988 17.7893 3.53117 17.4142 3.1561C17.0391 2.78103 16.5304 2.57031 16 2.57031ZM16 18.5703H2V7.57031H16V18.5703Z" fill="#030122"/>
</svg>
